<?xml version="1.0" encoding="UTF-8" ?>
<!DOCTYPE svg PUBLIC "-//W3C//DTD SVG 1.1//EN" "http://www.w3.org/Graphics/SVG/1.1/DTD/svg11.dtd">
<svg width="52px" height="63px" viewBox="0 0 52 63" version="1.1" xmlns="http://www.w3.org/2000/svg">
<g id="#828181ff">
<path fill="#828181" opacity="1.00" d=" M 25.55 14.45 C 26.28 7.52 31.68 0.21 39.20 0.49 C 38.95 7.49 33.10 15.40 25.55 14.45 Z" />
<path fill="#828181" opacity="1.00" d=" M 1.33 29.90 C 2.22 22.81 7.65 16.11 14.91 14.99 C 18.17 14.31 21.28 15.73 24.22 16.91 C 28.16 18.88 31.98 15.59 35.89 15.10 C 41.35 13.71 46.84 16.72 50.05 21.04 C 46.43 24.00 43.05 28.03 43.41 33.02 C 43.18 38.51 46.86 43.12 51.32 45.86 C 49.49 51.92 46.28 58.11 40.82 61.61 C 36.56 64.22 32.40 59.97 28.02 60.24 C 24.13 59.95 20.87 62.99 16.98 62.53 C 13.81 62.22 11.52 59.70 9.61 57.39 C 3.58 49.70 -0.06 39.73 1.33 29.90 Z" />
</g>
</svg>
