<?xml version="1.0" encoding="UTF-8" ?>
<!DOCTYPE svg PUBLIC "-//W3C//DTD SVG 1.1//EN" "http://www.w3.org/Graphics/SVG/1.1/DTD/svg11.dtd">
<svg width="52pt" height="63pt" viewBox="0 0 52 63" version="1.1" xmlns="http://www.w3.org/2000/svg">
<g id="#ffffffff">
<path fill="#ffffff" opacity="1.00" d=" M 0.00 0.00 L 52.00 0.00 L 52.00 63.00 L 0.00 63.00 L 0.00 0.00 M 26.09 14.89 C 33.16 14.56 38.88 7.96 38.97 1.01 C 31.70 -0.05 25.38 7.99 26.09 14.89 M 12.42 15.56 C 5.70 17.96 1.23 24.96 1.11 31.99 C 0.42 41.16 4.05 50.21 9.59 57.37 C 11.31 59.45 13.25 61.81 16.10 62.18 C 20.28 63.33 23.87 59.93 28.00 60.26 C 32.32 59.95 36.37 63.86 40.67 61.67 C 44.93 59.30 47.44 54.82 49.65 50.64 C 50.48 48.68 52.13 45.63 49.40 44.39 C 42.52 40.04 41.20 28.90 47.50 23.49 C 48.17 22.54 50.05 21.89 49.54 20.48 C 46.26 15.91 39.98 13.51 34.57 15.44 C 31.18 16.27 27.61 18.64 24.12 16.86 C 20.48 15.19 16.33 14.03 12.42 15.56 Z" />
</g>
<g id="#828181ff">
<path fill="#828181" opacity="1.00" d=" M 26.09 14.89 C 25.38 7.99 31.70 -0.05 38.97 1.01 C 38.88 7.96 33.16 14.56 26.09 14.89 Z" />
<path fill="#828181" opacity="1.00" d=" M 12.42 15.56 C 16.33 14.03 20.48 15.19 24.12 16.86 C 27.61 18.64 31.18 16.27 34.57 15.44 C 39.98 13.51 46.26 15.91 49.54 20.48 C 50.05 21.89 48.17 22.54 47.50 23.49 C 41.20 28.90 42.52 40.04 49.40 44.39 C 52.13 45.63 50.48 48.68 49.65 50.64 C 47.44 54.82 44.93 59.30 40.67 61.67 C 36.37 63.86 32.32 59.95 28.00 60.26 C 23.87 59.93 20.28 63.33 16.10 62.18 C 13.25 61.81 11.31 59.45 9.59 57.37 C 4.05 50.21 0.42 41.16 1.11 31.99 C 1.23 24.96 5.70 17.96 12.42 15.56 Z" />
</g>
</svg>
