<?xml version="1.0" encoding="UTF-8" ?>
<!DOCTYPE svg PUBLIC "-//W3C//DTD SVG 1.1//EN" "http://www.w3.org/Graphics/SVG/1.1/DTD/svg11.dtd">
<svg width="116pt" height="21pt" viewBox="0 0 116 21" version="1.1" xmlns="http://www.w3.org/2000/svg">
<g id="#ffffffff">
<path fill="#ffffff" opacity="1.00" d=" M 0.00 0.00 L 15.07 0.00 C 13.39 1.47 12.30 3.42 11.35 5.40 C 25.29 5.35 39.23 5.50 53.17 5.39 C 53.17 3.59 53.18 1.80 53.18 0.00 L 54.76 0.00 C 54.68 1.81 54.67 3.63 54.66 5.44 C 56.54 5.41 58.43 5.37 60.31 5.33 C 60.31 3.55 60.29 1.78 60.27 0.00 L 73.99 0.00 C 74.07 1.90 74.14 3.80 74.25 5.69 C 85.17 5.65 96.08 5.64 107.00 5.75 C 107.10 3.83 107.19 1.92 107.24 0.00 L 111.82 0.00 C 111.50 1.91 111.34 3.85 111.28 5.78 C 112.61 5.68 113.94 5.58 115.27 5.49 C 114.04 5.19 112.81 4.90 111.59 4.61 C 113.57 4.45 114.28 2.85 114.83 1.22 C 114.30 0.92 113.25 0.31 112.73 0.00 L 116.00 0.00 L 116.00 21.00 L 7.58 21.00 C 10.56 16.09 14.30 11.70 17.24 6.78 C 15.83 6.69 14.41 6.61 12.99 6.55 C 12.52 6.28 11.58 5.74 11.11 5.48 C 7.10 10.26 3.89 15.66 0.00 20.54 L 0.00 0.00 M 54.87 6.04 C 54.47 8.31 54.57 10.62 54.66 12.91 C 51.49 7.20 44.38 8.70 38.97 8.06 C 32.93 7.26 26.82 7.41 20.76 6.89 C 20.50 11.33 20.53 15.78 20.87 20.20 C 30.52 20.25 40.19 20.35 49.84 20.12 C 52.00 20.22 53.15 18.15 54.53 16.85 C 55.32 18.29 56.20 20.23 58.17 20.17 C 61.80 20.50 65.44 20.12 69.07 20.23 C 72.84 20.13 77.46 21.39 79.93 17.65 C 80.02 18.28 80.19 19.55 80.28 20.18 C 87.79 20.32 95.31 20.25 102.82 20.20 C 107.03 20.68 109.37 15.05 107.33 11.83 C 105.70 8.29 101.37 8.60 98.10 8.35 C 90.08 7.63 82.04 7.26 73.99 6.94 C 74.10 9.65 74.05 12.36 73.94 15.07 C 69.42 15.35 64.79 15.80 60.33 14.81 C 60.47 12.14 60.43 9.47 60.17 6.81 C 58.40 6.60 56.64 6.31 54.87 6.04 Z" />
<path fill="#ffffff" opacity="1.00" d=" M 26.90 0.00 L 32.38 0.00 C 30.13 0.40 28.48 2.10 26.82 3.54 C 26.84 2.65 26.88 0.88 26.90 0.00 Z" />
<path fill="#ffffff" opacity="1.00" d=" M 80.08 0.00 L 84.23 0.00 C 82.83 1.33 81.66 2.88 80.46 4.38 C 80.34 2.92 80.21 1.46 80.08 0.00 Z" />
<path fill="#ffffff" opacity="1.00" d=" M 80.22 7.77 C 81.49 9.41 82.73 11.43 84.95 11.81 C 90.53 12.90 96.30 12.29 101.88 13.37 C 101.96 13.78 102.11 14.60 102.18 15.01 C 94.90 15.60 87.53 15.28 80.23 15.06 C 80.19 12.63 80.19 10.20 80.22 7.77 Z" />
<path fill="#ffffff" opacity="1.00" d=" M 26.76 8.64 C 28.37 9.93 29.74 11.90 31.99 12.01 C 37.28 12.82 42.69 12.41 47.96 13.34 C 48.25 13.73 48.83 14.50 49.12 14.88 C 41.72 15.73 34.23 15.26 26.79 15.23 C 26.62 13.04 26.62 10.83 26.76 8.64 Z" />
</g>
<g id="#828181ff">
<path fill="#828181" opacity="1.00" d=" M 15.07 0.00 L 26.90 0.00 C 26.88 0.88 26.84 2.65 26.82 3.54 C 28.48 2.10 30.13 0.40 32.38 0.00 L 53.18 0.00 C 53.18 1.80 53.17 3.59 53.17 5.39 C 39.23 5.50 25.29 5.35 11.35 5.40 C 12.30 3.42 13.39 1.47 15.07 0.00 Z" />
<path fill="#828181" opacity="1.00" d=" M 54.76 0.00 L 60.27 0.00 C 60.29 1.78 60.31 3.55 60.31 5.33 C 58.43 5.37 56.54 5.41 54.66 5.44 C 54.67 3.63 54.68 1.81 54.76 0.00 Z" />
<path fill="#828181" opacity="1.00" d=" M 73.99 0.00 L 80.08 0.00 C 80.21 1.46 80.34 2.92 80.46 4.38 C 81.66 2.88 82.83 1.33 84.23 0.00 L 107.24 0.00 C 107.19 1.92 107.10 3.83 107.00 5.75 C 96.08 5.64 85.17 5.65 74.25 5.69 C 74.14 3.80 74.07 1.90 73.99 0.00 Z" />
<path fill="#828181" opacity="1.00" d=" M 111.82 0.00 L 112.73 0.00 C 113.25 0.31 114.30 0.92 114.83 1.22 C 114.28 2.85 113.57 4.45 111.59 4.61 C 112.81 4.90 114.04 5.19 115.27 5.49 C 113.94 5.58 112.61 5.68 111.28 5.78 C 111.34 3.85 111.50 1.91 111.82 0.00 Z" />
<path fill="#828181" opacity="1.00" d=" M 0.00 20.54 C 3.89 15.66 7.10 10.26 11.11 5.48 C 11.58 5.74 12.52 6.28 12.99 6.55 C 14.41 6.61 15.83 6.69 17.24 6.78 C 14.30 11.70 10.56 16.09 7.58 21.00 L 0.00 21.00 L 0.00 20.54 Z" />
<path fill="#828181" opacity="1.00" d=" M 54.87 6.04 C 56.64 6.31 58.40 6.60 60.17 6.81 C 60.43 9.47 60.47 12.14 60.33 14.81 C 64.79 15.80 69.42 15.35 73.94 15.07 C 74.05 12.36 74.10 9.65 73.99 6.94 C 82.04 7.26 90.08 7.63 98.10 8.35 C 101.37 8.60 105.70 8.29 107.33 11.83 C 109.37 15.05 107.03 20.68 102.82 20.20 C 95.31 20.25 87.79 20.32 80.28 20.18 C 80.19 19.55 80.02 18.28 79.93 17.65 C 77.46 21.39 72.84 20.13 69.07 20.23 C 65.44 20.12 61.80 20.50 58.17 20.17 C 56.20 20.23 55.32 18.29 54.53 16.85 C 53.15 18.15 52.00 20.22 49.84 20.12 C 40.19 20.35 30.52 20.25 20.87 20.20 C 20.53 15.78 20.50 11.33 20.76 6.89 C 26.82 7.41 32.93 7.26 38.97 8.06 C 44.38 8.70 51.49 7.20 54.66 12.91 C 54.57 10.62 54.47 8.31 54.87 6.04 M 80.22 7.77 C 80.19 10.20 80.19 12.63 80.23 15.06 C 87.53 15.28 94.90 15.60 102.18 15.01 C 102.11 14.60 101.96 13.78 101.88 13.37 C 96.30 12.29 90.53 12.90 84.95 11.81 C 82.73 11.43 81.49 9.41 80.22 7.77 M 26.76 8.64 C 26.62 10.83 26.62 13.04 26.79 15.23 C 34.23 15.26 41.72 15.73 49.12 14.88 C 48.83 14.50 48.25 13.73 47.96 13.34 C 42.69 12.41 37.28 12.82 31.99 12.01 C 29.74 11.90 28.37 9.93 26.76 8.64 Z" />
</g>
</svg>
