<?xml version="1.0" encoding="UTF-8" ?>
<!DOCTYPE svg PUBLIC "-//W3C//DTD SVG 1.1//EN" "http://www.w3.org/Graphics/SVG/1.1/DTD/svg11.dtd">
<svg width="452pt" height="479pt" viewBox="0 0 452 479" version="1.1" xmlns="http://www.w3.org/2000/svg">
<g id="#000000ff">
<path fill="#000000" opacity="1.00" d=" M 164.46 2.70 C 170.91 1.75 177.43 0.93 183.96 1.41 C 195.31 2.12 206.58 4.29 217.99 3.72 C 220.83 3.40 223.20 5.05 224.81 7.22 C 231.45 6.51 237.39 11.27 244.07 9.49 C 252.30 15.11 262.84 11.95 271.98 14.45 C 280.46 16.33 286.73 23.16 295.08 25.34 C 298.98 26.47 303.20 24.30 306.96 26.19 C 314.44 29.47 323.03 30.32 329.76 35.22 C 335.44 39.95 338.27 47.25 344.05 51.91 C 346.13 53.70 348.72 54.71 351.24 55.74 C 352.38 61.90 356.69 66.74 361.49 70.47 C 366.84 74.52 372.25 79.01 374.74 85.47 C 380.88 84.18 387.14 82.96 393.43 83.70 C 393.01 85.27 392.52 86.83 391.76 88.27 C 401.38 90.33 411.78 86.34 420.92 90.78 C 419.94 92.89 418.38 94.89 416.04 95.50 C 406.91 97.43 397.99 91.73 388.88 94.12 C 390.05 97.05 392.16 99.42 393.87 102.02 C 401.70 113.48 409.75 125.01 420.35 134.11 C 423.22 128.41 417.56 120.76 423.20 116.13 C 428.13 124.97 420.46 134.95 423.70 144.09 C 425.07 147.41 429.10 148.22 431.23 150.91 C 431.73 152.23 431.90 153.65 432.23 155.03 C 433.14 160.76 437.81 165.16 438.30 171.02 C 438.15 173.59 436.99 176.40 434.83 177.92 C 430.68 177.30 432.93 171.71 431.80 168.87 C 429.00 169.27 427.52 172.42 428.57 174.95 C 430.42 179.97 434.49 183.91 435.85 189.16 C 436.77 192.07 435.24 195.08 435.83 198.02 C 437.27 201.90 441.17 204.67 441.35 209.04 C 442.05 219.03 440.85 229.03 441.25 239.02 C 441.85 253.31 441.95 267.62 441.59 281.92 C 441.48 285.04 442.26 288.30 441.35 291.34 C 439.77 293.54 437.70 295.44 436.79 298.06 C 432.60 308.59 434.78 320.38 431.14 331.03 C 430.09 334.54 427.40 337.17 424.39 339.07 C 424.82 353.69 415.46 366.35 415.50 380.93 C 415.75 380.81 416.24 380.59 416.49 380.47 C 419.53 375.87 421.28 370.54 422.49 365.19 C 424.82 363.30 427.80 362.02 429.35 359.26 C 436.76 347.71 434.27 332.65 441.51 321.02 C 441.25 313.95 439.93 305.77 445.23 300.11 C 446.80 255.75 442.51 211.28 446.67 167.00 C 449.19 170.22 449.61 174.51 450.31 178.40 C 451.44 190.92 450.26 203.48 450.30 216.02 C 450.29 246.69 450.85 277.43 448.13 308.01 C 447.38 314.00 447.46 320.12 445.95 326.00 C 445.19 329.39 440.66 331.12 441.52 334.98 C 442.48 340.31 441.79 345.82 439.71 350.80 C 436.18 359.79 428.31 366.21 424.68 375.14 C 423.41 378.02 422.78 381.12 422.29 384.22 C 419.96 385.86 417.49 387.31 415.37 389.24 C 416.06 394.09 416.30 399.13 414.98 403.90 C 412.81 411.58 408.74 418.62 407.06 426.46 C 405.45 432.82 405.01 439.75 401.31 445.37 C 399.24 448.54 395.59 450.18 391.96 450.81 C 396.29 441.26 401.94 432.24 404.68 422.02 C 407.07 414.07 407.64 405.70 407.23 397.44 C 403.93 397.72 401.06 399.77 399.31 402.51 C 396.14 407.25 394.95 413.05 391.43 417.59 C 387.56 422.67 380.00 422.99 376.67 428.67 C 370.72 429.73 364.95 431.71 359.73 434.77 C 351.27 439.57 343.06 445.74 333.10 446.84 C 333.16 443.99 334.76 441.65 336.41 439.47 C 336.87 438.78 337.29 438.06 337.73 437.37 C 342.90 435.95 348.21 435.02 353.25 433.15 C 365.09 428.94 375.90 422.29 386.18 415.17 C 387.65 411.41 388.44 407.21 391.06 403.94 C 394.96 397.94 401.20 394.15 405.93 388.93 C 409.74 384.87 405.86 378.59 409.03 374.26 C 410.51 372.26 413.31 370.90 413.15 368.06 C 414.46 346.49 427.20 327.92 430.90 306.89 C 431.54 303.33 431.07 299.67 431.66 296.10 C 432.24 294.11 433.85 292.64 434.96 290.94 C 437.55 287.54 437.70 283.07 438.06 278.99 C 438.17 266.57 434.22 254.48 434.54 242.04 C 434.55 230.99 437.67 219.97 435.87 208.95 C 435.36 204.35 431.24 201.35 430.16 196.97 C 429.21 193.65 429.65 190.02 428.25 186.83 C 427.41 185.02 425.34 184.44 423.77 183.48 C 421.75 172.47 422.07 161.21 420.24 150.18 C 419.21 144.65 417.48 138.87 413.35 134.84 C 409.96 131.79 405.72 129.88 402.34 126.82 C 392.69 118.33 385.48 107.56 376.66 98.29 C 374.77 98.42 372.84 98.85 370.97 98.40 C 367.58 96.98 365.65 93.64 363.53 90.83 C 365.73 87.99 366.76 83.85 364.13 80.91 C 359.79 75.57 353.91 71.76 349.14 66.81 C 343.14 60.78 337.51 54.37 332.54 47.46 C 329.23 42.87 324.03 40.19 318.83 38.31 C 308.28 34.60 297.17 32.93 286.22 30.85 C 271.97 28.66 257.25 27.18 243.02 30.21 C 238.23 30.93 234.79 34.95 230.01 35.67 C 222.11 37.18 214.01 37.31 205.99 37.23 C 198.83 37.04 191.27 35.08 184.45 38.17 C 178.68 40.81 172.25 40.67 166.05 40.51 C 161.76 40.13 157.07 40.53 153.18 38.37 C 156.89 34.44 162.74 38.03 167.02 35.35 C 166.11 29.49 159.89 28.51 155.49 26.30 C 153.03 25.20 152.09 22.60 151.34 20.22 C 146.55 21.35 141.81 22.95 137.62 25.59 C 128.43 31.11 121.53 39.83 111.83 44.58 C 107.74 46.02 107.06 50.80 104.86 54.03 C 105.62 54.73 106.38 55.44 107.15 56.14 C 104.95 62.48 98.74 65.89 93.92 69.96 C 92.24 76.82 92.20 84.45 87.71 90.29 C 87.32 87.18 90.50 81.21 86.16 80.03 C 86.38 82.07 86.67 84.11 86.92 86.15 C 75.04 91.44 66.31 103.42 66.28 116.61 C 74.17 113.23 75.31 103.90 78.99 97.15 C 80.47 94.70 83.66 96.15 85.84 96.52 C 85.04 102.96 81.84 108.84 77.53 113.61 C 72.51 119.30 66.99 124.95 64.73 132.41 C 63.23 132.80 61.73 133.18 60.23 133.56 C 54.88 142.32 53.51 152.73 49.05 161.89 C 47.51 165.12 44.66 167.63 43.59 171.09 C 42.95 175.70 43.39 180.66 40.91 184.83 C 39.00 187.98 37.89 191.63 39.34 195.22 C 37.80 198.94 33.91 200.67 31.66 203.82 C 29.22 208.48 29.49 213.95 28.21 218.96 C 27.70 221.53 26.08 223.65 25.03 226.01 C 24.57 228.93 24.69 231.91 24.20 234.83 C 22.29 246.15 17.00 256.59 15.35 267.97 C 13.49 278.96 15.61 290.04 16.42 301.02 C 16.94 310.69 18.45 320.47 16.88 330.11 C 16.42 334.16 12.85 336.91 12.11 340.87 C 10.32 348.40 9.44 356.44 11.23 364.05 C 12.52 370.20 20.63 370.73 22.59 376.54 C 29.49 395.49 35.52 414.83 43.93 433.20 C 43.22 435.33 41.84 437.77 43.43 439.87 C 45.25 442.69 47.87 444.93 49.41 447.95 C 51.43 448.37 53.47 448.82 55.36 449.67 L 56.02 450.04 C 54.30 449.91 52.66 449.30 50.96 449.10 C 48.79 448.76 49.44 452.41 47.17 451.95 C 43.36 450.59 41.40 446.65 39.76 443.23 C 35.24 432.61 30.59 422.02 25.19 411.81 C 23.13 407.91 20.37 404.42 18.51 400.41 C 16.94 397.20 17.48 393.37 15.79 390.20 C 13.25 384.95 8.64 381.03 6.22 375.72 C 4.28 371.72 6.00 367.14 4.74 362.97 C 2.64 353.51 -1.63 343.31 3.14 333.91 C 4.34 334.16 5.07 334.88 5.32 336.08 C 7.01 342.62 4.16 349.60 6.40 356.02 C 8.21 337.39 11.21 318.76 10.22 299.99 C 9.87 295.34 9.57 290.69 9.32 286.04 C 8.56 274.67 10.95 263.38 10.41 252.02 C 9.87 237.96 8.38 223.66 11.52 209.79 C 12.55 204.88 15.43 200.68 17.05 195.99 C 17.80 193.84 17.43 191.43 18.43 189.36 C 19.82 187.07 22.23 185.55 23.46 183.15 C 25.21 179.15 24.68 174.51 26.63 170.59 C 29.06 166.67 33.67 164.84 36.29 161.09 C 38.35 158.32 36.16 154.32 38.69 151.75 C 42.74 146.80 48.55 143.53 52.33 138.32 C 54.56 135.35 53.28 131.51 53.58 128.12 C 54.34 120.83 60.89 115.45 60.88 107.97 C 61.09 105.73 60.00 103.53 60.36 101.32 C 62.13 99.74 64.49 98.84 65.93 96.89 C 69.41 91.70 69.14 84.88 72.87 79.81 C 76.95 74.43 83.70 72.04 88.08 66.96 C 92.13 62.26 95.10 56.72 99.16 52.02 C 110.29 39.49 123.73 29.36 136.66 18.80 C 138.31 17.38 140.46 16.25 141.20 14.06 C 138.70 13.81 136.21 13.46 133.71 13.26 C 133.88 11.28 132.64 8.15 135.29 7.38 C 140.60 5.26 145.69 9.72 151.07 9.40 C 153.92 9.71 155.59 7.07 157.50 5.45 C 159.33 3.62 162.03 3.18 164.46 2.70 M 161.12 10.56 C 170.16 13.72 172.54 24.87 181.11 28.68 C 183.98 30.10 187.25 29.57 190.29 29.17 C 190.16 22.25 190.82 15.29 189.93 8.40 C 180.39 5.97 170.41 7.98 161.12 10.56 M 197.17 8.40 C 198.63 16.16 202.44 23.15 205.37 30.41 C 215.71 34.07 226.05 29.12 235.90 26.31 C 249.39 22.06 263.71 29.02 277.11 24.26 C 271.42 21.36 265.24 19.61 259.11 17.91 C 238.82 12.72 217.87 11.16 197.17 8.40 M 155.29 15.42 C 155.21 23.71 164.62 25.74 170.83 27.95 C 170.18 25.61 169.37 23.18 167.49 21.53 C 164.03 18.45 159.40 17.34 155.29 15.42 M 198.07 29.33 C 199.54 28.53 199.57 27.68 198.17 26.79 C 196.73 27.61 196.70 28.46 198.07 29.33 M 41.76 161.60 C 43.14 161.52 43.52 158.86 42.00 158.70 C 40.51 158.79 40.05 161.50 41.76 161.60 M 32.42 171.46 C 28.67 174.91 31.25 181.09 27.57 184.59 C 16.12 196.93 14.52 215.24 17.23 231.15 C 19.76 221.72 23.33 212.62 27.64 203.87 C 33.37 192.24 38.40 180.00 39.53 166.96 C 36.79 167.74 34.50 169.58 32.42 171.46 Z" />
<path fill="#000000" opacity="1.00" d=" M 147.53 103.59 C 153.13 100.46 156.18 93.02 163.32 92.85 C 163.25 95.80 160.80 97.88 158.96 99.89 C 148.94 109.53 135.27 113.93 122.03 117.03 C 107.41 120.20 92.53 122.30 77.64 123.65 C 77.94 122.93 78.53 121.49 78.82 120.78 C 81.88 118.78 85.66 120.09 89.07 119.67 C 100.03 118.64 110.74 115.89 121.38 113.13 C 130.30 110.63 139.45 108.27 147.53 103.59 Z" />
<path fill="#000000" opacity="1.00" d=" M 272.30 96.75 C 273.42 95.88 274.68 95.45 276.09 95.44 C 279.25 96.63 280.52 100.24 283.62 101.57 C 292.80 106.49 303.05 108.89 313.14 111.15 C 323.98 113.56 335.42 114.32 345.52 119.29 C 346.75 120.17 348.95 120.48 348.94 122.39 C 324.60 119.16 299.14 115.63 278.08 102.02 C 275.77 100.72 273.66 99.06 272.30 96.75 Z" />
<path fill="#000000" opacity="1.00" d=" M 152.73 139.92 C 159.92 136.53 168.17 136.81 175.90 137.43 C 180.69 138.15 187.05 139.76 187.95 145.41 C 189.92 156.78 186.74 168.10 184.94 179.27 C 183.92 184.07 186.20 189.57 183.01 193.83 C 178.05 201.01 170.10 206.03 161.62 207.94 C 153.19 209.65 144.51 209.60 135.98 208.80 C 119.76 208.05 103.59 205.20 87.32 206.64 C 86.90 195.10 86.25 183.39 88.76 172.02 C 90.14 166.22 92.73 160.24 97.81 156.77 C 103.24 153.09 109.75 151.64 116.02 150.10 C 122.99 148.49 129.90 146.48 137.04 145.80 C 140.43 145.47 143.76 147.02 147.15 146.34 C 150.03 145.20 149.93 141.19 152.73 139.92 M 161.57 143.77 C 143.12 149.91 123.59 151.67 105.00 157.27 C 103.82 157.64 102.60 157.97 101.55 158.65 C 91.46 171.17 88.52 187.92 89.55 203.61 C 106.36 203.60 123.13 205.31 139.94 205.24 C 149.89 204.76 160.27 204.59 169.48 200.31 C 175.61 197.55 179.59 191.51 181.12 185.12 C 184.32 172.45 182.84 159.25 184.47 146.39 C 181.80 142.80 177.48 141.08 173.10 140.92 C 168.98 140.15 165.35 142.62 161.57 143.77 Z" />
<path fill="#000000" opacity="1.00" d=" M 299.03 140.44 C 299.25 139.76 299.69 138.39 299.91 137.70 C 305.71 136.64 311.95 137.71 316.82 141.11 C 321.60 144.29 325.00 148.99 328.94 153.08 C 332.81 157.44 336.95 162.05 338.37 167.87 C 340.77 179.80 332.66 191.21 335.91 203.16 C 330.55 208.22 323.23 210.82 316.00 211.59 C 308.75 212.08 301.12 212.01 294.45 208.79 C 288.68 205.88 282.10 208.45 276.02 207.04 C 260.68 205.17 247.51 196.60 233.44 190.97 C 232.59 182.99 233.29 174.92 234.62 167.03 C 235.33 162.73 238.39 159.33 241.70 156.72 C 251.38 149.03 262.75 143.07 275.09 141.25 C 282.99 139.78 291.05 140.38 299.03 140.44 M 302.20 141.57 C 301.55 144.71 306.45 144.79 305.98 147.98 C 300.50 146.07 294.88 144.31 289.03 144.27 C 272.76 143.57 255.50 148.90 244.28 161.13 C 241.34 163.88 237.93 166.80 237.49 171.09 C 236.90 176.04 237.26 181.04 237.14 186.02 C 247.13 196.25 261.72 199.46 275.16 202.50 C 287.39 204.77 299.54 208.15 312.03 208.44 C 319.47 208.56 328.34 206.31 331.79 199.01 C 331.17 191.94 332.38 184.97 333.57 178.03 C 333.77 174.02 334.81 169.33 332.15 165.88 C 326.59 158.07 321.10 149.64 312.59 144.74 C 309.44 142.82 305.79 142.14 302.20 141.57 Z" />
<path fill="#000000" opacity="1.00" d=" M 270.43 189.22 C 269.79 181.37 268.93 173.37 270.83 165.61 C 272.36 165.48 273.89 165.54 275.42 165.80 C 275.83 170.92 274.15 175.86 273.81 180.93 C 273.57 184.06 275.27 187.39 278.45 188.27 C 284.82 190.10 291.64 188.32 297.54 185.70 C 300.37 184.24 303.86 182.46 304.38 178.95 C 305.00 175.84 302.76 172.97 299.90 172.01 C 292.55 169.34 284.46 170.43 277.04 168.06 C 282.22 165.40 288.43 165.22 294.06 166.35 C 298.73 167.27 303.56 169.36 306.26 173.48 C 309.40 178.61 307.29 186.12 301.61 188.47 C 292.05 192.98 280.03 194.31 270.43 189.22 Z" />
<path fill="#000000" opacity="1.00" d=" M 121.23 177.60 C 123.52 173.19 128.35 170.87 132.99 169.82 C 140.85 168.45 149.46 169.40 156.19 173.94 C 159.89 176.35 162.75 180.51 162.57 185.06 C 162.72 188.37 161.17 191.37 159.97 194.36 C 149.08 195.19 137.97 196.31 127.20 193.91 C 125.29 193.31 123.20 192.93 121.58 191.72 C 119.56 187.36 118.89 181.97 121.23 177.60 M 128.05 174.93 C 124.48 176.65 122.64 181.15 124.15 184.86 C 124.99 186.98 125.60 190.07 128.35 190.35 C 137.10 192.27 146.11 192.77 155.04 192.27 C 156.86 189.53 158.86 186.40 158.26 182.94 C 157.24 178.50 152.99 175.81 148.96 174.41 C 142.25 172.20 134.53 171.73 128.05 174.93 Z" />
<path fill="#000000" opacity="1.00" d=" M 186.98 245.03 C 188.00 243.30 190.14 243.85 191.79 243.71 C 191.76 246.09 190.36 248.06 189.37 250.12 C 183.52 261.88 177.09 273.47 168.65 283.59 C 167.80 286.50 168.51 290.02 166.46 292.59 C 165.31 294.18 163.29 294.56 161.46 294.71 C 161.54 285.35 167.76 278.03 173.24 271.11 C 173.31 269.11 172.98 266.90 174.17 265.15 C 176.49 261.53 180.58 259.55 183.04 256.06 C 185.26 252.74 185.08 248.48 186.98 245.03 Z" />
<path fill="#000000" opacity="1.00" d=" M 239.60 259.81 C 240.14 259.61 241.23 259.22 241.77 259.02 C 247.78 268.21 253.02 279.29 249.68 290.48 C 249.07 285.49 248.02 280.47 245.52 276.06 C 242.76 270.97 240.13 265.66 239.60 259.81 Z" />
<path fill="#000000" opacity="1.00" d=" M 193.90 291.03 C 200.36 288.74 210.17 290.65 211.50 298.55 C 207.01 298.04 203.56 294.29 199.07 293.53 C 196.14 293.91 193.22 296.68 190.26 294.76 C 189.81 292.60 192.41 291.84 193.90 291.03 Z" />
<path fill="#000000" opacity="1.00" d=" M 217.98 294.05 C 220.07 290.79 224.26 289.28 228.01 289.60 C 230.60 289.71 232.60 292.04 232.72 294.57 C 229.62 295.21 226.86 293.47 224.02 292.56 C 223.44 292.84 222.29 293.40 221.72 293.68 C 221.60 295.54 221.41 297.39 221.15 299.24 C 219.08 298.59 216.55 296.40 217.98 294.05 Z" />
<path fill="#000000" opacity="1.00" d=" M 119.27 312.55 C 121.38 311.84 123.53 311.29 125.75 311.05 C 125.65 312.42 126.27 314.09 125.32 315.27 C 123.66 316.74 121.61 317.64 119.85 318.96 C 118.69 320.59 118.67 322.79 117.47 324.42 C 115.17 327.47 111.77 329.56 109.87 332.93 C 108.86 334.68 108.95 336.94 107.57 338.49 C 102.75 344.14 97.31 349.45 94.00 356.19 C 90.97 362.11 90.76 369.04 87.60 374.90 C 86.35 377.02 84.70 379.09 82.36 380.03 C 81.29 373.61 88.64 369.30 86.60 362.77 C 95.48 344.79 108.44 329.32 119.27 312.55 Z" />
<path fill="#000000" opacity="1.00" d=" M 120.05 365.87 C 131.28 356.80 144.10 348.12 159.01 347.49 C 164.47 346.88 168.38 351.60 173.58 352.23 C 187.04 355.23 200.72 349.60 214.16 352.50 C 222.06 354.14 228.11 359.89 233.96 365.06 C 242.42 373.25 251.91 380.33 259.87 389.05 C 257.58 392.60 252.25 392.82 250.71 397.01 C 250.49 398.53 250.58 400.07 250.45 401.60 C 246.13 407.21 240.22 411.32 234.55 415.45 C 225.39 421.86 218.04 430.77 207.85 435.69 C 198.66 440.40 188.01 440.49 177.94 440.00 C 162.26 438.31 146.75 442.45 131.07 441.82 C 126.99 441.62 122.76 441.59 118.94 439.97 C 114.61 437.94 111.55 434.12 107.85 431.22 C 103.75 427.94 98.54 426.24 94.89 422.38 C 90.84 418.06 86.48 413.26 85.82 407.10 C 84.83 398.78 87.85 390.64 91.17 383.17 C 96.81 378.76 102.27 372.77 109.89 372.31 C 113.96 371.51 116.91 368.34 120.05 365.87 M 116.47 371.06 C 116.09 372.43 115.71 373.80 115.35 375.19 C 107.78 376.86 99.93 379.69 94.83 385.85 C 89.85 391.63 88.67 399.68 89.30 407.06 C 97.62 417.37 105.13 429.63 117.89 434.94 C 129.06 439.76 141.39 436.83 152.86 434.87 C 168.39 431.90 184.24 434.39 199.91 433.42 C 205.54 432.91 211.42 431.90 216.12 428.54 C 219.44 426.15 220.12 421.63 223.28 419.09 C 226.40 416.55 230.25 414.99 233.08 412.06 C 235.34 409.71 237.93 407.73 240.69 406.02 C 240.80 403.79 240.43 401.41 241.74 399.45 C 244.59 395.05 250.30 393.63 252.93 389.04 C 250.80 386.27 248.56 383.59 246.47 380.81 C 236.44 376.17 230.72 364.96 219.53 362.36 C 219.14 361.10 218.76 359.84 218.40 358.58 C 203.99 352.60 188.07 355.33 173.02 356.40 C 165.87 357.16 160.36 350.20 153.09 351.89 C 138.53 353.19 130.06 367.30 116.47 371.06 Z" />
<path fill="#000000" opacity="1.00" d=" M 149.27 371.01 C 165.76 368.48 182.41 370.49 198.97 370.81 C 206.00 371.36 213.10 371.56 220.10 370.58 C 222.06 370.11 223.37 371.79 224.54 373.05 C 228.19 377.59 234.49 379.25 237.56 384.37 C 239.31 386.75 238.82 391.07 235.49 391.72 C 231.94 393.00 225.58 392.71 225.79 397.97 C 225.55 403.04 221.79 407.09 217.59 409.51 C 209.66 414.02 200.49 415.38 191.87 418.06 C 180.54 421.63 168.91 424.45 157.05 425.40 C 150.03 425.87 142.78 425.82 136.10 423.32 C 127.09 420.24 119.90 413.78 111.72 409.15 C 110.02 404.16 107.85 399.10 108.66 393.70 C 116.13 392.76 120.25 385.62 127.12 383.34 C 131.54 375.42 140.86 372.37 149.27 371.01 M 155.46 373.46 C 155.06 377.95 155.53 382.44 155.36 386.94 C 160.53 389.01 166.18 391.10 171.80 389.63 C 171.61 384.51 172.47 379.42 172.51 374.31 C 167.46 371.42 161.03 372.98 155.46 373.46 M 175.35 373.65 C 175.29 378.96 175.07 384.28 175.53 389.58 C 181.53 389.90 187.83 390.93 193.60 388.86 C 194.86 384.00 194.03 378.86 194.49 373.89 C 188.25 372.08 181.64 372.28 175.35 373.65 M 198.68 373.77 C 198.36 377.67 197.87 381.76 199.32 385.50 C 207.90 388.41 216.23 382.83 224.89 383.77 C 223.64 386.56 220.19 387.30 217.61 388.45 C 202.77 393.01 186.81 390.48 171.89 394.74 C 166.00 393.08 159.99 391.86 153.89 391.22 C 146.39 390.09 138.46 389.46 131.79 385.52 C 125.17 389.38 118.94 393.93 111.68 396.60 C 112.03 401.04 113.23 406.16 117.40 408.54 C 120.52 409.98 122.47 406.87 123.79 404.60 C 121.39 403.57 118.25 403.67 116.39 401.75 C 114.83 399.13 118.35 399.19 119.97 398.83 C 122.24 399.26 124.54 399.58 126.83 399.97 C 132.13 400.93 137.74 399.97 142.85 402.00 C 145.68 403.55 147.70 406.35 150.86 407.38 C 162.66 412.03 175.64 410.86 187.89 413.39 C 191.24 414.11 194.79 414.02 198.00 412.75 C 204.41 410.42 211.59 409.31 216.86 404.66 C 220.04 401.93 221.36 397.71 221.44 393.64 C 225.05 392.54 229.62 390.41 229.86 386.09 C 230.33 381.61 226.45 378.33 222.91 376.39 C 215.61 372.52 206.58 370.72 198.68 373.77 M 139.53 377.47 C 137.79 379.28 134.95 380.22 134.02 382.67 C 139.91 385.16 146.34 385.65 152.56 386.81 C 152.55 382.48 152.63 378.16 152.47 373.84 C 147.80 372.70 142.99 374.26 139.53 377.47 M 124.01 410.19 C 128.81 414.47 133.84 418.79 140.03 420.90 C 140.63 420.70 141.83 420.29 142.42 420.09 C 143.04 415.83 144.40 411.52 144.65 407.34 C 141.46 404.67 137.05 404.08 133.03 404.41 C 129.34 404.68 125.28 406.39 124.01 410.19 M 148.35 420.54 C 153.02 421.61 157.79 420.80 162.52 420.85 C 163.09 419.27 163.23 417.29 164.96 416.48 C 166.80 416.94 167.07 419.08 167.97 420.46 C 171.25 419.64 174.64 419.87 177.98 419.51 C 179.53 419.27 180.68 418.05 180.93 416.53 C 170.03 415.91 159.18 413.95 148.86 410.31 C 148.42 413.61 146.61 417.52 148.35 420.54 Z" />
<path fill="#000000" opacity="1.00" d=" M 270.21 371.59 C 273.02 369.51 276.02 372.47 276.96 375.10 C 280.74 384.23 283.72 394.13 282.45 404.13 C 282.04 407.71 280.45 411.04 278.38 413.95 C 280.35 404.69 280.06 394.90 277.01 385.91 C 275.35 380.86 272.29 376.45 270.21 371.59 Z" />
<path fill="#000000" opacity="1.00" d=" M 70.26 423.05 C 70.20 421.51 71.80 421.30 72.95 421.11 C 76.12 420.97 78.74 422.97 81.38 424.42 C 83.85 435.27 94.18 441.20 99.43 450.43 C 101.87 451.85 104.91 452.04 107.13 453.89 C 108.56 454.91 109.14 456.64 110.14 458.03 C 113.53 458.73 117.10 458.50 120.41 459.70 C 120.67 460.87 120.60 462.08 120.45 463.27 C 119.84 463.50 118.62 463.95 118.02 464.18 C 113.66 463.48 109.63 461.62 105.41 460.45 C 104.02 456.30 100.15 453.41 95.77 453.26 C 87.67 442.88 80.81 431.23 70.26 423.05 Z" />
<path fill="#000000" opacity="1.00" d=" M 72.91 453.62 C 83.45 456.87 87.98 468.89 98.41 472.35 C 106.42 474.87 114.82 472.37 122.99 472.67 C 156.99 472.87 191.06 474.79 225.02 472.24 C 237.31 470.89 250.29 469.53 260.89 462.59 C 266.56 459.11 273.11 457.57 279.15 454.92 L 280.48 454.50 C 277.94 459.15 273.42 462.77 268.48 464.71 C 259.01 468.50 248.64 469.16 239.09 472.69 C 235.83 473.89 233.73 477.37 230.11 477.69 C 223.11 478.77 216.00 478.25 208.98 477.75 C 180.70 476.17 152.36 478.36 124.07 477.01 C 114.24 476.19 104.16 477.82 94.52 475.24 C 86.32 472.82 83.47 462.87 75.26 460.45 C 74.48 458.99 74.23 457.05 72.80 456.09 C 72.38 455.85 71.55 455.37 71.14 455.13 L 71.65 454.84 C 71.96 454.54 72.60 453.93 72.91 453.62 Z" />
</g>
<g id="#ffffffff">
<path fill="#ffffff" opacity="1.00" d=" M 161.12 10.56 C 170.41 7.98 180.39 5.97 189.93 8.40 C 190.82 15.29 190.16 22.25 190.29 29.17 C 187.25 29.57 183.98 30.10 181.11 28.68 C 172.54 24.87 170.16 13.72 161.12 10.56 Z" />
<path fill="#ffffff" opacity="1.00" d=" M 197.17 8.40 C 217.87 11.16 238.82 12.72 259.11 17.91 C 265.24 19.61 271.42 21.36 277.11 24.26 C 263.71 29.02 249.39 22.06 235.90 26.31 C 226.05 29.12 215.71 34.07 205.37 30.41 C 202.44 23.15 198.63 16.16 197.17 8.40 Z" />
<path fill="#ffffff" opacity="1.00" d=" M 155.29 15.42 C 159.40 17.34 164.03 18.45 167.49 21.53 C 169.37 23.18 170.18 25.61 170.83 27.95 C 164.62 25.74 155.21 23.71 155.29 15.42 Z" />
<path fill="#ffffff" opacity="1.00" d=" M 137.62 25.59 C 141.81 22.95 146.55 21.35 151.34 20.22 C 152.09 22.60 153.03 25.20 155.49 26.30 C 159.89 28.51 166.11 29.49 167.02 35.35 C 162.74 38.03 156.89 34.44 153.18 38.37 C 157.07 40.53 161.76 40.13 166.05 40.51 C 172.25 40.67 178.68 40.81 184.45 38.17 C 191.27 35.08 198.83 37.04 205.99 37.23 C 214.01 37.31 222.11 37.18 230.01 35.67 C 234.79 34.95 238.23 30.93 243.02 30.21 C 257.25 27.18 271.97 28.66 286.22 30.85 C 297.17 32.93 308.28 34.60 318.83 38.31 C 324.03 40.19 329.23 42.87 332.54 47.46 C 337.51 54.37 343.14 60.78 349.14 66.81 C 353.91 71.76 359.79 75.57 364.13 80.91 C 366.76 83.85 365.73 87.99 363.53 90.83 C 365.65 93.64 367.58 96.98 370.97 98.40 C 372.84 98.85 374.77 98.42 376.66 98.29 C 385.48 107.56 392.69 118.33 402.34 126.82 C 405.72 129.88 409.96 131.79 413.35 134.84 C 417.48 138.87 419.21 144.65 420.24 150.18 C 422.07 161.21 421.75 172.47 423.77 183.48 C 425.34 184.44 427.41 185.02 428.25 186.83 C 429.65 190.02 429.21 193.65 430.16 196.97 C 431.24 201.35 435.36 204.35 435.87 208.95 C 437.67 219.97 434.55 230.99 434.54 242.04 C 434.22 254.48 438.17 266.57 438.06 278.99 C 437.70 283.07 437.55 287.54 434.96 290.94 C 433.85 292.64 432.24 294.11 431.66 296.10 C 431.07 299.67 431.54 303.33 430.90 306.89 C 427.20 327.92 414.46 346.49 413.15 368.06 C 413.31 370.90 410.51 372.26 409.03 374.26 C 405.86 378.59 409.74 384.87 405.93 388.93 C 401.20 394.15 394.96 397.94 391.06 403.94 C 388.44 407.21 387.65 411.41 386.18 415.17 C 375.90 422.29 365.09 428.94 353.25 433.15 C 348.21 435.02 342.90 435.95 337.73 437.37 C 337.29 438.06 336.87 438.78 336.41 439.47 C 333.59 437.71 331.08 440.60 328.32 440.99 C 325.91 441.76 323.46 442.37 321.03 443.06 C 317.64 444.18 314.16 444.99 310.69 445.80 C 307.97 447.40 305.09 448.85 301.93 449.33 C 300.17 449.52 298.54 450.21 297.14 451.30 C 294.74 451.59 292.38 452.15 290.05 452.79 C 286.48 453.87 282.61 453.43 279.15 454.92 C 273.11 457.57 266.56 459.11 260.89 462.59 C 250.29 469.53 237.31 470.89 225.02 472.24 C 191.06 474.79 156.99 472.87 122.99 472.67 C 114.82 472.37 106.42 474.87 98.41 472.35 C 87.98 468.89 83.45 456.87 72.91 453.62 C 72.60 453.93 71.96 454.54 71.65 454.84 L 71.14 455.13 C 66.04 453.79 61.20 451.13 56.02 450.04 L 55.36 449.67 C 53.47 448.82 51.43 448.37 49.41 447.95 C 47.87 444.93 45.25 442.69 43.43 439.87 C 41.84 437.77 43.22 435.33 43.93 433.20 C 35.52 414.83 29.49 395.49 22.59 376.54 C 20.63 370.73 12.52 370.20 11.23 364.05 C 9.44 356.44 10.32 348.40 12.11 340.87 C 12.85 336.91 16.42 334.16 16.88 330.11 C 18.45 320.47 16.94 310.69 16.42 301.02 C 15.61 290.04 13.49 278.96 15.35 267.97 C 17.00 256.59 22.29 246.15 24.20 234.83 C 24.69 231.91 24.57 228.93 25.03 226.01 C 26.08 223.65 27.70 221.53 28.21 218.96 C 29.49 213.95 29.22 208.48 31.66 203.82 C 33.91 200.67 37.80 198.94 39.34 195.22 C 37.89 191.63 39.00 187.98 40.91 184.83 C 43.39 180.66 42.95 175.70 43.59 171.09 C 44.66 167.63 47.51 165.12 49.05 161.89 C 53.51 152.73 54.88 142.32 60.23 133.56 C 61.73 133.18 63.23 132.80 64.73 132.41 C 66.99 124.95 72.51 119.30 77.53 113.61 C 81.84 108.84 85.04 102.96 85.84 96.52 C 83.66 96.15 80.47 94.70 78.99 97.15 C 75.31 103.90 74.17 113.23 66.28 116.61 C 66.31 103.42 75.04 91.44 86.92 86.15 C 86.67 84.11 86.38 82.07 86.16 80.03 C 90.50 81.21 87.32 87.18 87.71 90.29 C 92.20 84.45 92.24 76.82 93.92 69.96 C 98.74 65.89 104.95 62.48 107.15 56.14 C 106.38 55.44 105.62 54.73 104.86 54.03 C 107.06 50.80 107.74 46.02 111.83 44.58 C 121.53 39.83 128.43 31.11 137.62 25.59 M 147.53 103.59 C 139.45 108.27 130.30 110.63 121.38 113.13 C 110.74 115.89 100.03 118.64 89.07 119.67 C 85.66 120.09 81.88 118.78 78.82 120.78 C 78.53 121.49 77.94 122.93 77.64 123.65 C 92.53 122.30 107.41 120.20 122.03 117.03 C 135.27 113.93 148.94 109.53 158.96 99.89 C 160.80 97.88 163.25 95.80 163.32 92.85 C 156.18 93.02 153.13 100.46 147.53 103.59 M 272.30 96.75 C 273.66 99.06 275.77 100.72 278.08 102.02 C 299.14 115.63 324.60 119.16 348.94 122.39 C 348.95 120.48 346.75 120.17 345.52 119.29 C 335.42 114.32 323.98 113.56 313.14 111.15 C 303.05 108.89 292.80 106.49 283.62 101.57 C 280.52 100.24 279.25 96.63 276.09 95.44 C 274.68 95.45 273.42 95.88 272.30 96.75 M 152.73 139.92 C 149.93 141.19 150.03 145.20 147.15 146.34 C 143.76 147.02 140.43 145.47 137.04 145.80 C 129.90 146.48 122.99 148.49 116.02 150.10 C 109.75 151.64 103.24 153.09 97.81 156.77 C 92.73 160.24 90.14 166.22 88.76 172.02 C 86.25 183.39 86.90 195.10 87.32 206.64 C 103.59 205.20 119.76 208.05 135.98 208.80 C 144.51 209.60 153.19 209.65 161.62 207.94 C 170.10 206.03 178.05 201.01 183.01 193.83 C 186.20 189.57 183.92 184.07 184.94 179.27 C 186.74 168.10 189.92 156.78 187.95 145.41 C 187.05 139.76 180.69 138.15 175.90 137.43 C 168.17 136.81 159.92 136.53 152.73 139.92 M 299.03 140.44 C 291.05 140.38 282.99 139.78 275.09 141.25 C 262.75 143.07 251.38 149.03 241.70 156.72 C 238.39 159.33 235.33 162.73 234.62 167.03 C 233.29 174.92 232.59 182.99 233.44 190.97 C 247.51 196.60 260.68 205.17 276.02 207.04 C 282.10 208.45 288.68 205.88 294.45 208.79 C 301.12 212.01 308.75 212.08 316.00 211.59 C 323.23 210.82 330.55 208.22 335.91 203.16 C 332.66 191.21 340.77 179.80 338.37 167.87 C 336.95 162.05 332.81 157.44 328.94 153.08 C 325.00 148.99 321.60 144.29 316.82 141.11 C 311.95 137.71 305.71 136.64 299.91 137.70 C 299.69 138.39 299.25 139.76 299.03 140.44 M 186.98 245.03 C 185.08 248.48 185.26 252.74 183.04 256.06 C 180.58 259.55 176.49 261.53 174.17 265.15 C 172.98 266.90 173.31 269.11 173.24 271.11 C 167.76 278.03 161.54 285.35 161.46 294.71 C 163.29 294.56 165.31 294.18 166.46 292.59 C 168.51 290.02 167.80 286.50 168.65 283.59 C 177.09 273.47 183.52 261.88 189.37 250.12 C 190.36 248.06 191.76 246.09 191.79 243.71 C 190.14 243.85 188.00 243.30 186.98 245.03 M 239.60 259.81 C 240.13 265.66 242.76 270.97 245.52 276.06 C 248.02 280.47 249.07 285.49 249.68 290.48 C 253.02 279.29 247.78 268.21 241.77 259.02 C 241.23 259.22 240.14 259.61 239.60 259.81 M 193.90 291.03 C 192.41 291.84 189.81 292.60 190.26 294.76 C 193.22 296.68 196.14 293.91 199.07 293.53 C 203.56 294.29 207.01 298.04 211.50 298.55 C 210.17 290.65 200.36 288.74 193.90 291.03 M 217.98 294.05 C 216.55 296.40 219.08 298.59 221.15 299.24 C 221.41 297.39 221.60 295.54 221.72 293.68 C 222.29 293.40 223.44 292.84 224.02 292.56 C 226.86 293.47 229.62 295.21 232.72 294.57 C 232.60 292.04 230.60 289.71 228.01 289.60 C 224.26 289.28 220.07 290.79 217.98 294.05 M 119.27 312.55 C 108.44 329.32 95.48 344.79 86.60 362.77 C 88.64 369.30 81.29 373.61 82.36 380.03 C 84.70 379.09 86.35 377.02 87.60 374.90 C 90.76 369.04 90.97 362.11 94.00 356.19 C 97.31 349.45 102.75 344.14 107.57 338.49 C 108.95 336.94 108.86 334.68 109.87 332.93 C 111.77 329.56 115.17 327.47 117.47 324.42 C 118.67 322.79 118.69 320.59 119.85 318.96 C 121.61 317.64 123.66 316.74 125.32 315.27 C 126.27 314.09 125.65 312.42 125.75 311.05 C 123.53 311.29 121.38 311.84 119.27 312.55 M 120.05 365.87 C 116.91 368.34 113.96 371.51 109.89 372.31 C 102.27 372.77 96.81 378.76 91.17 383.17 C 87.85 390.64 84.83 398.78 85.82 407.10 C 86.48 413.26 90.84 418.06 94.89 422.38 C 98.54 426.24 103.75 427.94 107.85 431.22 C 111.55 434.12 114.61 437.94 118.94 439.97 C 122.76 441.59 126.99 441.62 131.07 441.82 C 146.75 442.45 162.26 438.31 177.94 440.00 C 188.01 440.49 198.66 440.40 207.85 435.69 C 218.04 430.77 225.39 421.86 234.55 415.45 C 240.22 411.32 246.13 407.21 250.45 401.60 C 250.58 400.07 250.49 398.53 250.71 397.01 C 252.25 392.82 257.58 392.60 259.87 389.05 C 251.91 380.33 242.42 373.25 233.96 365.06 C 228.11 359.89 222.06 354.14 214.16 352.50 C 200.72 349.60 187.04 355.23 173.58 352.23 C 168.38 351.60 164.47 346.88 159.01 347.49 C 144.10 348.12 131.28 356.80 120.05 365.87 M 270.21 371.59 C 272.29 376.45 275.35 380.86 277.01 385.91 C 280.06 394.90 280.35 404.69 278.38 413.95 C 280.45 411.04 282.04 407.71 282.45 404.13 C 283.72 394.13 280.74 384.23 276.96 375.10 C 276.02 372.47 273.02 369.51 270.21 371.59 M 70.26 423.05 C 80.81 431.23 87.67 442.88 95.77 453.26 C 100.15 453.41 104.02 456.30 105.41 460.45 C 109.63 461.62 113.66 463.48 118.02 464.18 C 118.62 463.95 119.84 463.50 120.45 463.27 C 120.60 462.08 120.67 460.87 120.41 459.70 C 117.10 458.50 113.53 458.73 110.14 458.03 C 109.14 456.64 108.56 454.91 107.13 453.89 C 104.91 452.04 101.87 451.85 99.43 450.43 C 94.18 441.20 83.85 435.27 81.38 424.42 C 78.74 422.97 76.12 420.97 72.95 421.11 C 71.80 421.30 70.20 421.51 70.26 423.05 Z" />
<path fill="#ffffff" opacity="1.00" d=" M 198.07 29.33 C 196.70 28.46 196.73 27.61 198.17 26.79 C 199.57 27.68 199.54 28.53 198.07 29.33 Z" />
<path fill="#ffffff" opacity="1.00" d=" M 161.57 143.77 C 165.35 142.62 168.98 140.15 173.10 140.92 C 177.48 141.08 181.80 142.80 184.47 146.39 C 182.84 159.25 184.32 172.45 181.12 185.12 C 179.59 191.51 175.61 197.55 169.48 200.31 C 160.27 204.59 149.89 204.76 139.94 205.24 C 123.13 205.31 106.36 203.60 89.55 203.61 C 88.52 187.92 91.46 171.17 101.55 158.65 C 102.60 157.97 103.82 157.64 105.00 157.27 C 123.59 151.67 143.12 149.91 161.57 143.77 M 121.23 177.60 C 118.89 181.97 119.56 187.36 121.58 191.72 C 123.20 192.93 125.29 193.31 127.20 193.91 C 137.97 196.31 149.08 195.19 159.97 194.36 C 161.17 191.37 162.72 188.37 162.57 185.06 C 162.75 180.51 159.89 176.35 156.19 173.94 C 149.46 169.40 140.85 168.45 132.99 169.82 C 128.35 170.87 123.52 173.19 121.23 177.60 Z" />
<path fill="#ffffff" opacity="1.00" d=" M 302.20 141.57 C 305.79 142.14 309.44 142.82 312.59 144.74 C 321.10 149.64 326.59 158.07 332.15 165.88 C 334.81 169.33 333.77 174.02 333.57 178.03 C 332.38 184.97 331.17 191.94 331.79 199.01 C 328.34 206.31 319.47 208.56 312.03 208.44 C 299.54 208.15 287.39 204.77 275.16 202.50 C 261.72 199.46 247.13 196.25 237.14 186.02 C 237.26 181.04 236.90 176.04 237.49 171.09 C 237.93 166.80 241.34 163.88 244.28 161.13 C 255.50 148.90 272.76 143.57 289.03 144.27 C 294.88 144.31 300.50 146.07 305.98 147.98 C 306.45 144.79 301.55 144.71 302.20 141.57 M 270.43 189.22 C 280.03 194.31 292.05 192.98 301.61 188.47 C 307.29 186.12 309.40 178.61 306.26 173.48 C 303.56 169.36 298.73 167.27 294.06 166.35 C 288.43 165.22 282.22 165.40 277.04 168.06 C 284.46 170.43 292.55 169.34 299.90 172.01 C 302.76 172.97 305.00 175.84 304.38 178.95 C 303.86 182.46 300.37 184.24 297.54 185.70 C 291.64 188.32 284.82 190.10 278.45 188.27 C 275.27 187.39 273.57 184.06 273.81 180.93 C 274.15 175.86 275.83 170.92 275.42 165.80 C 273.89 165.54 272.36 165.48 270.83 165.61 C 268.93 173.37 269.79 181.37 270.43 189.22 Z" />
<path fill="#ffffff" opacity="1.00" d=" M 41.76 161.60 C 40.05 161.50 40.51 158.79 42.00 158.70 C 43.52 158.86 43.14 161.52 41.76 161.60 Z" />
<path fill="#ffffff" opacity="1.00" d=" M 32.42 171.46 C 34.50 169.58 36.79 167.74 39.53 166.96 C 38.40 180.00 33.37 192.24 27.64 203.87 C 23.33 212.62 19.76 221.72 17.23 231.15 C 14.52 215.24 16.12 196.93 27.57 184.59 C 31.25 181.09 28.67 174.91 32.42 171.46 Z" />
<path fill="#ffffff" opacity="1.00" d=" M 128.05 174.93 C 134.53 171.73 142.25 172.20 148.96 174.41 C 152.99 175.81 157.24 178.50 158.26 182.94 C 158.86 186.40 156.86 189.53 155.04 192.27 C 146.11 192.77 137.10 192.27 128.35 190.35 C 125.60 190.07 124.99 186.98 124.15 184.86 C 122.64 181.15 124.48 176.65 128.05 174.93 Z" />
<path fill="#ffffff" opacity="1.00" d=" M 116.47 371.06 C 130.06 367.30 138.53 353.19 153.09 351.89 C 160.36 350.20 165.87 357.16 173.02 356.40 C 188.07 355.33 203.99 352.60 218.40 358.58 C 218.76 359.84 219.14 361.10 219.53 362.36 C 230.72 364.96 236.44 376.17 246.47 380.81 C 248.56 383.59 250.80 386.27 252.93 389.04 C 250.30 393.63 244.59 395.05 241.74 399.45 C 240.43 401.41 240.80 403.79 240.69 406.02 C 237.93 407.73 235.34 409.71 233.08 412.06 C 230.25 414.99 226.40 416.55 223.28 419.09 C 220.12 421.63 219.44 426.15 216.12 428.54 C 211.42 431.90 205.54 432.91 199.91 433.42 C 184.24 434.39 168.39 431.90 152.86 434.87 C 141.39 436.83 129.06 439.76 117.89 434.94 C 105.13 429.63 97.62 417.37 89.30 407.06 C 88.67 399.68 89.85 391.63 94.83 385.85 C 99.93 379.69 107.78 376.86 115.35 375.19 C 115.71 373.80 116.09 372.43 116.47 371.06 M 149.27 371.01 C 140.86 372.37 131.54 375.42 127.12 383.34 C 120.25 385.62 116.13 392.76 108.66 393.70 C 107.85 399.10 110.02 404.16 111.72 409.15 C 119.90 413.78 127.09 420.24 136.10 423.32 C 142.78 425.82 150.03 425.87 157.05 425.40 C 168.91 424.45 180.54 421.63 191.87 418.06 C 200.49 415.38 209.66 414.02 217.59 409.51 C 221.79 407.09 225.55 403.04 225.79 397.97 C 225.58 392.71 231.94 393.00 235.49 391.72 C 238.82 391.07 239.31 386.75 237.56 384.37 C 234.49 379.25 228.19 377.59 224.54 373.05 C 223.37 371.79 222.06 370.11 220.10 370.58 C 213.10 371.56 206.00 371.36 198.97 370.81 C 182.41 370.49 165.76 368.48 149.27 371.01 Z" />
<path fill="#ffffff" opacity="1.00" d=" M 155.46 373.46 C 161.03 372.98 167.46 371.42 172.51 374.31 C 172.47 379.42 171.61 384.51 171.80 389.63 C 166.18 391.10 160.53 389.01 155.36 386.94 C 155.53 382.44 155.06 377.95 155.46 373.46 Z" />
<path fill="#ffffff" opacity="1.00" d=" M 175.35 373.65 C 181.64 372.28 188.25 372.08 194.49 373.89 C 194.03 378.86 194.86 384.00 193.60 388.86 C 187.83 390.93 181.53 389.90 175.53 389.58 C 175.07 384.28 175.29 378.96 175.35 373.65 Z" />
<path fill="#ffffff" opacity="1.00" d=" M 198.68 373.77 C 206.58 370.72 215.61 372.52 222.91 376.39 C 226.45 378.33 230.33 381.61 229.86 386.09 C 229.62 390.41 225.05 392.54 221.44 393.64 C 221.36 397.71 220.04 401.93 216.86 404.66 C 211.59 409.31 204.41 410.42 198.00 412.75 C 194.79 414.02 191.24 414.11 187.89 413.39 C 175.64 410.86 162.66 412.03 150.86 407.38 C 147.70 406.35 145.68 403.55 142.85 402.00 C 137.74 399.97 132.13 400.93 126.83 399.97 C 124.54 399.58 122.24 399.26 119.97 398.83 C 118.35 399.19 114.83 399.13 116.39 401.75 C 118.25 403.67 121.39 403.57 123.79 404.60 C 122.47 406.87 120.52 409.98 117.40 408.54 C 113.23 406.16 112.03 401.04 111.68 396.60 C 118.94 393.93 125.17 389.38 131.79 385.52 C 138.46 389.46 146.39 390.09 153.89 391.22 C 159.99 391.86 166.00 393.08 171.89 394.74 C 186.81 390.48 202.77 393.01 217.61 388.45 C 220.19 387.30 223.64 386.56 224.89 383.77 C 216.23 382.83 207.90 388.41 199.32 385.50 C 197.87 381.76 198.36 377.67 198.68 373.77 Z" />
<path fill="#ffffff" opacity="1.00" d=" M 139.53 377.47 C 142.99 374.26 147.80 372.70 152.47 373.84 C 152.63 378.16 152.55 382.48 152.56 386.81 C 146.34 385.65 139.91 385.16 134.02 382.67 C 134.95 380.22 137.79 379.28 139.53 377.47 Z" />
<path fill="#ffffff" opacity="1.00" d=" M 124.01 410.19 C 125.28 406.39 129.34 404.68 133.03 404.41 C 137.05 404.08 141.46 404.67 144.65 407.34 C 144.40 411.52 143.04 415.83 142.42 420.09 C 141.83 420.29 140.63 420.70 140.03 420.90 C 133.84 418.79 128.81 414.47 124.01 410.19 Z" />
<path fill="#ffffff" opacity="1.00" d=" M 148.35 420.54 C 146.61 417.52 148.42 413.61 148.86 410.31 C 159.18 413.95 170.03 415.91 180.93 416.53 C 180.68 418.05 179.53 419.27 177.98 419.51 C 174.64 419.87 171.25 419.64 167.97 420.46 C 167.07 419.08 166.80 416.94 164.96 416.48 C 163.23 417.29 163.09 419.27 162.52 420.85 C 157.79 420.80 153.02 421.61 148.35 420.54 Z" />
</g>
</svg>
