<svg xmlns="http://www.w3.org/2000/svg" xmlns:xlink="http://www.w3.org/1999/xlink" width="89" height="77" viewBox="0 0 89 77"><defs><path id="n3sua" d="M969.7 911.63v-7.67h32.3v23.02c0 2.1-.76 3.91-2.27 5.42a7.41 7.41 0 0 1-5.43 2.25h-70.75a7.41 7.41 0 0 1-5.43-2.25 7.38 7.38 0 0 1-2.26-5.42v-23.02h32.3v7.67c0 .83.3 1.55.91 2.16.61.6 1.33.91 2.16.91h15.39c.83 0 1.55-.3 2.16-.9.6-.62.91-1.34.91-2.17zm-16.93-7.67h12.3v6.14h-12.3zm49.22-23.02v18.42h-86.13v-18.42c0-2.1.75-3.91 2.26-5.42a7.41 7.41 0 0 1 5.43-2.25h16.92v-7.67c0-1.28.45-2.37 1.34-3.26.9-.9 1.99-1.34 3.27-1.34h27.69c1.28 0 2.37.44 3.27 1.34.9.9 1.34 1.98 1.34 3.26v7.67h16.92c2.12 0 3.93.75 5.43 2.25a7.38 7.38 0 0 1 2.26 5.42zm-30.76-13.8h-24.61v6.13h24.61z"/></defs><g><g transform="translate(-914 -859)"><use xlink:href="#n3sua"/><use fill="#54d154" xlink:href="#n3sua"/></g></g></svg>