<?xml version="1.0" encoding="UTF-8" ?>
<!DOCTYPE svg PUBLIC "-//W3C//DTD SVG 1.1//EN" "http://www.w3.org/Graphics/SVG/1.1/DTD/svg11.dtd">
<svg width="87pt" height="74pt" viewBox="0 0 87 74" version="1.1" xmlns="http://www.w3.org/2000/svg">
<g id="#ffffffff">
<path fill="#ffffff" opacity="1.00" d=" M 0.00 0.00 L 28.94 0.00 C 23.87 1.95 25.87 8.09 25.46 12.26 C 19.63 12.33 13.79 12.07 7.96 12.34 C 4.01 12.44 0.80 16.11 0.85 20.01 C 0.57 26.08 0.83 32.16 0.76 38.24 C 29.50 38.26 58.25 38.26 87.00 38.24 L 87.00 43.00 C 76.25 43.01 65.49 42.99 54.74 43.01 C 54.71 45.85 55.01 48.73 54.48 51.54 C 54.06 53.53 51.73 53.77 50.07 53.77 C 45.70 53.74 41.33 53.83 36.97 53.73 C 35.54 53.78 33.94 53.17 33.40 51.75 C 33.07 48.85 33.27 45.92 33.26 43.01 C 22.42 42.99 11.59 43.00 0.75 43.01 C 0.82 50.66 0.59 58.31 0.85 65.96 C 0.74 70.35 4.68 73.47 8.74 74.00 L 0.00 74.00 L 0.00 0.00 M 37.75 43.01 C 37.75 45.00 37.75 47.00 37.75 49.00 C 41.83 49.00 45.92 49.00 50.00 49.00 C 50.00 47.00 50.00 45.00 50.00 43.00 C 45.92 43.00 41.83 43.00 37.75 43.01 Z" />
<path fill="#ffffff" opacity="1.00" d=" M 59.02 0.00 L 87.00 0.00 L 87.00 18.58 C 86.09 15.39 83.50 12.47 80.00 12.34 C 74.20 12.07 68.38 12.32 62.57 12.27 C 62.26 8.06 63.80 2.19 59.02 0.00 Z" />
<path fill="#ffffff" opacity="1.00" d=" M 31.62 6.18 C 39.81 6.33 48.00 6.24 56.19 6.23 C 56.23 8.23 56.25 10.23 56.25 12.24 C 48.00 12.25 39.75 12.25 31.51 12.24 C 31.46 10.22 31.52 8.20 31.62 6.18 Z" />
<path fill="#ffffff" opacity="1.00" d=" M 78.36 74.00 C 82.23 73.71 85.78 71.48 87.00 67.69 L 87.00 74.00 L 78.36 74.00 Z" />
</g>
<g id="#54d154ff">
<path fill="#54d154" opacity="1.00" d=" M 28.94 0.00 L 59.02 0.00 C 63.80 2.19 62.26 8.06 62.57 12.27 C 68.38 12.32 74.20 12.07 80.00 12.34 C 83.50 12.47 86.09 15.39 87.00 18.58 L 87.00 38.24 C 58.25 38.26 29.50 38.26 0.76 38.24 C 0.83 32.16 0.57 26.08 0.85 20.01 C 0.80 16.11 4.01 12.44 7.96 12.34 C 13.79 12.07 19.63 12.33 25.46 12.26 C 25.87 8.09 23.87 1.95 28.94 0.00 M 31.62 6.18 C 31.52 8.20 31.46 10.22 31.51 12.24 C 39.75 12.25 48.00 12.25 56.25 12.24 C 56.25 10.23 56.23 8.23 56.19 6.23 C 48.00 6.24 39.81 6.33 31.62 6.18 Z" />
<path fill="#54d154" opacity="1.00" d=" M 0.75 43.01 C 11.59 43.00 22.42 42.99 33.26 43.01 C 33.27 45.92 33.07 48.85 33.40 51.75 C 33.94 53.17 35.54 53.78 36.97 53.73 C 41.33 53.83 45.70 53.74 50.07 53.77 C 51.73 53.77 54.06 53.53 54.48 51.54 C 55.01 48.73 54.71 45.85 54.74 43.01 C 65.49 42.99 76.25 43.01 87.00 43.00 L 87.00 67.69 C 85.78 71.48 82.23 73.71 78.36 74.00 L 8.74 74.00 C 4.68 73.47 0.74 70.35 0.85 65.96 C 0.59 58.31 0.82 50.66 0.75 43.01 Z" />
<path fill="#54d154" opacity="1.00" d=" M 37.75 43.01 C 41.83 43.00 45.92 43.00 50.00 43.00 C 50.00 45.00 50.00 47.00 50.00 49.00 C 45.92 49.00 41.83 49.00 37.75 49.00 C 37.75 47.00 37.75 45.00 37.75 43.01 Z" />
</g>
</svg>
