<?xml version="1.0" encoding="UTF-8" ?>
<!DOCTYPE svg PUBLIC "-//W3C//DTD SVG 1.1//EN" "http://www.w3.org/Graphics/SVG/1.1/DTD/svg11.dtd">
<svg width="164pt" height="47pt" viewBox="0 0 164 47" version="1.1" xmlns="http://www.w3.org/2000/svg">
<g id="#ffffffff">
<path fill="#ffffff" opacity="1.00" d=" M 0.00 0.00 L 0.25 0.00 C 0.19 0.06 0.06 0.18 0.00 0.24 L 0.00 0.00 Z" />
<path fill="#ffffff" opacity="1.00" d=" M 49.66 0.00 L 57.47 0.00 C 57.12 15.66 57.40 31.33 57.34 47.00 L 49.58 47.00 C 49.85 31.34 49.68 15.67 49.66 0.00 Z" />
<path fill="#ffffff" opacity="1.00" d=" M 106.64 0.00 L 114.46 0.00 C 114.09 15.66 114.37 31.33 114.32 47.00 L 106.56 47.00 C 106.82 31.34 106.65 15.67 106.64 0.00 Z" />
<path fill="#ffffff" opacity="1.00" d=" M 163.96 0.00 L 164.00 0.00 L 164.00 0.30 C 163.99 0.23 163.97 0.08 163.96 0.00 Z" />
<path fill="#ffffff" opacity="1.00" d=" M 13.22 40.33 C 13.39 29.12 13.16 17.91 13.34 6.70 C 19.45 7.26 26.42 5.33 31.77 9.19 C 36.25 12.31 35.90 19.82 30.99 22.38 C 34.61 23.74 38.17 26.76 37.91 30.99 C 38.25 35.98 33.56 39.62 28.97 40.09 C 23.75 40.63 18.47 40.18 13.22 40.33 M 19.22 12.03 C 19.23 14.94 19.23 17.84 19.21 20.75 C 21.93 20.61 25.00 21.13 27.31 19.33 C 29.41 17.83 29.39 14.20 27.06 12.91 C 24.69 11.56 21.82 12.16 19.22 12.03 M 19.28 25.85 C 19.21 28.96 19.22 32.07 19.23 35.18 C 22.79 34.97 26.71 35.86 29.97 34.02 C 32.79 32.28 32.22 27.71 29.14 26.59 C 25.97 25.56 22.56 25.97 19.28 25.85 Z" />
<path fill="#ffffff" opacity="1.00" d=" M 70.26 40.33 C 70.39 29.12 70.21 17.92 70.35 6.71 C 76.64 7.27 84.04 5.19 89.32 9.64 C 93.34 13.05 92.55 19.83 88.04 22.46 C 91.71 23.73 95.19 26.81 94.91 31.02 C 95.25 36.04 90.52 39.62 85.93 40.10 C 80.73 40.61 75.48 40.18 70.26 40.33 M 76.23 12.08 C 76.26 14.97 76.26 17.85 76.24 20.74 C 78.95 20.63 82.02 21.14 84.31 19.32 C 86.19 17.97 86.47 14.85 84.62 13.35 C 82.31 11.38 79.00 12.23 76.23 12.08 M 76.30 25.86 C 76.25 28.96 76.25 32.07 76.27 35.18 C 79.79 34.98 83.64 35.84 86.89 34.07 C 89.79 32.43 89.27 27.68 86.14 26.59 C 82.98 25.58 79.58 25.96 76.30 25.86 Z" />
<path fill="#ffffff" opacity="1.00" d=" M 133.92 7.52 C 140.41 5.28 147.48 6.62 153.65 9.22 C 153.60 11.30 153.66 13.37 153.63 15.44 C 147.52 11.90 139.29 9.79 132.97 13.97 C 126.35 18.10 126.30 29.03 132.97 33.14 C 139.57 37.34 147.90 35.11 154.11 31.26 C 153.93 33.43 153.98 35.61 153.68 37.76 C 145.69 41.85 134.86 42.24 127.67 36.29 C 122.59 32.12 120.44 24.68 122.60 18.46 C 124.22 13.19 128.74 9.17 133.92 7.52 Z" />
</g>
<g id="#111111ff">
<path fill="#111111" opacity="1.00" d=" M 0.25 0.00 L 49.66 0.00 C 49.68 15.67 49.85 31.34 49.58 47.00 L 0.00 47.00 L 0.00 0.24 C 0.06 0.18 0.19 0.06 0.25 0.00 M 13.22 40.33 C 18.47 40.18 23.75 40.63 28.97 40.09 C 33.56 39.62 38.25 35.98 37.91 30.99 C 38.17 26.76 34.61 23.74 30.99 22.38 C 35.90 19.82 36.25 12.31 31.77 9.19 C 26.42 5.33 19.45 7.26 13.34 6.70 C 13.16 17.91 13.39 29.12 13.22 40.33 Z" />
<path fill="#111111" opacity="1.00" d=" M 57.47 0.00 L 106.64 0.00 C 106.65 15.67 106.82 31.34 106.56 47.00 L 57.34 47.00 C 57.40 31.33 57.12 15.66 57.47 0.00 M 70.26 40.33 C 75.48 40.18 80.73 40.61 85.93 40.10 C 90.52 39.62 95.25 36.04 94.91 31.02 C 95.19 26.81 91.71 23.73 88.04 22.46 C 92.55 19.83 93.34 13.05 89.32 9.64 C 84.04 5.19 76.64 7.27 70.35 6.71 C 70.21 17.92 70.39 29.12 70.26 40.33 Z" />
<path fill="#111111" opacity="1.00" d=" M 114.46 0.00 L 163.96 0.00 C 163.97 0.08 163.99 0.23 164.00 0.30 L 164.00 47.00 L 114.32 47.00 C 114.37 31.33 114.09 15.66 114.46 0.00 M 133.92 7.52 C 128.74 9.17 124.22 13.19 122.60 18.46 C 120.44 24.68 122.59 32.12 127.67 36.29 C 134.86 42.24 145.69 41.85 153.68 37.76 C 153.98 35.61 153.93 33.43 154.11 31.26 C 147.90 35.11 139.57 37.34 132.97 33.14 C 126.30 29.03 126.35 18.10 132.97 13.97 C 139.29 9.79 147.52 11.90 153.63 15.44 C 153.66 13.37 153.60 11.30 153.65 9.22 C 147.48 6.62 140.41 5.28 133.92 7.52 Z" />
<path fill="#111111" opacity="1.00" d=" M 19.22 12.03 C 21.82 12.16 24.69 11.56 27.06 12.91 C 29.39 14.20 29.41 17.83 27.31 19.33 C 25.00 21.13 21.93 20.61 19.21 20.75 C 19.23 17.84 19.23 14.94 19.22 12.03 Z" />
<path fill="#111111" opacity="1.00" d=" M 76.23 12.08 C 79.00 12.23 82.31 11.38 84.62 13.35 C 86.47 14.85 86.19 17.97 84.31 19.32 C 82.02 21.14 78.95 20.63 76.24 20.74 C 76.26 17.85 76.26 14.97 76.23 12.08 Z" />
<path fill="#111111" opacity="1.00" d=" M 19.28 25.85 C 22.56 25.97 25.97 25.56 29.14 26.59 C 32.22 27.71 32.79 32.28 29.97 34.02 C 26.71 35.86 22.79 34.97 19.23 35.18 C 19.22 32.07 19.21 28.96 19.28 25.85 Z" />
<path fill="#111111" opacity="1.00" d=" M 76.30 25.86 C 79.58 25.96 82.98 25.58 86.14 26.59 C 89.27 27.68 89.79 32.43 86.89 34.07 C 83.64 35.84 79.79 34.98 76.27 35.18 C 76.25 32.07 76.25 28.96 76.30 25.86 Z" />
</g>
</svg>
