<svg xmlns="http://www.w3.org/2000/svg" xmlns:xlink="http://www.w3.org/1999/xlink" width="22" height="22" viewBox="0 0 22 22"><defs><path id="pma8a" d="M229.76 3227.2h-2v-1.63h2.14s.52 0 .52.76c0 .77-.31.88-.66.88zm6.74 1.14h-2.41s.15-1.13 1.29-1.13c1.14 0 1.12 1.13 1.12 1.13zm-5.83 1.01c0 .87-.58.95-.88.96h-2.04v-1.97h2.15s.77 0 .77 1.01zM242 3228a10 10 0 0 1-20 0 10 10 0 0 1 20 0zm-8.23-2.4h3.03v-.9h-3.03zm-2.91 2.02s1.12-.08 1.12-1.4c0-1.32-.92-1.96-2.08-1.96h-3.83v7.36h3.83s2.33.07 2.33-2.17c0 0 .1-1.83-1.37-1.83zm4.5-1.49c-2.84 0-2.84 2.83-2.84 2.83s-.19 2.81 2.83 2.81c0 0 2.52.15 2.52-1.96h-1.3s.05.8-1.18.8c0 0-1.29.08-1.29-1.28h3.81s.42-3.2-2.56-3.2z"/></defs><g><g transform="translate(-221 -3217)"><use xlink:href="#pma8a"/><use fill="#0061ff" xlink:href="#pma8a"/></g></g></svg>