<?xml version="1.0" encoding="UTF-8" ?>
<!DOCTYPE svg PUBLIC "-//W3C//DTD SVG 1.1//EN" "http://www.w3.org/Graphics/SVG/1.1/DTD/svg11.dtd">
<svg width="87pt" height="74pt" viewBox="0 0 87 74" version="1.1" xmlns="http://www.w3.org/2000/svg">
<g id="#ffffffff">
<path fill="#ffffff" opacity="1.00" d=" M 0.00 0.00 L 9.15 0.00 C 6.63 0.44 3.49 0.53 1.96 2.95 C 0.49 5.33 0.83 8.29 0.70 10.96 C 0.86 29.67 0.60 48.39 0.82 67.10 C 0.61 70.19 2.64 72.66 5.27 74.00 L 0.00 74.00 L 0.00 0.00 Z" />
<path fill="#ffffff" opacity="1.00" d=" M 80.18 0.00 L 87.00 0.00 L 87.00 5.32 C 86.13 2.16 83.24 0.49 80.18 0.00 Z" />
<path fill="#ffffff" opacity="1.00" d=" M 13.26 9.50 C 13.25 7.50 13.25 5.50 13.26 3.50 C 19.42 3.51 25.59 3.50 31.75 3.51 C 31.75 5.50 31.75 7.50 31.75 9.49 C 25.59 9.50 19.42 9.50 13.26 9.50 Z" />
<path fill="#ffffff" opacity="1.00" d=" M 41.01 6.51 C 54.26 6.50 67.50 6.50 80.75 6.51 C 80.75 10.59 80.75 14.67 80.75 18.75 C 56.17 18.76 31.59 18.75 7.01 18.76 C 7.00 16.76 7.00 14.76 7.00 12.76 C 17.29 12.76 27.57 12.74 37.86 12.77 C 38.91 10.68 39.96 8.59 41.01 6.51 Z" />
<path fill="#ffffff" opacity="1.00" d=" M 39.42 22.50 C 45.72 20.96 52.83 22.81 57.25 27.66 C 62.58 32.97 63.81 41.71 60.50 48.41 C 57.36 54.89 50.20 59.21 42.96 58.69 C 33.72 58.48 25.57 50.18 25.52 40.93 C 25.05 32.50 31.25 24.43 39.42 22.50 M 40.42 28.58 C 35.49 30.02 31.61 34.78 31.69 40.00 C 31.20 46.68 37.34 52.93 44.04 52.56 C 51.06 52.81 57.16 45.90 56.13 38.97 C 55.59 31.60 47.42 26.26 40.42 28.58 Z" />
<path fill="#ffffff" opacity="1.00" d=" M 37.18 41.85 C 33.69 37.29 41.94 29.49 46.32 34.09 C 44.54 35.08 42.63 35.86 40.92 37.00 C 39.19 38.24 39.79 41.89 37.18 41.85 Z" />
<path fill="#ffffff" opacity="1.00" d=" M 7.00 61.76 C 31.58 61.76 56.17 61.74 80.75 61.77 C 80.75 63.76 80.75 65.76 80.75 67.76 C 56.17 67.75 31.59 67.75 7.00 67.76 C 7.00 65.76 7.00 63.76 7.00 61.76 Z" />
<path fill="#ffffff" opacity="1.00" d=" M 82.16 74.00 C 84.27 73.17 85.93 71.59 87.00 69.60 L 87.00 74.00 L 82.16 74.00 Z" />
</g>
<g id="#54d154ff">
<path fill="#54d154" opacity="1.00" d=" M 9.15 0.00 L 80.18 0.00 C 83.24 0.49 86.13 2.16 87.00 5.32 L 87.00 69.60 C 85.93 71.59 84.27 73.17 82.16 74.00 L 5.27 74.00 C 2.64 72.66 0.61 70.19 0.82 67.10 C 0.60 48.39 0.86 29.67 0.70 10.96 C 0.83 8.29 0.49 5.33 1.96 2.95 C 3.49 0.53 6.63 0.44 9.15 0.00 M 13.26 9.50 C 19.42 9.50 25.59 9.50 31.75 9.49 C 31.75 7.50 31.75 5.50 31.75 3.51 C 25.59 3.50 19.42 3.51 13.26 3.50 C 13.25 5.50 13.25 7.50 13.26 9.50 M 41.01 6.51 C 39.96 8.59 38.91 10.68 37.86 12.77 C 27.57 12.74 17.29 12.76 7.00 12.76 C 7.00 14.76 7.00 16.76 7.01 18.76 C 31.59 18.75 56.17 18.76 80.75 18.75 C 80.75 14.67 80.75 10.59 80.75 6.51 C 67.50 6.50 54.26 6.50 41.01 6.51 M 39.42 22.50 C 31.25 24.43 25.05 32.50 25.52 40.93 C 25.57 50.18 33.72 58.48 42.96 58.69 C 50.20 59.21 57.36 54.89 60.50 48.41 C 63.81 41.71 62.58 32.97 57.25 27.66 C 52.83 22.81 45.72 20.96 39.42 22.50 M 7.00 61.76 C 7.00 63.76 7.00 65.76 7.00 67.76 C 31.59 67.75 56.17 67.75 80.75 67.76 C 80.75 65.76 80.75 63.76 80.75 61.77 C 56.17 61.74 31.58 61.76 7.00 61.76 Z" />
<path fill="#54d154" opacity="1.00" d=" M 40.42 28.58 C 47.42 26.26 55.59 31.60 56.13 38.97 C 57.16 45.90 51.06 52.81 44.04 52.56 C 37.34 52.93 31.20 46.68 31.69 40.00 C 31.61 34.78 35.49 30.02 40.42 28.58 M 37.18 41.85 C 39.79 41.89 39.19 38.24 40.92 37.00 C 42.63 35.86 44.54 35.08 46.32 34.09 C 41.94 29.49 33.69 37.29 37.18 41.85 Z" />
</g>
</svg>
