<?xml version="1.0" encoding="UTF-8" ?>
<!DOCTYPE svg PUBLIC "-//W3C//DTD SVG 1.1//EN" "http://www.w3.org/Graphics/SVG/1.1/DTD/svg11.dtd">
<svg width="87pt" height="74pt" viewBox="0 0 87 74" version="1.1" xmlns="http://www.w3.org/2000/svg">
<g id="#54d154ff">
<path fill="#54d154" opacity="1.00" d=" M 8.87 0.00 L 77.96 0.00 C 81.75 -0.15 86.02 1.28 87.00 5.37 L 87.00 69.00 C 86.27 71.44 84.43 73.27 81.99 74.00 L 5.82 74.00 C 2.74 73.09 0.61 70.30 0.81 67.06 C 0.64 48.05 0.83 29.03 0.72 10.02 C 0.85 7.48 0.52 4.51 2.36 2.46 C 3.91 0.49 6.63 0.46 8.87 0.00 M 13.24 3.51 C 13.25 5.50 13.25 7.50 13.25 9.50 C 19.42 9.50 25.59 9.51 31.76 9.50 C 31.75 7.50 31.75 5.50 31.75 3.51 C 25.58 3.50 19.41 3.50 13.24 3.51 M 37.86 12.76 C 27.58 12.74 17.29 12.76 7.00 12.75 C 7.00 14.75 7.00 16.75 7.00 18.76 C 31.59 18.75 56.17 18.76 80.75 18.75 C 80.75 14.67 80.75 10.59 80.75 6.50 C 67.50 6.50 54.25 6.50 41.00 6.50 C 39.96 8.59 38.91 10.68 37.86 12.76 M 39.45 22.48 C 30.94 24.46 24.61 33.12 25.57 41.87 C 26.10 51.51 35.41 59.60 45.05 58.67 C 54.91 58.40 63.31 48.92 62.27 39.07 C 61.95 28.00 50.08 19.48 39.45 22.48 M 7.00 61.75 C 7.00 63.75 7.00 65.75 7.00 67.76 C 31.58 67.75 56.17 67.75 80.75 67.75 C 80.75 65.75 80.75 63.75 80.75 61.75 C 56.17 61.75 31.59 61.75 7.00 61.75 Z" />
<path fill="#54d154" opacity="1.00" d=" M 40.38 28.59 C 47.40 26.24 55.63 31.61 56.13 39.02 C 57.20 46.31 50.37 53.40 43.04 52.53 C 35.52 52.35 29.83 44.10 32.09 36.97 C 33.18 33.00 36.47 29.79 40.38 28.59 M 38.16 35.18 C 36.44 37.18 34.76 41.43 38.49 42.10 C 39.12 40.53 39.53 38.85 40.38 37.38 C 42.14 35.96 44.38 35.32 46.29 34.12 C 43.99 31.41 40.13 32.92 38.16 35.18 Z" />
</g>
</svg>
