<?xml version="1.0" encoding="UTF-8" ?>
<!DOCTYPE svg PUBLIC "-//W3C//DTD SVG 1.1//EN" "http://www.w3.org/Graphics/SVG/1.1/DTD/svg11.dtd">
<svg width="746pt" height="394pt" viewBox="0 0 746 394" version="1.1" xmlns="http://www.w3.org/2000/svg">
<g id="#15495dff">
<path fill="#15495d" opacity="1.00" d=" M 190.32 1.56 C 200.19 -1.87 211.62 6.55 211.22 16.98 C 211.24 74.31 211.25 131.64 211.22 188.97 C 211.34 197.18 204.21 204.55 196.05 204.89 C 189.04 205.46 182.14 200.78 179.80 194.20 C 178.61 190.92 178.84 187.37 178.81 183.94 C 178.86 128.31 178.78 72.68 178.85 17.05 C 178.70 10.06 183.72 3.59 190.32 1.56 Z" />
<path fill="#15495d" opacity="1.00" d=" M 546.37 1.56 C 556.25 -1.87 567.61 6.57 567.22 17.00 C 567.25 74.00 567.22 131.00 567.24 187.99 C 567.46 193.30 565.00 198.63 560.66 201.74 C 554.99 206.16 546.28 205.94 540.86 201.20 C 536.92 198.04 534.73 193.02 534.94 187.99 C 534.95 133.66 534.94 79.33 534.94 25.00 C 534.98 21.64 534.78 18.27 535.10 14.92 C 535.77 8.76 540.49 3.37 546.37 1.56 Z" />
<path fill="#15495d" opacity="1.00" d=" M 101.37 62.50 C 110.88 59.25 121.97 66.93 122.18 76.99 C 122.31 103.34 122.19 129.70 122.24 156.05 C 122.42 161.53 119.60 166.96 115.01 169.95 C 108.76 174.28 99.53 173.27 94.39 167.67 C 91.38 164.60 89.74 160.31 89.88 156.02 C 89.89 130.00 89.87 103.97 89.89 77.95 C 89.72 70.98 94.75 64.47 101.37 62.50 Z" />
<path fill="#15495d" opacity="1.00" d=" M 279.34 62.51 C 286.09 60.33 293.99 63.28 297.71 69.30 C 299.60 72.15 300.33 75.61 300.25 79.00 C 300.20 104.98 300.28 130.97 300.21 156.95 C 300.24 165.79 291.86 173.39 283.07 172.63 C 274.60 172.32 267.45 164.45 267.84 156.00 C 267.82 130.01 267.80 104.02 267.85 78.02 C 267.71 71.04 272.69 64.49 279.34 62.51 Z" />
<path fill="#15495d" opacity="1.00" d=" M 457.38 62.50 C 466.88 59.25 477.89 66.97 478.12 76.99 C 478.23 103.64 478.18 130.31 478.15 156.96 C 478.16 165.43 470.49 172.86 462.04 172.66 C 453.61 172.85 445.93 165.46 445.92 157.01 C 445.84 130.68 445.89 104.35 445.90 78.03 C 445.76 71.05 450.70 64.45 457.38 62.50 Z" />
<path fill="#15495d" opacity="1.00" d=" M 635.39 62.46 C 644.93 59.32 656.03 66.93 656.22 77.04 C 656.38 103.36 656.25 129.69 656.29 156.02 C 656.47 162.05 653.04 168.01 647.65 170.76 C 641.46 174.13 633.10 172.91 628.31 167.68 C 625.27 164.60 623.69 160.28 623.77 155.98 C 623.77 129.98 623.74 103.98 623.79 77.98 C 623.67 70.99 628.67 64.34 635.39 62.46 Z" />
<path fill="#15495d" opacity="1.00" d=" M 370.46 106.60 C 379.67 104.80 389.07 112.65 389.12 121.99 C 389.22 133.65 389.21 145.31 389.12 156.97 C 389.08 165.39 381.45 172.86 373.02 172.66 C 364.58 172.84 356.89 165.39 356.88 156.94 C 356.79 145.29 356.78 133.63 356.88 121.98 C 356.95 114.47 363.08 107.70 370.46 106.60 Z" />
<path fill="#15495d" opacity="1.00" d=" M 11.34 107.43 C 20.81 103.45 32.58 110.77 33.16 121.02 C 33.43 133.00 33.29 145.00 33.23 156.98 C 33.19 165.46 25.47 172.87 17.02 172.66 C 8.62 172.82 0.90 165.43 0.91 156.99 C 0.86 145.31 0.86 133.63 0.91 121.94 C 0.94 115.55 5.45 109.68 11.34 107.43 Z" />
<path fill="#15495d" opacity="1.00" d=" M 723.34 107.40 C 732.76 103.49 744.44 110.78 745.02 120.95 C 745.22 132.99 745.10 145.04 745.09 157.08 C 745.05 165.49 737.38 172.83 729.01 172.67 C 720.56 172.86 712.84 165.43 712.86 156.96 C 712.77 145.63 712.84 134.30 712.82 122.98 C 712.56 116.23 717.01 109.70 723.34 107.40 Z" />
</g>
<g id="#c4122eff">
<path fill="#c4122e" opacity="1.00" d=" M 99.76 268.83 C 119.78 257.00 144.76 257.07 166.47 263.85 C 166.47 275.40 166.47 286.95 166.47 298.51 C 157.18 293.57 146.54 291.20 136.03 291.79 C 126.99 292.35 117.98 296.12 111.90 302.95 C 100.33 315.64 100.49 337.16 112.20 349.71 C 118.27 356.36 127.13 360.01 136.03 360.55 C 146.53 361.14 157.17 358.78 166.48 353.88 C 166.47 365.43 166.46 376.98 166.48 388.53 C 149.65 393.60 131.26 395.05 114.29 389.75 C 99.37 385.33 85.97 375.57 77.74 362.29 C 67.90 346.53 65.64 326.69 69.96 308.78 C 73.97 292.17 84.93 277.36 99.76 268.83 Z" />
<path fill="#c4122e" opacity="1.00" d=" M 322.83 260.35 C 337.78 257.76 353.10 259.93 367.76 263.27 C 367.77 272.48 367.75 281.68 367.77 290.88 C 358.03 288.47 348.01 286.39 337.92 287.17 C 333.05 287.61 327.81 288.69 324.21 292.24 C 321.36 295.08 321.44 299.99 323.98 303.00 C 326.33 305.81 329.79 307.38 333.17 308.59 C 342.16 311.76 351.77 313.74 359.78 319.18 C 368.46 324.72 374.97 333.86 376.43 344.16 C 377.82 354.82 375.63 366.35 368.88 374.91 C 360.55 385.60 347.07 390.75 333.99 392.44 C 318.68 394.18 303.22 392.25 288.13 389.63 C 288.11 379.71 288.12 369.79 288.12 359.87 C 300.40 363.12 313.15 365.57 325.89 364.28 C 330.66 363.67 335.79 362.76 339.53 359.47 C 342.85 356.66 343.60 351.37 341.18 347.74 C 338.58 343.78 334.00 341.80 329.69 340.26 C 321.65 337.56 313.32 335.34 306.03 330.85 C 297.90 326.12 291.15 318.50 288.93 309.21 C 286.34 298.24 288.08 285.98 294.72 276.73 C 301.23 267.56 311.97 262.28 322.83 260.35 Z" />
<path fill="#c4122e" opacity="1.00" d=" M 427.65 278.58 C 438.61 267.66 453.58 261.23 468.89 259.67 C 481.75 258.36 494.80 260.06 507.12 263.85 C 507.11 275.40 507.12 286.96 507.12 298.51 C 497.65 293.49 486.78 291.12 476.08 291.83 C 467.11 292.51 458.23 296.39 452.27 303.24 C 441.05 315.89 441.21 336.95 452.58 349.45 C 458.53 356.11 467.27 359.87 476.10 360.52 C 486.79 361.23 497.64 358.85 507.12 353.88 C 507.15 365.40 507.04 376.92 507.18 388.44 C 489.75 393.86 470.51 395.13 453.05 389.15 C 438.04 384.24 424.75 373.83 416.99 360.00 C 402.69 334.44 406.38 299.25 427.65 278.58 Z" />
<path fill="#c4122e" opacity="1.00" d=" M 600.55 259.78 C 616.39 257.86 632.99 260.85 646.66 269.24 C 659.29 276.86 669.11 288.93 674.09 302.80 C 680.32 320.07 679.35 339.87 671.18 356.33 C 665.60 367.68 656.63 377.32 645.70 383.67 C 629.04 393.47 608.33 395.55 589.81 390.42 C 573.76 386.01 559.49 375.33 550.99 360.99 C 537.68 338.98 538.43 309.27 553.09 288.08 C 563.74 272.25 581.67 261.91 600.55 259.78 M 603.44 292.74 C 590.94 294.81 580.33 304.76 577.27 317.03 C 573.57 330.39 578.54 345.92 590.02 353.94 C 600.53 361.57 615.51 362.23 626.74 355.76 C 633.88 351.73 639.33 344.89 641.83 337.10 C 645.87 324.93 642.70 310.53 633.39 301.59 C 625.66 293.91 614.07 290.75 603.44 292.74 Z" />
<path fill="#c4122e" opacity="1.00" d=" M 211.35 390.86 C 211.37 347.75 211.34 304.64 211.37 261.53 C 222.24 261.54 233.12 261.53 244.00 261.54 C 244.00 304.65 244.00 347.76 243.99 390.87 C 233.11 390.86 222.23 390.87 211.35 390.86 Z" />
<path fill="#c4122e" opacity="1.00" d=" M 712.39 375.76 C 712.44 375.27 712.56 374.29 712.61 373.80 C 717.23 373.80 721.85 373.79 726.47 373.81 C 726.47 374.32 726.47 375.35 726.47 375.86 C 724.54 375.86 722.62 375.86 720.71 375.87 C 720.69 380.87 720.71 385.87 720.70 390.87 C 720.11 390.87 718.94 390.86 718.36 390.86 C 718.35 385.87 718.36 380.88 718.35 375.89 C 716.35 375.87 714.37 375.83 712.39 375.76 Z" />
<path fill="#c4122e" opacity="1.00" d=" M 727.71 373.81 C 728.63 373.80 730.46 373.80 731.37 373.79 C 733.11 378.48 734.79 383.18 736.53 387.87 C 738.19 383.18 739.84 378.48 741.53 373.79 C 742.42 373.79 744.22 373.80 745.11 373.81 C 745.12 379.49 745.12 385.18 745.11 390.86 C 744.51 390.86 743.31 390.87 742.71 390.87 C 742.69 386.14 742.72 381.42 742.70 376.71 C 740.94 381.41 739.20 386.11 737.48 390.82 C 736.92 390.84 735.81 390.88 735.26 390.90 C 733.50 386.17 731.82 381.40 730.09 376.66 C 730.03 381.39 730.07 386.13 730.05 390.86 C 729.46 390.86 728.30 390.86 727.71 390.86 C 727.70 385.18 727.70 379.49 727.71 373.81 Z" />
</g>
</svg>
