<?xml version="1.0" encoding="UTF-8" ?>
<!DOCTYPE svg PUBLIC "-//W3C//DTD SVG 1.1//EN" "http://www.w3.org/Graphics/SVG/1.1/DTD/svg11.dtd">
<svg width="125pt" height="65pt" viewBox="0 0 125 65" version="1.1" xmlns="http://www.w3.org/2000/svg">
<g id="#ffffffff">
<path fill="#ffffff" opacity="1.00" d=" M 0.00 0.00 L 125.00 0.00 L 125.00 61.94 C 124.57 62.38 123.72 63.25 123.29 63.68 C 122.66 63.31 121.38 62.56 120.74 62.19 C 121.24 63.13 121.74 64.07 122.27 65.00 L 106.49 65.00 C 111.10 62.56 114.49 57.38 113.12 52.05 C 111.93 45.08 103.45 41.26 97.22 44.21 C 92.30 46.19 89.52 51.94 90.85 57.04 C 91.53 60.61 94.46 63.05 97.29 65.00 L 84.78 65.00 C 84.83 63.13 84.87 61.25 84.91 59.38 C 82.26 59.70 79.28 60.82 76.84 59.20 C 73.58 57.18 73.52 51.79 76.72 49.69 C 79.19 48.00 82.28 49.10 85.00 49.28 C 84.93 47.43 84.86 45.58 84.80 43.73 C 80.04 42.94 74.35 42.90 71.08 47.10 C 66.12 52.68 68.59 62.00 75.27 65.00 L 58.86 65.00 C 61.79 63.22 64.49 59.79 62.87 56.21 C 61.35 52.07 55.66 52.67 53.62 49.09 C 56.14 47.41 59.17 48.12 61.96 48.44 C 61.78 46.88 61.64 45.30 61.28 43.77 C 58.06 43.13 54.39 42.74 51.44 44.46 C 48.18 46.31 47.29 51.34 50.02 54.02 C 52.26 55.82 55.12 56.56 57.54 58.07 C 57.23 62.37 51.50 60.29 48.59 60.32 C 48.44 61.88 48.30 63.44 48.09 65.00 L 41.20 65.00 C 41.19 57.88 41.21 50.76 41.18 43.64 C 39.37 43.63 37.55 43.63 35.74 43.66 C 35.73 50.77 35.70 57.89 35.77 65.00 L 28.22 65.00 C 28.22 63.15 28.22 61.29 28.21 59.44 C 25.50 59.73 22.37 60.86 19.98 58.98 C 17.27 57.02 16.94 52.70 19.37 50.37 C 21.68 47.86 25.36 49.04 28.30 49.25 C 28.26 47.39 28.21 45.54 28.15 43.68 C 23.51 43.00 18.10 42.94 14.73 46.78 C 9.29 52.28 11.82 62.52 19.14 65.00 L 0.00 65.00 L 0.00 0.00 M 31.18 1.10 C 29.79 1.79 30.48 3.76 30.21 5.00 C 30.36 13.99 30.07 22.99 30.34 31.98 C 30.66 34.88 35.31 34.94 35.63 32.01 C 35.83 22.35 35.72 12.67 35.68 3.01 C 36.15 0.37 32.80 1.01 31.18 1.10 M 89.77 0.98 C 89.34 11.32 89.47 21.69 89.65 32.03 C 89.78 35.07 94.62 34.79 94.79 32.00 C 94.94 21.72 94.94 11.42 94.75 1.14 C 93.09 1.07 91.43 1.02 89.77 0.98 M 76.42 10.50 C 74.15 11.30 74.76 14.10 74.60 15.96 C 74.75 19.90 74.21 23.92 75.06 27.79 C 76.43 29.28 79.38 29.18 79.94 26.97 C 80.39 22.32 80.25 17.61 80.05 12.94 C 80.15 11.10 78.07 9.78 76.42 10.50 M 106.36 10.36 C 105.16 10.65 104.21 11.79 104.32 13.06 C 104.17 16.69 104.30 20.33 104.25 23.97 C 104.34 25.52 103.98 27.54 105.58 28.47 C 107.33 29.63 109.91 28.03 109.65 25.95 C 109.77 21.64 109.79 17.32 109.64 13.01 C 109.79 11.28 107.97 9.98 106.36 10.36 M 16.28 11.14 C 15.16 12.08 15.60 13.72 15.43 14.98 C 15.50 18.84 15.28 22.71 15.55 26.55 C 15.65 29.25 20.25 29.68 20.71 26.96 C 21.05 22.32 20.89 17.66 20.82 13.01 C 21.10 10.62 17.80 9.43 16.28 11.14 M 46.06 10.86 C 45.86 11.18 45.46 11.82 45.26 12.14 C 44.99 17.12 45.00 22.14 45.27 27.12 C 45.89 29.48 50.08 29.34 50.33 26.89 C 50.70 22.29 50.54 17.65 50.42 13.03 C 50.78 10.65 47.74 9.63 46.06 10.86 M 1.18 19.15 C 0.84 22.15 1.05 25.17 1.06 28.18 C 2.80 28.67 5.27 29.30 5.98 26.98 C 6.33 24.29 6.14 21.56 6.14 18.84 C 4.52 18.18 2.15 16.88 1.18 19.15 M 61.19 18.21 C 58.74 19.81 60.09 23.51 59.87 26.02 C 59.73 28.68 63.16 29.66 64.86 27.87 C 65.60 25.01 65.50 21.97 65.01 19.07 C 64.09 17.91 62.52 17.21 61.19 18.21 M 119.35 19.26 C 118.85 21.94 118.62 24.93 119.52 27.54 C 120.28 29.48 122.51 28.38 124.00 28.26 C 124.00 24.85 123.99 21.45 123.83 18.05 C 122.30 18.10 120.07 17.38 119.35 19.26 Z" />
<path fill="#ffffff" opacity="1.00" d=" M 99.29 49.39 C 103.05 47.11 108.20 50.70 107.53 55.00 C 107.32 59.34 101.50 61.69 98.34 58.73 C 95.31 56.36 95.79 51.08 99.29 49.39 Z" />
</g>
<g id="#828181ff">
<path fill="#828181" opacity="1.00" d=" M 31.18 1.10 C 32.80 1.01 36.15 0.37 35.68 3.01 C 35.72 12.67 35.83 22.35 35.63 32.01 C 35.31 34.94 30.66 34.88 30.34 31.98 C 30.07 22.99 30.36 13.99 30.21 5.00 C 30.48 3.76 29.79 1.79 31.18 1.10 Z" />
<path fill="#828181" opacity="1.00" d=" M 89.77 0.98 C 91.43 1.02 93.09 1.07 94.75 1.14 C 94.94 11.42 94.94 21.72 94.79 32.00 C 94.62 34.79 89.78 35.07 89.65 32.03 C 89.47 21.69 89.34 11.32 89.77 0.98 Z" />
<path fill="#828181" opacity="1.00" d=" M 76.42 10.50 C 78.07 9.78 80.15 11.10 80.05 12.94 C 80.25 17.61 80.39 22.32 79.94 26.97 C 79.38 29.18 76.43 29.28 75.06 27.79 C 74.21 23.92 74.75 19.90 74.60 15.96 C 74.76 14.10 74.15 11.30 76.42 10.50 Z" />
<path fill="#828181" opacity="1.00" d=" M 106.36 10.36 C 107.97 9.98 109.79 11.28 109.64 13.01 C 109.79 17.32 109.77 21.64 109.65 25.95 C 109.91 28.03 107.33 29.63 105.58 28.47 C 103.98 27.54 104.34 25.52 104.25 23.97 C 104.30 20.33 104.17 16.69 104.32 13.06 C 104.21 11.79 105.16 10.65 106.36 10.36 Z" />
<path fill="#828181" opacity="1.00" d=" M 16.28 11.14 C 17.80 9.43 21.10 10.62 20.82 13.01 C 20.89 17.66 21.05 22.32 20.71 26.96 C 20.25 29.68 15.65 29.25 15.55 26.55 C 15.28 22.71 15.50 18.84 15.43 14.98 C 15.60 13.72 15.16 12.08 16.28 11.14 Z" />
<path fill="#828181" opacity="1.00" d=" M 46.06 10.86 C 47.74 9.63 50.78 10.65 50.42 13.03 C 50.54 17.65 50.70 22.29 50.33 26.89 C 50.08 29.34 45.89 29.48 45.27 27.12 C 45.00 22.14 44.99 17.12 45.26 12.14 C 45.46 11.82 45.86 11.18 46.06 10.86 Z" />
<path fill="#828181" opacity="1.00" d=" M 1.18 19.15 C 2.15 16.88 4.52 18.18 6.14 18.84 C 6.14 21.56 6.33 24.29 5.98 26.98 C 5.27 29.30 2.80 28.67 1.06 28.18 C 1.05 25.17 0.84 22.15 1.18 19.15 Z" />
<path fill="#828181" opacity="1.00" d=" M 61.19 18.21 C 62.52 17.21 64.09 17.91 65.01 19.07 C 65.50 21.97 65.60 25.01 64.86 27.87 C 63.16 29.66 59.73 28.68 59.87 26.02 C 60.09 23.51 58.74 19.81 61.19 18.21 Z" />
<path fill="#828181" opacity="1.00" d=" M 119.35 19.26 C 120.07 17.38 122.30 18.10 123.83 18.05 C 123.99 21.45 124.00 24.85 124.00 28.26 C 122.51 28.38 120.28 29.48 119.52 27.54 C 118.62 24.93 118.85 21.94 119.35 19.26 Z" />
<path fill="#828181" opacity="1.00" d=" M 14.73 46.78 C 18.10 42.94 23.51 43.00 28.15 43.68 C 28.21 45.54 28.26 47.39 28.30 49.25 C 25.36 49.04 21.68 47.86 19.37 50.37 C 16.94 52.70 17.27 57.02 19.98 58.98 C 22.37 60.86 25.50 59.73 28.21 59.44 C 28.22 61.29 28.22 63.15 28.22 65.00 L 19.14 65.00 C 11.82 62.52 9.29 52.28 14.73 46.78 Z" />
<path fill="#828181" opacity="1.00" d=" M 51.44 44.46 C 54.39 42.74 58.06 43.13 61.28 43.77 C 61.64 45.30 61.78 46.88 61.96 48.44 C 59.17 48.12 56.14 47.41 53.62 49.09 C 55.66 52.67 61.35 52.07 62.87 56.21 C 64.49 59.79 61.79 63.22 58.86 65.00 L 48.09 65.00 C 48.30 63.44 48.44 61.88 48.59 60.32 C 51.50 60.29 57.23 62.37 57.54 58.07 C 55.12 56.56 52.26 55.82 50.02 54.02 C 47.29 51.34 48.18 46.31 51.44 44.46 Z" />
<path fill="#828181" opacity="1.00" d=" M 71.08 47.10 C 74.35 42.90 80.04 42.94 84.80 43.73 C 84.86 45.58 84.93 47.43 85.00 49.28 C 82.28 49.10 79.19 48.00 76.72 49.69 C 73.52 51.79 73.58 57.18 76.84 59.20 C 79.28 60.82 82.26 59.70 84.91 59.38 C 84.87 61.25 84.83 63.13 84.78 65.00 L 75.27 65.00 C 68.59 62.00 66.12 52.68 71.08 47.10 Z" />
<path fill="#828181" opacity="1.00" d=" M 97.22 44.21 C 103.45 41.26 111.93 45.08 113.12 52.05 C 114.49 57.38 111.10 62.56 106.49 65.00 L 97.29 65.00 C 94.46 63.05 91.53 60.61 90.85 57.04 C 89.52 51.94 92.30 46.19 97.22 44.21 M 99.29 49.39 C 95.79 51.08 95.31 56.36 98.34 58.73 C 101.50 61.69 107.32 59.34 107.53 55.00 C 108.20 50.70 103.05 47.11 99.29 49.39 Z" />
<path fill="#828181" opacity="1.00" d=" M 35.74 43.66 C 37.55 43.63 39.37 43.63 41.18 43.64 C 41.21 50.76 41.19 57.88 41.20 65.00 L 35.77 65.00 C 35.70 57.89 35.73 50.77 35.74 43.66 Z" />
<path fill="#828181" opacity="1.00" d=" M 120.74 62.19 C 121.38 62.56 122.66 63.31 123.29 63.68 C 123.72 63.25 124.57 62.38 125.00 61.94 L 125.00 65.00 L 122.27 65.00 C 121.74 64.07 121.24 63.13 120.74 62.19 Z" />
</g>
</svg>
