<?xml version="1.0" encoding="UTF-8" ?>
<!DOCTYPE svg PUBLIC "-//W3C//DTD SVG 1.1//EN" "http://www.w3.org/Graphics/SVG/1.1/DTD/svg11.dtd">
<svg width="97pt" height="47pt" viewBox="0 0 97 47" version="1.1" xmlns="http://www.w3.org/2000/svg">
<g id="#ffffffff">
<path fill="#ffffff" opacity="1.00" d=" M 0.00 0.00 L 97.00 0.00 L 97.00 0.58 C 95.00 0.44 93.00 0.42 91.01 0.45 C 91.28 11.96 91.03 23.48 91.16 34.99 C 91.14 36.94 91.37 39.67 88.97 40.33 C 87.23 40.45 86.29 38.85 85.46 37.60 C 79.73 28.29 73.98 18.99 68.29 9.66 C 67.88 8.80 66.20 6.82 65.59 8.62 C 65.10 18.40 65.77 28.23 65.30 38.01 C 65.23 39.36 63.37 41.11 62.07 40.07 C 60.77 39.35 60.11 37.93 59.28 36.76 C 53.84 27.81 48.28 18.93 42.86 9.97 C 42.27 8.81 41.28 7.98 40.01 7.67 C 39.60 17.72 40.16 27.81 39.74 37.85 C 38.86 40.77 35.36 40.18 33.01 40.24 C 26.28 39.95 18.75 41.41 12.89 37.20 C 3.90 31.20 3.49 16.57 11.88 9.87 C 17.07 5.29 24.40 6.07 30.80 6.15 C 30.90 4.27 30.98 2.39 31.05 0.51 C 22.88 -0.00 13.60 0.26 7.34 6.30 C -3.10 15.58 -1.76 34.43 10.01 42.01 C 17.61 47.28 27.26 45.91 35.97 46.05 C 39.62 46.28 43.74 44.62 44.89 40.88 C 46.17 35.96 45.24 30.80 45.42 25.78 C 49.71 31.25 52.34 37.88 56.60 43.40 C 60.00 47.72 67.85 47.71 70.25 42.37 C 72.15 37.07 70.75 31.28 71.17 25.77 C 74.98 31.10 77.75 37.10 81.47 42.49 C 83.84 45.97 88.82 47.76 92.67 45.70 C 95.12 44.60 96.09 41.90 97.00 39.58 L 97.00 47.00 L 0.00 47.00 L 0.00 0.00 M 37.16 1.08 C 34.55 2.32 32.69 5.15 32.67 8.06 C 32.53 16.17 32.56 24.30 32.62 32.42 C 28.24 33.72 23.29 33.36 18.92 32.12 C 12.44 29.86 11.09 20.55 16.01 16.07 C 19.99 12.12 25.95 13.72 30.95 13.31 C 30.93 11.46 30.93 9.60 30.95 7.75 C 25.06 7.80 18.44 6.81 13.39 10.57 C 5.11 16.65 5.46 31.24 14.52 36.46 C 21.63 40.27 30.00 38.13 37.69 38.67 C 38.87 30.55 37.90 22.22 38.20 14.01 C 38.47 11.57 37.26 8.24 39.78 6.64 C 40.91 5.66 42.58 6.68 43.22 7.77 C 49.89 18.13 55.97 28.88 62.79 39.15 L 63.80 38.17 C 64.06 28.43 63.71 18.66 63.95 8.92 C 63.98 6.56 67.26 5.24 68.57 7.45 C 75.40 17.72 81.26 28.67 88.28 38.81 C 88.58 38.63 89.17 38.27 89.47 38.09 C 89.61 25.66 89.54 13.23 89.49 0.80 C 87.62 0.85 85.75 0.88 83.88 0.89 C 83.87 7.67 83.83 14.45 83.96 21.23 C 79.59 16.03 77.30 9.32 73.16 3.90 C 69.69 -1.04 60.17 -0.47 58.63 5.91 C 57.77 10.67 58.39 15.58 58.34 20.40 C 58.11 20.50 57.66 20.71 57.43 20.81 C 55.00 16.25 52.36 11.80 49.81 7.30 C 48.71 5.42 47.56 3.50 45.81 2.16 C 43.44 0.15 39.99 0.48 37.16 1.08 Z" />
</g>
<g id="#111111ff">
<path fill="#111111" opacity="1.00" d=" M 7.34 6.30 C 13.60 0.26 22.88 -0.00 31.05 0.51 C 30.98 2.39 30.90 4.27 30.80 6.15 C 24.40 6.07 17.07 5.29 11.88 9.87 C 3.49 16.57 3.90 31.20 12.89 37.20 C 18.75 41.41 26.28 39.95 33.01 40.24 C 35.36 40.18 38.86 40.77 39.74 37.85 C 40.16 27.81 39.60 17.72 40.01 7.67 C 41.28 7.98 42.27 8.81 42.86 9.97 C 48.28 18.93 53.84 27.81 59.28 36.76 C 60.11 37.93 60.77 39.35 62.07 40.07 C 63.37 41.11 65.23 39.36 65.30 38.01 C 65.77 28.23 65.10 18.40 65.59 8.62 C 66.20 6.82 67.88 8.80 68.29 9.66 C 73.98 18.99 79.73 28.29 85.46 37.60 C 86.29 38.85 87.23 40.45 88.97 40.33 C 91.37 39.67 91.14 36.94 91.16 34.99 C 91.03 23.48 91.28 11.96 91.01 0.45 C 93.00 0.42 95.00 0.44 97.00 0.58 L 97.00 39.58 C 96.09 41.90 95.12 44.60 92.67 45.70 C 88.82 47.76 83.84 45.97 81.47 42.49 C 77.75 37.10 74.98 31.10 71.17 25.77 C 70.75 31.28 72.15 37.07 70.25 42.37 C 67.85 47.71 60.00 47.72 56.60 43.40 C 52.34 37.88 49.71 31.25 45.42 25.78 C 45.24 30.80 46.17 35.96 44.89 40.88 C 43.74 44.62 39.62 46.28 35.97 46.05 C 27.26 45.91 17.61 47.28 10.01 42.01 C -1.76 34.43 -3.10 15.58 7.34 6.30 Z" />
<path fill="#111111" opacity="1.00" d=" M 37.16 1.08 C 39.99 0.48 43.44 0.15 45.81 2.16 C 47.56 3.50 48.71 5.42 49.81 7.30 C 52.36 11.80 55.00 16.25 57.43 20.81 C 57.66 20.71 58.11 20.50 58.34 20.40 C 58.39 15.58 57.77 10.67 58.63 5.91 C 60.17 -0.47 69.69 -1.04 73.16 3.90 C 77.30 9.32 79.59 16.03 83.96 21.23 C 83.83 14.45 83.87 7.67 83.88 0.89 C 85.75 0.88 87.62 0.85 89.49 0.80 C 89.54 13.23 89.61 25.66 89.47 38.09 C 89.17 38.27 88.58 38.63 88.28 38.81 C 81.26 28.67 75.40 17.72 68.57 7.45 C 67.26 5.24 63.98 6.56 63.95 8.92 C 63.71 18.66 64.06 28.43 63.80 38.17 L 62.79 39.15 C 55.97 28.88 49.89 18.13 43.22 7.77 C 42.58 6.68 40.91 5.66 39.78 6.64 C 37.26 8.24 38.47 11.57 38.20 14.01 C 37.90 22.22 38.87 30.55 37.69 38.67 C 30.00 38.13 21.63 40.27 14.52 36.46 C 5.46 31.24 5.11 16.65 13.39 10.57 C 18.44 6.81 25.06 7.80 30.95 7.75 C 30.93 9.60 30.93 11.46 30.95 13.31 C 25.95 13.72 19.99 12.12 16.01 16.07 C 11.09 20.55 12.44 29.86 18.92 32.12 C 23.29 33.36 28.24 33.72 32.62 32.42 C 32.56 24.30 32.53 16.17 32.67 8.06 C 32.69 5.15 34.55 2.32 37.16 1.08 Z" />
</g>
</svg>
