<?xml version="1.0" encoding="UTF-8" ?>
<!DOCTYPE svg PUBLIC "-//W3C//DTD SVG 1.1//EN" "http://www.w3.org/Graphics/SVG/1.1/DTD/svg11.dtd">
<svg width="143pt" height="49pt" viewBox="0 0 143 49" version="1.1" xmlns="http://www.w3.org/2000/svg">
<g id="#ffffffff">
<path fill="#ffffff" opacity="1.00" d=" M 0.00 0.00 L 143.00 0.00 L 143.00 49.00 L 0.00 49.00 L 0.00 19.55 C 0.65 25.62 3.68 31.82 9.42 34.52 C 16.96 38.16 25.56 36.02 33.26 34.10 C 33.16 30.58 32.96 26.93 34.55 23.68 C 30.02 23.97 24.89 22.82 21.08 25.96 C 23.47 25.96 25.87 25.89 28.26 25.82 C 28.08 28.33 28.61 31.04 27.66 33.40 C 19.14 36.70 8.70 31.55 6.24 22.72 C 3.40 15.20 7.11 5.07 15.55 3.42 C 20.39 2.44 28.07 3.72 28.60 9.77 C 30.16 8.08 31.86 6.53 33.62 5.05 C 26.03 0.71 15.96 -0.63 8.30 4.23 C 3.34 7.19 0.67 12.77 0.00 18.35 L 0.00 0.00 M 110.54 1.78 C 111.37 1.95 113.02 2.27 113.85 2.44 C 113.68 11.28 113.80 20.13 113.81 28.97 C 113.82 30.68 113.37 32.33 112.94 33.96 C 116.16 33.89 119.37 33.95 122.58 33.78 C 121.78 32.30 120.06 32.22 118.63 31.83 C 118.43 23.54 118.64 15.26 118.50 6.97 C 118.42 4.83 118.82 2.72 119.28 0.65 C 116.36 0.89 113.33 0.72 110.54 1.78 M 46.12 12.16 C 40.84 13.39 36.42 18.43 36.88 24.01 C 37.05 29.77 42.16 34.67 47.88 34.82 C 55.20 35.65 62.09 28.37 60.38 21.08 C 59.38 14.65 52.27 10.51 46.12 12.16 M 71.16 12.32 C 66.72 13.85 63.19 18.20 63.28 23.00 C 63.01 28.96 68.16 34.34 74.09 34.54 C 81.05 35.37 87.84 29.00 86.90 21.93 C 86.60 14.42 77.95 9.54 71.16 12.32 M 97.52 12.75 C 92.14 13.39 87.46 19.57 90.23 24.77 C 91.58 27.91 95.00 28.97 98.12 29.28 C 98.54 30.75 98.91 32.23 99.24 33.73 C 94.89 34.16 89.44 35.08 87.49 39.59 C 85.63 43.77 89.90 48.34 94.12 48.08 C 97.07 48.00 100.03 48.10 102.97 47.76 C 107.19 46.87 110.82 42.43 109.71 38.02 C 108.72 34.34 104.74 32.89 102.72 29.93 C 104.02 26.94 107.73 25.44 108.21 21.98 C 108.87 19.18 107.15 16.70 105.43 14.69 C 107.21 14.28 109.33 14.26 110.36 12.47 C 106.08 12.53 101.79 12.37 97.52 12.75 M 127.82 13.71 C 120.76 18.18 122.05 30.02 129.25 33.68 C 133.51 35.80 139.58 35.20 142.44 31.07 C 139.61 31.63 136.55 32.93 133.79 31.43 C 130.13 29.95 128.50 26.14 127.24 22.70 C 132.73 23.08 137.37 19.64 142.38 17.98 C 140.85 11.68 132.60 10.00 127.82 13.71 Z" />
<path fill="#ffffff" opacity="1.00" d=" M 73.38 13.43 C 76.40 12.72 79.20 15.02 80.41 17.63 C 82.01 21.04 82.76 25.09 81.66 28.75 C 80.52 32.46 75.44 34.09 72.40 31.66 C 68.96 28.91 67.99 24.16 67.98 19.98 C 67.92 16.83 70.21 13.89 73.38 13.43 Z" />
<path fill="#ffffff" opacity="1.00" d=" M 45.15 14.34 C 47.99 12.80 51.73 13.91 53.31 16.71 C 55.49 20.35 56.52 25.04 55.18 29.15 C 53.99 32.78 49.07 34.26 46.04 31.98 C 43.03 29.59 41.95 25.60 41.57 21.94 C 41.20 19.02 42.29 15.60 45.15 14.34 Z" />
<path fill="#ffffff" opacity="1.00" d=" M 97.34 14.36 C 102.21 13.79 104.35 20.04 103.85 24.00 C 103.33 27.59 98.27 28.76 96.12 25.88 C 93.30 22.73 92.16 15.73 97.34 14.36 Z" />
<path fill="#ffffff" opacity="1.00" d=" M 127.22 22.11 C 127.28 19.05 127.60 15.02 131.09 13.94 C 134.00 12.46 136.41 15.20 138.07 17.22 C 134.82 19.59 130.99 20.84 127.22 22.11 Z" />
<path fill="#ffffff" opacity="1.00" d=" M 97.48 35.65 C 102.14 33.68 109.26 39.98 105.38 44.44 C 101.67 47.65 94.57 47.23 91.84 42.91 C 89.91 39.11 94.00 35.88 97.48 35.65 Z" />
</g>
<g id="#828181ff">
<path fill="#828181" opacity="1.00" d=" M 8.30 4.23 C 15.96 -0.63 26.03 0.71 33.62 5.05 C 31.86 6.53 30.16 8.08 28.60 9.77 C 28.07 3.72 20.39 2.44 15.55 3.42 C 7.11 5.07 3.40 15.20 6.24 22.72 C 8.70 31.55 19.14 36.70 27.66 33.40 C 28.61 31.04 28.08 28.33 28.26 25.82 C 25.87 25.89 23.47 25.96 21.08 25.96 C 24.89 22.82 30.02 23.97 34.55 23.68 C 32.96 26.93 33.16 30.58 33.26 34.10 C 25.56 36.02 16.96 38.16 9.42 34.52 C 3.68 31.82 0.65 25.62 0.00 19.55 L 0.00 18.35 C 0.67 12.77 3.34 7.19 8.30 4.23 Z" />
<path fill="#828181" opacity="1.00" d=" M 110.54 1.78 C 113.33 0.72 116.36 0.89 119.28 0.65 C 118.82 2.72 118.42 4.83 118.50 6.97 C 118.64 15.26 118.43 23.54 118.63 31.83 C 120.06 32.22 121.78 32.30 122.58 33.78 C 119.37 33.95 116.16 33.89 112.94 33.96 C 113.37 32.33 113.82 30.68 113.81 28.97 C 113.80 20.13 113.68 11.28 113.85 2.44 C 113.02 2.27 111.37 1.95 110.54 1.78 Z" />
<path fill="#828181" opacity="1.00" d=" M 46.12 12.16 C 52.27 10.51 59.38 14.65 60.38 21.08 C 62.09 28.37 55.20 35.65 47.88 34.82 C 42.16 34.67 37.05 29.77 36.88 24.01 C 36.42 18.43 40.84 13.39 46.12 12.16 M 45.15 14.34 C 42.29 15.60 41.20 19.02 41.57 21.94 C 41.95 25.60 43.03 29.59 46.04 31.98 C 49.07 34.26 53.99 32.78 55.18 29.15 C 56.52 25.04 55.49 20.35 53.31 16.71 C 51.73 13.91 47.99 12.80 45.15 14.34 Z" />
<path fill="#828181" opacity="1.00" d=" M 71.16 12.32 C 77.95 9.54 86.60 14.42 86.90 21.93 C 87.84 29.00 81.05 35.37 74.09 34.54 C 68.16 34.34 63.01 28.96 63.28 23.00 C 63.19 18.20 66.72 13.85 71.16 12.32 M 73.38 13.43 C 70.21 13.89 67.92 16.83 67.98 19.98 C 67.99 24.16 68.96 28.91 72.40 31.66 C 75.44 34.09 80.52 32.46 81.66 28.75 C 82.76 25.09 82.01 21.04 80.41 17.63 C 79.20 15.02 76.40 12.72 73.38 13.43 Z" />
<path fill="#828181" opacity="1.00" d=" M 97.52 12.75 C 101.79 12.37 106.08 12.53 110.36 12.47 C 109.33 14.26 107.21 14.28 105.43 14.69 C 107.15 16.70 108.87 19.18 108.21 21.98 C 107.73 25.44 104.02 26.94 102.72 29.93 C 104.74 32.89 108.72 34.34 109.71 38.02 C 110.82 42.43 107.19 46.87 102.97 47.76 C 100.03 48.10 97.07 48.00 94.12 48.08 C 89.90 48.34 85.63 43.77 87.49 39.59 C 89.44 35.08 94.89 34.16 99.24 33.73 C 98.91 32.23 98.54 30.75 98.12 29.28 C 95.00 28.97 91.58 27.91 90.23 24.77 C 87.46 19.57 92.14 13.39 97.52 12.75 M 97.34 14.36 C 92.16 15.73 93.30 22.73 96.12 25.88 C 98.27 28.76 103.33 27.59 103.85 24.00 C 104.35 20.04 102.21 13.79 97.34 14.36 M 97.48 35.65 C 94.00 35.88 89.91 39.11 91.84 42.91 C 94.57 47.23 101.67 47.65 105.38 44.44 C 109.26 39.98 102.14 33.68 97.48 35.65 Z" />
<path fill="#828181" opacity="1.00" d=" M 127.82 13.71 C 132.60 10.00 140.85 11.68 142.38 17.98 C 137.37 19.64 132.73 23.08 127.24 22.70 C 128.50 26.14 130.13 29.95 133.79 31.43 C 136.55 32.93 139.61 31.63 142.44 31.07 C 139.58 35.20 133.51 35.80 129.25 33.68 C 122.05 30.02 120.76 18.18 127.82 13.71 M 127.22 22.11 C 130.99 20.84 134.82 19.59 138.07 17.22 C 136.41 15.20 134.00 12.46 131.09 13.94 C 127.60 15.02 127.28 19.05 127.22 22.11 Z" />
</g>
</svg>
