<?xml version="1.0" encoding="UTF-8" ?>
<!DOCTYPE svg PUBLIC "-//W3C//DTD SVG 1.1//EN" "http://www.w3.org/Graphics/SVG/1.1/DTD/svg11.dtd">
<svg width="800pt" height="274pt" viewBox="0 0 800 274" version="1.1" xmlns="http://www.w3.org/2000/svg">
<g id="#2b5e3178">
<path fill="#2b5e31" opacity="0.47" d=" M 634.68 0.00 L 673.94 0.00 C 673.76 0.38 673.39 1.14 673.20 1.51 C 669.88 1.02 666.52 0.86 663.17 1.01 C 654.12 0.97 645.07 1.12 636.03 0.82 L 634.68 0.00 Z" />
</g>
<g id="#3fcf51ff">
<path fill="#3fcf51" opacity="1.00" d=" M 624.17 6.33 C 628.14 4.54 631.97 2.43 636.03 0.82 C 645.07 1.12 654.12 0.97 663.17 1.01 C 658.14 3.59 654.81 9.02 649.00 10.10 C 645.20 11.26 641.61 9.08 638.14 7.87 C 633.73 5.89 628.84 6.56 624.17 6.33 Z" />
</g>
<g id="#08b01bff">
<path fill="#08b01b" opacity="1.00" d=" M 663.17 1.01 C 666.52 0.86 669.88 1.02 673.20 1.51 C 672.45 1.83 670.94 2.46 670.18 2.78 C 663.94 2.63 659.84 7.80 655.36 11.32 C 652.90 13.06 652.10 16.11 652.01 18.97 C 651.45 34.81 652.81 50.74 650.70 66.51 C 647.56 72.85 648.64 80.39 644.93 86.49 C 644.11 85.14 643.29 83.79 642.50 82.44 C 641.54 83.36 640.57 84.29 639.62 85.22 C 639.29 81.93 638.14 78.83 637.07 75.73 C 636.60 55.16 637.00 34.56 636.91 13.98 C 636.68 12.52 637.05 10.13 634.96 10.07 C 629.19 9.24 623.33 10.48 617.57 9.47 C 619.70 8.29 621.93 7.30 624.17 6.33 C 628.84 6.56 633.73 5.89 638.14 7.87 C 641.61 9.08 645.20 11.26 649.00 10.10 C 654.81 9.02 658.14 3.59 663.17 1.01 Z" />
</g>
<g id="#0407053e">
<path fill="#040705" opacity="0.24" d=" M 670.18 2.78 C 670.94 2.46 672.45 1.83 673.20 1.51 C 671.92 6.93 665.55 8.78 664.25 14.12 C 663.49 17.03 663.54 20.06 663.52 23.04 C 663.65 74.53 663.37 126.03 663.67 177.52 C 663.07 176.08 662.57 174.62 662.18 173.12 L 662.00 172.36 C 662.29 144.57 662.04 116.78 662.13 88.99 C 662.00 64.87 662.37 40.74 661.94 16.63 L 662.01 16.22 C 663.20 15.35 663.49 14.22 662.88 12.84 C 663.41 11.54 663.96 10.25 664.58 8.99 C 666.30 6.79 668.22 4.77 670.18 2.78 Z" />
</g>
<g id="#009f13ff">
<path fill="#009f13" opacity="1.00" d=" M 655.36 11.32 C 659.84 7.80 663.94 2.63 670.18 2.78 C 668.22 4.77 666.30 6.79 664.58 8.99 C 664.22 8.33 663.51 7.02 663.15 6.36 C 660.17 9.31 655.36 12.18 655.89 16.98 C 657.20 25.91 656.31 34.96 656.56 43.95 C 656.83 51.67 655.24 59.29 655.55 67.01 C 655.41 74.04 656.04 81.11 655.01 88.10 C 654.27 93.05 654.61 98.06 654.58 103.05 C 654.55 117.39 654.58 131.72 654.57 146.06 C 654.08 153.27 652.67 160.57 654.11 167.77 C 654.82 171.11 657.49 173.43 659.99 175.52 C 660.71 174.72 661.44 173.92 662.18 173.12 C 662.57 174.62 663.07 176.08 663.67 177.52 C 665.17 179.47 667.80 179.88 670.08 180.26 C 674.04 180.71 678.02 181.08 682.00 181.52 C 678.34 184.00 673.76 184.13 669.53 183.59 C 664.58 183.02 661.62 177.82 656.59 177.53 C 652.58 177.51 648.59 178.14 644.65 178.77 C 640.20 179.48 636.86 183.22 632.31 183.51 C 633.32 182.11 634.38 180.73 635.26 179.24 C 636.24 177.67 636.84 175.88 636.81 174.02 C 637.00 141.26 636.52 108.49 637.07 75.73 C 638.14 78.83 639.29 81.93 639.62 85.22 C 640.42 91.12 640.87 97.08 642.10 102.92 C 644.42 113.34 641.66 124.17 643.71 134.60 C 649.54 131.07 647.84 123.69 648.03 118.00 C 648.48 111.31 646.93 104.50 648.67 97.93 C 649.59 93.35 650.01 88.69 650.01 84.02 C 649.90 78.16 651.83 72.37 650.70 66.51 C 652.81 50.74 651.45 34.81 652.01 18.97 C 652.10 16.11 652.90 13.06 655.36 11.32 Z" />
</g>
<g id="#3877fcff">
<path fill="#3877fc" opacity="1.00" d=" M 62.97 14.46 C 73.07 10.05 84.02 7.83 94.93 6.58 C 101.80 6.27 108.68 5.14 115.55 6.15 C 133.31 6.87 151.00 10.71 167.35 17.74 C 165.12 19.65 162.95 23.59 159.49 22.40 C 152.24 19.80 145.48 15.47 137.66 14.73 C 114.04 6.92 87.22 7.81 64.70 18.70 C 52.46 25.16 41.74 34.31 33.13 45.13 C 27.38 52.57 22.97 60.94 19.22 69.54 C 16.43 73.39 15.03 78.00 12.65 82.09 C 10.00 80.38 7.64 78.29 5.40 76.08 L 5.23 75.91 C 8.24 66.68 12.53 57.86 17.99 49.82 L 18.14 49.90 C 19.34 50.52 20.54 51.15 21.74 51.77 C 29.10 44.47 36.38 37.08 43.73 29.77 C 49.87 23.68 57.44 19.36 64.99 15.27 C 64.48 15.06 63.47 14.66 62.97 14.46 Z" />
</g>
<g id="#00770bff">
<path fill="#00770b" opacity="1.00" d=" M 655.89 16.98 C 655.36 12.18 660.17 9.31 663.15 6.36 C 663.51 7.02 664.22 8.33 664.58 8.99 C 663.96 10.25 663.41 11.54 662.88 12.84 C 661.84 13.77 661.55 14.90 662.01 16.22 L 661.94 16.63 C 661.49 18.39 660.99 20.15 660.99 21.98 C 660.98 70.00 660.94 118.02 660.93 166.03 C 660.98 168.18 661.49 170.28 662.00 172.36 L 662.18 173.12 C 661.44 173.92 660.71 174.72 659.99 175.52 C 657.49 173.43 654.82 171.11 654.11 167.77 C 652.67 160.57 654.08 153.27 654.57 146.06 C 654.58 131.72 654.55 117.39 654.58 103.05 C 654.61 98.06 654.27 93.05 655.01 88.10 C 656.04 81.11 655.41 74.04 655.55 67.01 C 655.24 59.29 656.83 51.67 656.56 43.95 C 656.31 34.96 657.20 25.91 655.89 16.98 Z" />
</g>
<g id="#174ff1ff">
<path fill="#174ff1" opacity="1.00" d=" M 64.70 18.70 C 87.22 7.81 114.04 6.92 137.66 14.73 C 142.95 17.93 148.94 19.67 154.31 22.71 C 157.37 24.21 160.49 26.27 164.04 26.08 C 167.59 25.43 170.23 22.73 172.96 20.58 L 173.08 20.48 C 175.61 21.88 178.12 23.31 180.54 24.91 C 173.75 26.48 167.61 32.07 160.34 30.41 C 154.40 28.09 149.37 23.90 143.33 21.74 C 138.01 19.85 132.61 17.82 126.98 17.14 C 126.28 17.47 124.90 18.13 124.20 18.46 C 123.30 18.27 122.40 18.06 121.51 17.85 C 107.94 13.96 93.18 14.90 79.75 18.96 C 72.19 21.48 64.59 24.73 58.64 30.18 C 58.48 30.29 58.18 30.53 58.02 30.64 C 54.29 32.80 51.21 35.85 48.63 39.28 C 47.69 40.36 46.80 41.48 45.99 42.66 C 44.06 42.75 43.20 44.68 43.09 46.36 C 42.01 48.02 40.93 49.68 39.87 51.35 C 37.51 54.33 35.88 57.79 35.01 61.49 C 28.64 77.94 27.58 96.27 30.91 113.52 C 34.34 131.71 42.64 149.07 55.31 162.64 C 57.76 165.79 61.20 167.93 63.81 170.92 C 63.65 172.90 63.39 174.88 63.13 176.85 C 71.85 185.20 83.99 188.01 95.13 191.63 C 109.11 194.48 123.53 194.12 137.64 192.53 C 140.01 192.23 142.38 191.79 144.62 190.93 C 145.00 190.49 145.76 189.62 146.14 189.19 C 148.89 187.63 152.21 187.06 155.22 186.04 C 149.92 192.78 140.72 193.33 132.89 194.49 C 118.23 195.28 103.25 195.76 88.92 192.05 C 79.78 190.00 70.93 186.71 62.66 182.31 C 52.63 177.58 43.22 171.48 34.97 164.05 C 30.22 159.45 24.98 155.37 20.62 150.38 C 16.82 147.97 13.34 145.13 10.21 141.90 C 9.60 142.20 8.37 142.82 7.76 143.13 C 1.09 125.58 -1.35 106.20 2.35 87.69 C 5.56 88.58 7.13 91.56 9.14 93.90 C 10.03 94.76 11.04 96.36 12.44 95.42 C 14.89 90.19 15.29 84.32 17.04 78.86 C 18.05 75.82 18.90 72.73 19.22 69.54 C 22.97 60.94 27.38 52.57 33.13 45.13 C 41.74 34.31 52.46 25.16 64.70 18.70 Z" />
</g>
<g id="#177621be">
<path fill="#177621" opacity="0.75" d=" M 616.15 10.52 C 616.51 10.25 617.22 9.73 617.57 9.47 C 623.33 10.48 629.19 9.24 634.96 10.07 C 637.05 10.13 636.68 12.52 636.91 13.98 C 637.00 34.56 636.60 55.16 637.07 75.73 C 636.52 108.49 637.00 141.26 636.81 174.02 C 636.84 175.88 636.24 177.67 635.26 179.24 C 635.82 176.53 635.94 173.76 635.94 171.00 C 635.87 118.28 635.98 65.57 635.89 12.85 L 635.88 11.42 C 630.40 11.42 624.93 11.13 619.47 10.82 C 618.64 10.74 616.98 10.59 616.15 10.52 Z" />
</g>
<g id="#0000003e">
<path fill="#000000" opacity="0.24" d=" M 619.47 10.82 C 624.93 11.13 630.40 11.42 635.88 11.42 L 635.89 12.85 C 631.60 12.95 627.31 13.40 623.02 13.25 C 621.32 13.51 620.47 11.78 619.47 10.82 Z" />
</g>
<g id="#284128b5">
<path fill="#284128" opacity="0.71" d=" M 662.01 16.22 C 661.55 14.90 661.84 13.77 662.88 12.84 C 663.49 14.22 663.20 15.35 662.01 16.22 Z" />
</g>
<g id="#4f88feff">
<path fill="#4f88fe" opacity="1.00" d=" M 18.14 49.90 C 28.91 33.84 44.99 21.45 62.97 14.46 C 63.47 14.66 64.48 15.06 64.99 15.27 C 57.44 19.36 49.87 23.68 43.73 29.77 C 36.38 37.08 29.10 44.47 21.74 51.77 C 20.54 51.15 19.34 50.52 18.14 49.90 Z" />
</g>
<g id="#1f2e5eb8">
<path fill="#1f2e5e" opacity="0.72" d=" M 79.75 18.96 C 93.18 14.90 107.94 13.96 121.51 17.85 C 115.37 17.23 109.26 16.07 103.06 16.15 C 90.71 16.31 78.26 19.11 67.40 25.12 C 64.49 26.81 61.63 28.62 58.64 30.18 C 64.59 24.73 72.19 21.48 79.75 18.96 Z" />
</g>
<g id="#2f67f1ff">
<path fill="#2f67f1" opacity="1.00" d=" M 137.66 14.73 C 145.48 15.47 152.24 19.80 159.49 22.40 C 162.95 23.59 165.12 19.65 167.35 17.74 C 169.25 18.62 171.13 19.55 172.96 20.58 C 170.23 22.73 167.59 25.43 164.04 26.08 C 160.49 26.27 157.37 24.21 154.31 22.71 C 148.94 19.67 142.95 17.93 137.66 14.73 Z" />
</g>
<g id="#02020060">
<path fill="#020200" opacity="0.38" d=" M 67.40 25.12 C 78.26 19.11 90.71 16.31 103.06 16.15 C 109.26 16.07 115.37 17.23 121.51 17.85 C 122.40 18.06 123.30 18.27 124.20 18.46 C 126.70 19.29 129.19 20.17 131.68 21.04 C 134.93 22.72 138.21 24.34 141.55 25.83 C 147.29 29.45 152.79 33.53 157.54 38.40 C 158.34 39.20 159.14 40.01 159.95 40.82 C 159.08 42.20 158.22 43.59 157.35 44.96 C 157.80 43.44 159.66 41.39 157.93 40.05 C 147.92 30.49 135.65 22.88 121.97 20.04 C 114.82 18.04 107.36 18.32 100.01 18.34 C 92.83 18.25 85.91 20.45 79.01 22.15 C 65.86 26.87 53.83 35.30 45.78 46.81 C 31.86 64.84 28.23 88.94 31.34 111.05 C 31.23 111.67 31.02 112.90 30.91 113.52 C 27.58 96.27 28.64 77.94 35.01 61.49 C 36.83 58.21 38.48 54.84 39.87 51.35 C 40.93 49.68 42.01 48.02 43.09 46.36 C 44.75 45.82 45.81 44.37 45.99 42.66 C 46.80 41.48 47.69 40.36 48.63 39.28 C 52.14 36.84 55.17 33.81 58.02 30.64 C 58.18 30.53 58.48 30.29 58.64 30.18 C 61.63 28.62 64.49 26.81 67.40 25.12 Z" />
<path fill="#020200" opacity="0.38" d=" M 187.52 140.54 C 189.59 138.35 191.85 136.36 193.83 134.10 C 194.00 134.75 194.35 136.05 194.52 136.70 C 191.96 140.46 186.80 142.80 186.67 147.93 C 186.23 161.57 186.72 175.24 186.40 188.89 C 186.55 191.17 184.21 192.10 182.35 192.44 C 171.90 194.84 161.44 197.17 151.03 199.71 C 130.61 203.44 109.77 206.06 89.02 204.05 C 68.51 202.13 48.26 194.32 32.88 180.40 C 30.80 178.30 27.50 176.80 27.08 173.56 C 30.33 176.52 33.39 179.69 36.94 182.31 C 54.18 195.92 76.32 201.88 98.00 202.64 C 113.66 203.18 129.21 200.86 144.64 198.48 C 149.47 197.77 154.15 196.34 158.92 195.37 C 167.39 193.42 175.90 191.58 184.33 189.47 L 185.13 189.20 C 185.61 175.50 185.13 161.77 185.40 148.06 C 185.63 145.49 185.56 142.49 187.52 140.54 Z" />
<path fill="#020200" opacity="0.38" d=" M 613.79 215.75 C 616.23 226.00 613.49 237.12 607.68 245.81 C 599.54 258.59 585.34 266.22 571.02 270.01 C 558.67 273.60 545.66 272.86 532.96 272.53 C 521.60 271.30 510.21 267.88 500.96 260.97 C 499.67 260.05 498.63 258.82 498.07 257.33 L 499.33 258.09 C 502.82 260.91 506.71 263.16 510.75 265.07 C 518.30 269.23 527.04 270.43 535.50 271.33 C 542.12 271.59 548.86 272.24 555.41 270.81 C 555.83 270.78 556.68 270.71 557.10 270.68 C 573.35 269.40 589.78 263.19 601.29 251.36 C 610.35 241.97 614.91 228.74 613.79 215.75 Z" />
</g>
<g id="#103fdfff">
<path fill="#103fdf" opacity="1.00" d=" M 124.20 18.46 C 124.90 18.13 126.28 17.47 126.98 17.14 C 132.61 17.82 138.01 19.85 143.33 21.74 C 149.37 23.90 154.40 28.09 160.34 30.41 C 167.61 32.07 173.75 26.48 180.54 24.91 C 181.89 25.78 183.26 26.63 184.66 27.43 C 184.62 27.92 184.55 28.89 184.51 29.38 C 184.16 29.53 183.46 29.82 183.11 29.97 C 174.88 33.68 164.73 32.25 157.54 38.40 C 152.79 33.53 147.29 29.45 141.55 25.83 C 138.62 23.56 135.29 21.90 131.68 21.04 C 129.19 20.17 126.70 19.29 124.20 18.46 Z" />
</g>
<g id="#246a25ef">
<path fill="#246a25" opacity="0.94" d=" M 660.99 21.98 C 660.99 20.15 661.49 18.39 661.94 16.63 C 662.37 40.74 662.00 64.87 662.13 88.99 C 662.04 116.78 662.29 144.57 662.00 172.36 C 661.49 170.28 660.98 168.18 660.93 166.03 C 660.94 118.02 660.98 70.00 660.99 21.98 Z" />
</g>
<g id="#1e3587cb">
<path fill="#1e3587" opacity="0.80" d=" M 131.68 21.04 C 135.29 21.90 138.62 23.56 141.55 25.83 C 138.21 24.34 134.93 22.72 131.68 21.04 Z" />
</g>
<g id="#0f37d1ff">
<path fill="#0f37d1" opacity="1.00" d=" M 157.54 38.40 C 164.73 32.25 174.88 33.68 183.11 29.97 C 182.41 31.72 181.08 33.02 179.37 33.77 C 176.55 35.10 174.19 37.31 172.83 40.12 C 172.68 40.38 172.39 40.90 172.24 41.15 C 168.80 43.71 166.23 47.24 162.83 49.83 C 159.74 50.77 156.40 50.65 153.25 51.39 C 154.59 49.23 155.97 47.10 157.35 44.96 C 158.22 43.59 159.08 42.20 159.95 40.82 C 159.14 40.01 158.34 39.20 157.54 38.40 Z" />
</g>
<g id="#1f2b55b4">
<path fill="#1f2b55" opacity="0.71" d=" M 48.63 39.28 C 51.21 35.85 54.29 32.80 58.02 30.64 C 55.17 33.81 52.14 36.84 48.63 39.28 Z" />
</g>
<g id="#243a94e4">
<path fill="#243a94" opacity="0.89" d=" M 172.83 40.12 C 174.19 37.31 176.55 35.10 179.37 33.77 L 179.49 35.05 C 176.90 36.28 175.59 39.17 172.83 40.12 Z" />
</g>
<g id="#1e2d64bb">
<path fill="#1e2d64" opacity="0.73" d=" M 43.09 46.36 C 43.20 44.68 44.06 42.75 45.99 42.66 C 45.81 44.37 44.75 45.82 43.09 46.36 Z" />
</g>
<g id="#21347bc8">
<path fill="#21347b" opacity="0.78" d=" M 35.01 61.49 C 35.88 57.79 37.51 54.33 39.87 51.35 C 38.48 54.84 36.83 58.21 35.01 61.49 Z" />
</g>
<g id="#ffc02dff">
<path fill="#ffc02d" opacity="1.00" d=" M 391.63 70.99 C 412.44 61.89 437.97 62.18 457.37 74.64 C 457.61 77.69 458.26 81.07 456.09 83.63 C 453.11 82.60 450.35 81.08 447.79 79.28 C 437.26 72.43 424.62 67.41 411.87 69.60 C 401.11 70.47 391.44 76.45 384.31 84.30 C 378.48 91.66 373.87 99.99 370.79 108.85 C 368.65 115.00 368.58 121.83 365.16 127.50 C 361.60 125.15 358.13 122.63 354.31 120.71 C 354.72 113.78 357.25 107.16 360.16 100.93 C 362.15 101.62 364.25 103.64 366.45 102.49 C 368.51 100.83 369.77 98.43 371.22 96.27 C 376.76 87.56 383.19 79.36 391.23 72.81 C 391.31 72.42 391.48 71.66 391.57 71.28 L 391.63 70.99 Z" />
</g>
<g id="#f04f4fff">
<path fill="#f04f4f" opacity="1.00" d=" M 250.48 69.86 C 269.50 63.97 291.30 64.86 308.57 75.39 C 308.38 78.02 308.16 80.64 307.92 83.26 C 301.44 83.13 296.75 78.16 291.09 75.76 C 283.97 72.13 276.07 69.75 268.00 70.19 C 255.46 70.33 244.01 77.11 235.47 85.90 C 230.31 88.89 228.30 94.72 225.60 99.67 C 223.08 104.26 221.17 109.14 218.72 113.76 C 218.00 115.29 216.55 116.23 215.23 117.18 C 213.10 115.40 210.60 114.19 207.90 113.55 C 208.80 110.72 209.92 107.97 210.88 105.17 L 211.08 105.41 C 212.39 107.95 216.42 110.86 218.54 107.58 C 224.58 99.47 228.13 89.65 235.33 82.35 C 239.45 77.76 244.91 74.76 250.16 71.68 C 250.22 71.30 250.36 70.54 250.43 70.16 L 250.48 69.86 Z" />
<path fill="#f04f4f" opacity="1.00" d=" M 727.58 118.45 C 737.19 114.23 746.82 110.05 756.47 105.91 C 754.07 109.95 749.22 111.14 745.29 113.12 C 739.56 115.37 733.92 118.65 727.58 118.45 Z" />
</g>
<g id="#f85f58ff">
<path fill="#f85f58" opacity="1.00" d=" M 714.40 76.36 C 730.61 65.33 752.26 62.06 770.57 69.64 C 770.69 71.62 772.48 75.22 769.98 76.10 C 765.78 74.92 762.08 72.44 757.87 71.26 C 747.68 67.83 736.21 69.06 726.61 73.69 C 717.27 79.18 710.16 88.01 705.76 97.83 C 703.56 102.94 702.73 108.51 700.45 113.58 C 699.71 115.10 698.81 116.83 697.02 117.25 C 694.19 116.16 692.21 113.75 690.03 111.77 C 693.25 97.43 702.09 84.42 714.40 76.36 Z" />
</g>
<g id="#00a717ff">
<path fill="#00a717" opacity="1.00" d=" M 644.93 86.49 C 648.64 80.39 647.56 72.85 650.70 66.51 C 651.83 72.37 649.90 78.16 650.01 84.02 C 650.01 88.69 649.59 93.35 648.67 97.93 C 646.93 104.50 648.48 111.31 648.03 118.00 C 647.84 123.69 649.54 131.07 643.71 134.60 C 641.66 124.17 644.42 113.34 642.10 102.92 C 640.87 97.08 640.42 91.12 639.62 85.22 C 640.57 84.29 641.54 83.36 642.50 82.44 C 643.29 83.79 644.11 85.14 644.93 86.49 Z" />
</g>
<g id="#ffb011ff">
<path fill="#ffb011" opacity="1.00" d=" M 411.87 69.60 C 424.62 67.41 437.26 72.43 447.79 79.28 C 450.35 81.08 453.11 82.60 456.09 83.63 C 458.26 81.07 457.61 77.69 457.37 74.64 C 463.16 78.53 468.57 83.16 472.61 88.90 C 469.26 95.00 471.53 102.97 466.36 108.16 C 463.51 103.81 461.35 98.98 457.94 95.02 C 450.93 88.00 443.65 81.05 434.84 76.29 C 433.81 76.66 432.78 77.03 431.75 77.41 C 417.38 69.06 397.54 73.45 387.42 86.45 C 384.65 89.86 382.65 93.86 381.39 98.06 C 381.53 96.49 381.11 95.11 380.12 93.93 C 374.58 102.48 372.23 112.86 372.74 122.99 C 372.40 132.42 374.15 142.36 379.99 150.02 C 382.09 153.11 385.80 154.27 388.79 156.26 C 390.42 159.54 392.17 162.78 394.27 165.79 C 392.00 166.31 389.76 167.16 387.41 167.22 C 384.28 164.72 380.64 163.00 377.40 160.69 C 373.14 156.22 369.39 151.28 365.65 146.37 C 362.96 142.85 359.29 139.12 354.46 139.51 C 353.28 133.23 353.54 126.82 353.86 120.47 L 354.31 120.71 C 358.13 122.63 361.60 125.15 365.16 127.50 C 368.58 121.83 368.65 115.00 370.79 108.85 C 373.87 99.99 378.48 91.66 384.31 84.30 C 391.44 76.45 401.11 70.47 411.87 69.60 Z" />
</g>
<g id="#4887f9ff">
<path fill="#4887f9" opacity="1.00" d=" M 545.34 70.78 C 549.91 70.37 554.42 69.31 559.03 69.43 C 571.50 69.44 583.98 69.34 596.45 69.49 L 595.56 69.59 C 592.32 70.01 588.91 70.31 586.07 72.09 C 582.81 73.94 579.73 76.37 575.98 77.13 C 571.61 76.73 567.58 74.77 563.38 73.63 C 557.56 71.75 551.42 71.23 545.33 71.22 L 545.34 70.78 Z" />
</g>
<g id="#1748efff">
<path fill="#1748ef" opacity="1.00" d=" M 596.45 69.49 C 603.90 69.22 611.36 69.40 618.81 69.41 C 618.26 69.73 617.16 70.39 616.61 70.72 C 612.31 73.41 608.10 76.25 603.57 78.52 C 598.28 78.60 592.97 78.49 587.76 77.54 C 592.35 74.16 597.88 72.56 603.06 70.33 C 600.56 70.05 598.06 69.76 595.56 69.59 L 596.45 69.49 Z" />
</g>
<g id="#f0383bff">
<path fill="#f0383b" opacity="1.00" d=" M 726.61 73.69 C 736.21 69.06 747.68 67.83 757.87 71.26 C 762.08 72.44 765.78 74.92 769.98 76.10 C 772.48 75.22 770.69 71.62 770.57 69.64 C 775.80 71.97 780.57 75.27 784.55 79.38 C 781.87 82.77 779.81 87.72 775.00 88.37 C 768.95 87.19 766.31 80.70 761.17 77.91 C 754.84 73.19 746.67 72.51 739.09 73.47 C 738.45 73.78 737.18 74.38 736.54 74.68 C 728.60 76.86 721.57 81.74 716.99 88.61 C 713.73 89.80 712.10 92.95 710.79 95.93 C 708.85 99.87 708.74 104.34 707.58 108.52 C 706.20 113.53 706.62 118.78 705.61 123.86 C 704.52 129.42 705.59 135.35 703.14 140.62 C 697.88 137.75 694.89 131.31 688.42 130.70 C 687.94 124.35 688.77 117.98 690.03 111.77 C 692.21 113.75 694.19 116.16 697.02 117.25 C 698.81 116.83 699.71 115.10 700.45 113.58 C 702.73 108.51 703.56 102.94 705.76 97.83 C 710.16 88.01 717.27 79.18 726.61 73.69 Z" />
</g>
<g id="#2767fcff">
<path fill="#2767fc" opacity="1.00" d=" M 12.65 82.09 C 15.03 78.00 16.43 73.39 19.22 69.54 C 18.90 72.73 18.05 75.82 17.04 78.86 C 15.29 84.32 14.89 90.19 12.44 95.42 C 11.04 96.36 10.03 94.76 9.14 93.90 C 7.13 91.56 5.56 88.58 2.35 87.69 C 3.19 83.78 3.80 79.77 5.40 76.08 C 7.64 78.29 10.00 80.38 12.65 82.09 Z" />
</g>
<g id="#e82834ff">
<path fill="#e82834" opacity="1.00" d=" M 235.47 85.90 C 244.01 77.11 255.46 70.33 268.00 70.19 C 276.07 69.75 283.97 72.13 291.09 75.76 C 296.75 78.16 301.44 83.13 307.92 83.26 C 308.16 80.64 308.38 78.02 308.57 75.39 C 314.17 78.95 319.37 83.24 323.53 88.43 C 320.69 93.18 319.94 98.69 319.69 104.12 C 318.30 103.72 316.78 103.38 315.90 102.11 C 309.53 94.48 302.46 87.29 293.91 82.09 C 290.48 80.18 286.98 76.59 282.73 78.18 C 280.66 77.25 278.56 76.41 276.41 75.75 C 268.59 73.16 259.85 74.36 252.46 77.76 C 247.36 80.14 242.41 83.43 239.43 88.33 C 238.42 89.72 237.45 91.13 236.52 92.56 C 234.86 92.46 233.95 93.93 233.12 95.10 C 229.06 101.29 227.71 108.68 226.34 115.82 C 224.78 121.54 224.68 127.51 224.47 133.40 C 224.49 138.04 226.40 143.75 222.05 147.12 C 217.16 143.67 212.68 138.86 206.26 138.70 C 205.26 133.57 205.75 128.31 205.83 123.11 L 206.23 123.33 C 210.12 125.20 213.55 127.85 216.56 130.93 C 217.37 129.97 218.40 129.13 218.86 127.92 C 221.16 121.82 221.36 115.20 223.14 108.96 C 226.15 100.73 230.74 93.23 235.47 85.90 Z" />
</g>
<g id="#3070f8ff">
<path fill="#3070f8" opacity="1.00" d=" M 586.07 72.09 C 588.91 70.31 592.32 70.01 595.56 69.59 C 598.06 69.76 600.56 70.05 603.06 70.33 C 597.88 72.56 592.35 74.16 587.76 77.54 C 592.97 78.49 598.28 78.60 603.57 78.52 C 598.23 80.48 592.32 78.93 586.76 79.52 C 585.11 80.90 583.65 82.66 581.62 83.48 C 576.74 83.35 572.53 80.43 568.11 78.68 C 559.43 74.70 549.34 73.14 540.05 75.82 C 530.02 78.56 523.83 87.67 517.89 95.51 C 513.73 99.96 514.18 107.06 509.36 110.96 C 507.01 108.75 504.86 106.35 502.93 103.77 C 503.88 101.14 505.08 98.61 506.60 96.26 C 507.75 97.98 508.90 99.71 510.06 101.43 C 515.17 96.85 517.88 90.37 522.17 85.11 C 524.00 82.48 526.86 80.41 527.57 77.14 L 527.65 76.90 C 533.20 74.16 539.11 71.68 545.33 71.22 C 551.42 71.23 557.56 71.75 563.38 73.63 C 567.58 74.77 571.61 76.73 575.98 77.13 C 579.73 76.37 582.81 73.94 586.07 72.09 Z" />
</g>
<g id="#f7685fff">
<path fill="#f7685f" opacity="1.00" d=" M 211.08 105.41 C 218.19 88.72 233.16 75.58 250.43 70.16 C 250.36 70.54 250.22 71.30 250.16 71.68 C 244.91 74.76 239.45 77.76 235.33 82.35 C 228.13 89.65 224.58 99.47 218.54 107.58 C 216.42 110.86 212.39 107.95 211.08 105.41 Z" />
</g>
<g id="#02020057">
<path fill="#020200" opacity="0.34" d=" M 603.57 78.52 C 608.10 76.25 612.31 73.41 616.61 70.72 C 616.92 71.32 617.53 72.53 617.84 73.14 C 614.77 75.41 611.19 76.83 607.97 78.85 C 605.81 80.04 603.68 81.73 601.07 81.49 C 597.55 81.88 593.47 80.43 590.41 82.64 L 590.13 82.88 C 588.99 81.77 587.89 80.62 586.76 79.52 C 592.32 78.93 598.23 80.48 603.57 78.52 Z" />
<path fill="#020200" opacity="0.34" d=" M 538.11 199.72 C 547.66 197.59 557.54 196.23 567.33 197.06 C 571.03 199.05 574.20 201.88 577.62 204.31 C 583.38 208.90 589.78 213.40 592.86 220.35 C 588.14 214.67 582.75 209.58 576.74 205.29 C 572.55 202.37 568.57 197.98 563.00 198.43 C 551.70 198.80 540.09 199.94 529.63 204.54 C 522.10 207.90 515.08 213.81 512.74 221.97 C 511.68 227.39 512.20 232.97 512.79 238.41 C 510.33 233.22 509.78 227.15 511.13 221.58 C 514.69 209.55 526.58 202.52 538.11 199.72 Z" />
</g>
<g id="#ffcf48ff">
<path fill="#ffcf48" opacity="1.00" d=" M 360.16 100.93 C 366.92 87.95 378.03 76.99 391.57 71.28 C 391.48 71.66 391.31 72.42 391.23 72.81 C 383.19 79.36 376.76 87.56 371.22 96.27 C 369.77 98.43 368.51 100.83 366.45 102.49 C 364.25 103.64 362.15 101.62 360.16 100.93 Z" />
</g>
<g id="#d8182eff">
<path fill="#d8182e" opacity="1.00" d=" M 736.54 74.68 C 737.18 74.38 738.45 73.78 739.09 73.47 C 746.67 72.51 754.84 73.19 761.17 77.91 C 766.31 80.70 768.95 87.19 775.00 88.37 C 779.81 87.72 781.87 82.77 784.55 79.38 C 790.04 84.81 793.18 91.99 795.63 99.18 C 795.33 99.31 794.72 99.55 794.42 99.67 C 793.84 97.17 793.21 94.68 792.52 92.21 C 788.92 92.27 785.30 92.64 781.92 93.91 C 778.53 95.19 774.70 96.41 772.64 99.62 C 769.91 103.82 766.52 107.55 764.04 111.90 C 754.50 115.75 744.97 119.62 735.44 123.50 C 728.07 126.07 720.07 124.76 712.54 126.36 C 713.14 128.71 713.75 131.07 714.46 133.40 C 715.37 136.48 716.42 139.53 717.60 142.54 C 715.91 142.82 713.48 143.33 712.95 141.08 C 711.12 135.57 709.22 129.57 710.72 123.76 C 711.08 121.98 711.51 120.21 711.87 118.43 C 712.19 120.54 712.41 122.66 712.53 124.79 C 714.76 123.85 717.00 122.96 719.23 122.02 C 722.11 123.39 725.33 123.52 728.36 122.56 C 738.02 119.94 747.14 115.62 755.96 110.97 C 758.99 109.00 763.31 107.14 763.50 102.98 C 765.30 101.79 767.67 100.58 767.77 98.12 C 768.40 91.92 764.75 86.24 760.34 82.24 C 754.38 75.80 745.06 73.41 736.54 74.68 Z" />
</g>
<g id="#522d2eb5">
<path fill="#522d2e" opacity="0.71" d=" M 252.46 77.76 C 259.85 74.36 268.59 73.16 276.41 75.75 C 268.00 74.25 259.17 75.35 251.57 79.31 C 246.95 81.49 243.34 85.16 239.43 88.33 C 242.41 83.43 247.36 80.14 252.46 77.76 Z" />
</g>
<g id="#0000005f">
<path fill="#000000" opacity="0.37" d=" M 387.42 86.45 C 397.54 73.45 417.38 69.06 431.75 77.41 C 433.18 78.36 434.47 79.49 435.79 80.59 C 431.64 79.99 428.24 77.26 424.18 76.39 C 408.73 72.53 391.40 81.10 384.58 95.39 C 382.73 99.08 381.91 103.14 381.19 107.17 C 380.94 105.76 380.61 104.36 380.41 102.94 C 380.63 101.29 380.99 99.67 381.39 98.06 C 382.65 93.86 384.65 89.86 387.42 86.45 Z" />
</g>
<g id="#00020267">
<path fill="#000202" opacity="0.40" d=" M 716.99 88.61 C 721.57 81.74 728.60 76.86 736.54 74.68 C 745.06 73.41 754.38 75.80 760.34 82.24 C 754.46 79.74 748.61 76.27 741.99 76.65 C 733.57 77.44 725.48 81.72 720.27 88.41 C 716.49 92.97 714.73 98.69 713.06 104.26 C 712.88 102.84 712.70 101.42 712.60 99.99 C 713.26 95.94 715.17 92.24 716.99 88.61 Z" />
</g>
<g id="#184ff4ff">
<path fill="#184ff4" opacity="1.00" d=" M 540.05 75.82 C 549.34 73.14 559.43 74.70 568.11 78.68 C 572.53 80.43 576.74 83.35 581.62 83.48 C 583.65 82.66 585.11 80.90 586.76 79.52 C 587.89 80.62 588.99 81.77 590.13 82.88 C 587.95 84.89 586.18 87.28 584.66 89.81 C 587.51 92.01 591.42 93.56 592.88 97.09 C 592.18 102.86 591.11 108.80 588.43 114.03 C 587.32 109.19 586.59 104.18 584.10 99.79 C 582.18 96.40 582.29 92.42 581.31 88.75 C 575.00 84.25 567.72 81.13 560.38 78.67 C 555.38 76.94 549.96 77.15 544.90 78.47 C 535.31 80.12 526.70 87.31 524.64 97.01 C 522.00 109.18 524.56 122.12 529.93 133.21 C 533.17 139.95 537.81 146.27 544.35 150.12 C 544.17 154.67 548.69 156.95 551.27 160.02 C 548.66 160.36 546.04 160.68 543.41 160.63 C 539.03 154.24 531.31 151.82 524.93 148.01 C 520.01 145.10 514.17 141.84 508.34 144.12 L 508.01 144.20 C 501.90 135.09 498.52 123.82 500.47 112.87 C 501.52 112.73 502.58 112.60 503.64 112.46 C 506.00 114.80 508.42 117.07 510.97 119.21 C 513.65 114.90 513.73 109.69 515.25 104.97 C 516.22 101.84 517.16 98.71 517.89 95.51 C 523.83 87.67 530.02 78.56 540.05 75.82 Z" />
</g>
<g id="#09090968">
<path fill="#090909" opacity="0.41" d=" M 251.57 79.31 C 259.17 75.35 268.00 74.25 276.41 75.75 C 278.56 76.41 280.66 77.25 282.73 78.18 C 288.62 81.53 293.90 86.10 297.29 92.04 C 293.01 88.17 289.39 83.41 284.13 80.78 C 276.61 76.53 267.46 76.11 259.20 78.10 C 247.46 81.35 237.51 90.90 234.46 102.78 C 233.05 108.69 232.22 114.81 232.80 120.89 C 232.99 123.12 232.77 125.35 232.55 127.57 C 230.57 115.91 230.95 103.24 236.52 92.56 C 237.45 91.13 238.42 89.72 239.43 88.33 C 243.34 85.16 246.95 81.49 251.57 79.31 Z" />
<path fill="#090909" opacity="0.41" d=" M 524.64 97.01 C 526.70 87.31 535.31 80.12 544.90 78.47 C 549.87 77.93 554.82 79.14 559.33 81.19 C 560.25 82.61 561.53 83.72 562.76 84.87 C 558.71 82.90 554.62 80.52 549.99 80.47 C 538.99 80.07 528.02 88.12 525.80 99.05 C 522.92 110.54 526.39 122.28 529.93 133.21 C 524.56 122.12 522.00 109.18 524.64 97.01 Z" />
</g>
<g id="#f8a004ff">
<path fill="#f8a004" opacity="1.00" d=" M 431.75 77.41 C 432.78 77.03 433.81 76.66 434.84 76.29 C 443.65 81.05 450.93 88.00 457.94 95.02 C 461.35 98.98 463.51 103.81 466.36 108.16 C 471.53 102.97 469.26 95.00 472.61 88.90 C 477.01 94.25 479.98 100.61 482.38 107.06 C 480.50 111.34 477.62 115.32 477.10 120.09 C 475.36 133.20 471.83 146.15 465.93 158.00 C 460.26 166.72 453.82 175.16 445.50 181.54 C 431.64 190.78 412.56 189.16 399.07 180.00 C 389.29 174.08 380.24 166.95 372.21 158.82 C 367.78 154.96 363.56 150.10 357.29 149.59 L 357.00 149.52 C 356.01 146.22 355.04 142.91 354.46 139.51 C 359.29 139.12 362.96 142.85 365.65 146.37 C 369.39 151.28 373.14 156.22 377.40 160.69 C 380.64 163.00 384.28 164.72 387.41 167.22 C 389.76 167.16 392.00 166.31 394.27 165.79 C 399.72 173.65 407.53 180.50 417.15 182.41 C 426.74 184.78 437.19 182.00 444.98 176.09 C 452.52 170.34 456.82 161.24 458.22 152.01 C 459.96 138.13 458.41 123.96 454.33 110.61 C 457.85 103.76 454.25 95.75 449.76 90.29 C 446.06 86.38 442.32 81.60 436.61 80.83 C 436.41 80.77 435.99 80.65 435.79 80.59 C 434.47 79.49 433.18 78.36 431.75 77.41 Z" />
</g>
<g id="#d8102dff">
<path fill="#d8102d" opacity="1.00" d=" M 282.73 78.18 C 286.98 76.59 290.48 80.18 293.91 82.09 C 302.46 87.29 309.53 94.48 315.90 102.11 C 316.78 103.38 318.30 103.72 319.69 104.12 C 319.94 98.69 320.69 93.18 323.53 88.43 C 327.76 93.81 332.07 99.78 333.56 106.49 C 327.24 115.51 328.47 127.05 325.42 137.19 C 322.73 146.33 319.83 155.59 314.72 163.70 C 309.50 171.30 304.19 179.53 295.69 183.79 C 282.72 191.42 265.51 190.80 253.05 182.43 C 250.98 179.90 248.12 178.23 245.81 175.96 C 254.13 178.73 261.26 184.52 269.99 186.11 C 282.39 188.79 295.76 183.43 303.69 173.71 C 304.72 172.78 304.30 171.36 304.38 170.16 C 310.98 159.76 312.01 147.01 311.01 135.02 C 309.72 119.96 305.70 104.76 297.29 92.04 C 293.90 86.10 288.62 81.53 282.73 78.18 Z" />
</g>
<g id="#1748eeff">
<path fill="#1748ee" opacity="1.00" d=" M 544.90 78.47 C 549.96 77.15 555.38 76.94 560.38 78.67 C 567.72 81.13 575.00 84.25 581.31 88.75 C 582.29 92.42 582.18 96.40 584.10 99.79 C 586.59 104.18 587.32 109.19 588.43 114.03 C 591.11 108.80 592.18 102.86 592.88 97.09 C 591.42 93.56 587.51 92.01 584.66 89.81 C 586.18 87.28 587.95 84.89 590.13 82.88 L 590.41 82.64 C 599.78 91.64 605.68 104.40 604.71 117.54 C 600.04 118.31 598.39 122.96 596.32 126.54 C 591.81 134.75 585.64 142.26 582.95 151.32 C 579.14 154.71 575.16 158.80 574.66 164.14 C 574.30 166.71 575.11 169.27 576.69 171.31 C 578.14 173.25 580.01 174.82 581.86 176.39 L 581.30 176.94 C 579.50 178.64 577.57 180.21 575.67 181.78 C 580.06 187.55 585.31 194.00 592.86 195.23 C 594.68 193.26 595.21 190.46 596.30 188.08 C 600.17 190.91 603.21 194.64 606.35 198.22 L 606.25 198.32 C 603.88 200.29 602.18 202.88 600.00 205.03 C 598.34 206.56 596.34 205.21 594.87 204.16 C 587.17 198.54 580.35 191.68 572.02 186.92 C 568.77 185.15 565.00 184.28 561.31 184.51 C 559.30 184.57 558.22 186.58 556.96 187.83 C 551.11 181.21 547.56 171.75 550.96 163.13 L 552.37 162.42 C 554.82 166.79 559.84 169.08 564.75 168.79 C 567.36 163.87 569.66 158.74 573.18 154.37 C 577.95 148.24 580.88 140.70 581.22 132.91 C 581.52 126.19 581.93 119.13 579.31 112.77 C 576.46 101.40 571.08 90.32 561.83 82.82 C 561.06 82.17 560.31 81.47 559.33 81.19 C 554.82 79.14 549.87 77.93 544.90 78.47 Z" />
</g>
<g id="#4787fdff">
<path fill="#4787fd" opacity="1.00" d=" M 506.51 96.13 C 511.66 88.09 518.73 80.98 527.57 77.14 C 526.86 80.41 524.00 82.48 522.17 85.11 C 517.88 90.37 515.17 96.85 510.06 101.43 C 508.90 99.71 507.75 97.98 506.60 96.26 L 506.51 96.13 Z" />
</g>
<g id="#e78805ff">
<path fill="#e78805" opacity="1.00" d=" M 436.61 80.83 C 442.32 81.60 446.06 86.38 449.76 90.29 C 454.25 95.75 457.85 103.76 454.33 110.61 C 450.76 99.54 445.34 88.73 436.61 80.83 Z" />
</g>
<g id="#f03f3eff">
<path fill="#f03f3e" opacity="1.00" d=" M 225.60 99.67 C 228.30 94.72 230.31 88.89 235.47 85.90 C 230.74 93.23 226.15 100.73 223.14 108.96 C 221.36 115.20 221.16 121.82 218.86 127.92 C 218.40 129.13 217.37 129.97 216.56 130.93 C 213.55 127.85 210.12 125.20 206.23 123.33 C 206.34 120.00 207.18 116.78 207.90 113.55 C 210.60 114.19 213.10 115.40 215.23 117.18 C 216.55 116.23 218.00 115.29 218.72 113.76 C 221.17 109.14 223.08 104.26 225.60 99.67 Z" />
</g>
<g id="#e72032ff">
<path fill="#e72032" opacity="1.00" d=" M 710.79 95.93 C 712.10 92.95 713.73 89.80 716.99 88.61 C 715.17 92.24 713.26 95.94 712.60 99.99 C 711.52 106.08 711.50 112.28 711.87 118.43 C 711.51 120.21 711.08 121.98 710.72 123.76 C 709.22 129.57 711.12 135.57 712.95 141.08 C 713.48 143.33 715.91 142.82 717.60 142.54 C 723.22 156.26 733.40 168.60 747.09 174.80 C 752.67 177.48 758.80 178.74 764.94 179.27 C 770.84 179.69 776.62 178.19 782.39 177.21 C 772.94 183.16 761.24 184.44 750.36 182.74 C 740.99 181.08 732.00 177.66 723.50 173.44 C 717.23 169.53 711.52 164.78 706.03 159.86 C 701.99 156.53 698.13 152.30 692.60 151.77 C 690.28 144.97 688.96 137.86 688.42 130.70 C 694.89 131.31 697.88 137.75 703.14 140.62 C 705.59 135.35 704.52 129.42 705.61 123.86 C 706.62 118.78 706.20 113.53 707.58 108.52 C 708.74 104.34 708.85 99.87 710.79 95.93 Z" />
</g>
<g id="#df182eff">
<path fill="#df182e" opacity="1.00" d=" M 233.12 95.10 C 233.95 93.93 234.86 92.46 236.52 92.56 C 230.95 103.24 230.57 115.91 232.55 127.57 C 234.86 144.28 240.16 161.55 252.08 173.98 C 260.44 182.93 273.80 186.98 285.62 183.36 C 293.23 181.39 299.70 176.37 304.38 170.16 C 304.30 171.36 304.72 172.78 303.69 173.71 C 295.76 183.43 282.39 188.79 269.99 186.11 C 261.26 184.52 254.13 178.73 245.81 175.96 C 248.12 178.23 250.98 179.90 253.05 182.43 C 250.48 181.25 247.86 180.11 245.57 178.44 C 238.32 173.08 230.79 168.07 224.05 162.06 C 221.60 159.69 218.32 158.66 215.04 158.10 C 214.58 158.58 213.68 159.54 213.23 160.03 L 213.01 160.25 C 209.98 153.35 207.07 146.26 206.26 138.70 C 212.68 138.86 217.16 143.67 222.05 147.12 C 226.40 143.75 224.49 138.04 224.47 133.40 C 224.68 127.51 224.78 121.54 226.34 115.82 C 227.71 108.68 229.06 101.29 233.12 95.10 Z" />
</g>
<g id="#a80824ff">
<path fill="#a80824" opacity="1.00" d=" M 781.92 93.91 C 785.30 92.64 788.92 92.27 792.52 92.21 C 793.21 94.68 793.84 97.17 794.42 99.67 C 784.30 103.77 774.23 107.98 764.04 111.90 C 766.52 107.55 769.91 103.82 772.64 99.62 C 774.70 96.41 778.53 95.19 781.92 93.91 Z" />
</g>
<g id="#e8970bff">
<path fill="#e8970b" opacity="1.00" d=" M 372.74 122.99 C 372.23 112.86 374.58 102.48 380.12 93.93 C 381.11 95.11 381.53 96.49 381.39 98.06 C 380.99 99.67 380.63 101.29 380.41 102.94 C 377.83 121.01 381.47 139.67 388.79 156.26 C 385.80 154.27 382.09 153.11 379.99 150.02 C 374.15 142.36 372.40 132.42 372.74 122.99 Z" />
</g>
<g id="#2867fcff">
<path fill="#2867fc" opacity="1.00" d=" M 509.36 110.96 C 514.18 107.06 513.73 99.96 517.89 95.51 C 517.16 98.71 516.22 101.84 515.25 104.97 C 513.73 109.69 513.65 114.90 510.97 119.21 C 508.42 117.07 506.00 114.80 503.64 112.46 C 502.58 112.60 501.52 112.73 500.47 112.87 C 500.95 109.75 501.90 106.74 502.93 103.77 C 504.86 106.35 507.01 108.75 509.36 110.96 Z" />
</g>
<g id="#00000060">
<path fill="#000000" opacity="0.38" d=" M 764.04 111.90 C 774.23 107.98 784.30 103.77 794.42 99.67 C 794.72 99.55 795.33 99.31 795.63 99.18 C 795.73 100.64 795.69 102.43 793.93 102.80 C 777.61 109.48 761.25 116.08 744.89 122.65 C 739.76 124.68 734.66 127.32 729.02 127.42 C 724.14 127.38 719.33 128.21 714.47 128.53 C 714.47 130.15 714.46 131.77 714.46 133.40 C 713.75 131.07 713.14 128.71 712.54 126.36 C 720.07 124.76 728.07 126.07 735.44 123.50 C 744.97 119.62 754.50 115.75 764.04 111.90 Z" />
<path fill="#000000" opacity="0.38" d=" M 703.64 171.88 C 705.63 174.05 707.68 176.16 709.79 178.21 C 717.09 184.93 726.13 189.91 735.89 191.91 C 749.07 194.25 763.21 193.96 775.66 188.59 C 778.31 187.37 780.90 186.04 783.41 184.54 C 788.52 181.52 792.03 176.60 796.52 172.81 C 796.49 174.07 796.47 175.34 796.46 176.60 C 792.06 180.77 788.05 185.56 782.47 188.21 C 774.81 192.93 765.80 194.54 756.98 195.43 C 744.19 195.96 730.55 194.53 719.65 187.25 C 714.39 184.03 709.68 180.00 705.56 175.42 C 704.55 174.47 704.03 173.17 703.64 171.88 Z" />
</g>
<g id="#ef2833ff">
<path fill="#ef2833" opacity="1.00" d=" M 756.47 105.91 C 758.78 104.87 761.13 103.90 763.50 102.98 C 763.31 107.14 758.99 109.00 755.96 110.97 C 747.14 115.62 738.02 119.94 728.36 122.56 C 725.33 123.52 722.11 123.39 719.23 122.02 C 721.99 120.79 724.74 119.53 727.58 118.45 C 733.92 118.65 739.56 115.37 745.29 113.12 C 749.22 111.14 754.07 109.95 756.47 105.91 Z" />
</g>
<g id="#b70826ff">
<path fill="#b70826" opacity="1.00" d=" M 333.56 106.49 L 333.89 105.92 C 335.62 110.75 337.05 115.74 337.58 120.86 C 338.37 129.65 337.65 138.56 335.15 147.04 C 334.79 146.68 334.09 145.97 333.74 145.61 C 332.34 146.94 331.03 148.39 330.02 150.05 C 324.54 159.35 318.99 168.72 311.98 176.97 C 310.95 178.41 309.20 179.79 309.70 181.79 C 294.67 191.99 275.60 194.70 257.91 191.89 C 247.71 190.16 237.88 186.01 229.73 179.61 C 226.70 177.14 224.00 174.30 221.13 171.66 C 217.98 168.17 215.23 164.28 213.23 160.03 C 213.68 159.54 214.58 158.58 215.04 158.10 C 218.32 158.66 221.60 159.69 224.05 162.06 C 230.79 168.07 238.32 173.08 245.57 178.44 C 247.86 180.11 250.48 181.25 253.05 182.43 C 265.51 190.80 282.72 191.42 295.69 183.79 C 304.19 179.53 309.50 171.30 314.72 163.70 C 319.83 155.59 322.73 146.33 325.42 137.19 C 328.47 127.05 327.24 115.51 333.56 106.49 Z" />
</g>
<g id="#e78001ff">
<path fill="#e78001" opacity="1.00" d=" M 482.38 107.06 C 485.03 114.89 485.88 123.17 485.50 131.41 C 484.04 132.28 482.14 132.72 481.27 134.32 C 478.63 138.64 477.22 143.56 475.00 148.08 C 469.32 159.74 462.69 171.25 453.18 180.23 C 452.19 181.13 451.56 182.31 451.45 183.65 C 441.38 189.09 429.88 191.46 418.49 191.56 C 413.73 188.77 408.05 188.36 403.14 185.90 C 393.33 182.04 385.29 175.06 376.37 169.64 C 373.47 167.74 370.03 167.00 366.60 167.29 L 366.15 166.73 C 362.39 161.51 359.01 155.84 357.29 149.59 C 363.56 150.10 367.78 154.96 372.21 158.82 C 380.24 166.95 389.29 174.08 399.07 180.00 C 412.56 189.16 431.64 190.78 445.50 181.54 C 453.82 175.16 460.26 166.72 465.93 158.00 C 471.83 146.15 475.36 133.20 477.10 120.09 C 477.62 115.32 480.50 111.34 482.38 107.06 Z" />
</g>
<g id="#3068f6ff">
<path fill="#3068f6" opacity="1.00" d=" M 579.31 112.77 C 581.93 119.13 581.52 126.19 581.22 132.91 C 580.88 140.70 577.95 148.24 573.18 154.37 C 569.66 158.74 567.36 163.87 564.75 168.79 C 559.84 169.08 554.82 166.79 552.37 162.42 C 551.99 161.62 551.62 160.82 551.27 160.02 C 548.69 156.95 544.17 154.67 544.35 150.12 C 547.69 151.97 551.42 152.93 555.19 153.36 C 553.67 153.52 552.15 153.79 550.65 154.06 C 553.30 157.38 557.61 160.15 561.99 159.32 C 565.26 156.45 569.74 153.67 570.61 149.12 C 574.65 146.09 578.18 142.16 579.51 137.17 C 581.70 129.23 580.85 120.75 579.31 112.77 Z" />
</g>
<g id="#0f38d6ff">
<path fill="#0f38d6" opacity="1.00" d=" M 596.32 126.54 C 598.39 122.96 600.04 118.31 604.71 117.54 C 604.55 119.04 604.52 120.57 604.16 122.04 C 602.44 126.38 601.51 131.08 598.91 135.03 C 594.85 141.54 588.99 146.70 582.95 151.32 C 585.64 142.26 591.81 134.75 596.32 126.54 Z" />
</g>
<g id="#0a0e0c77">
<path fill="#0a0e0c" opacity="0.47" d=" M 337.58 120.86 C 339.25 122.81 338.54 125.63 338.81 127.99 C 339.25 141.17 335.84 154.48 328.52 165.50 C 317.97 182.44 298.77 193.18 278.99 194.55 C 273.64 194.65 268.29 194.69 262.94 194.47 C 247.69 192.85 233.02 185.73 222.61 174.42 C 221.97 173.58 221.47 172.66 221.13 171.66 C 224.00 174.30 226.70 177.14 229.73 179.61 C 237.88 186.01 247.71 190.16 257.91 191.89 C 275.60 194.70 294.67 191.99 309.70 181.79 C 322.02 173.80 330.92 161.02 335.15 147.04 C 337.65 138.56 338.37 129.65 337.58 120.86 Z" />
</g>
<g id="#0000015f">
<path fill="#000001" opacity="0.37" d=" M 485.17 135.24 C 486.84 130.62 485.73 125.67 486.53 120.91 C 488.13 138.32 483.47 156.59 472.11 170.09 C 462.87 181.57 449.45 189.39 435.03 192.26 C 427.82 194.06 420.33 193.64 412.97 193.54 C 395.41 192.25 378.18 183.70 367.51 169.53 C 366.86 168.69 366.41 167.76 366.15 166.73 L 366.60 167.29 C 378.69 183.19 398.66 192.00 418.49 191.56 C 429.88 191.46 441.38 189.09 451.45 183.65 C 452.48 183.12 453.51 182.58 454.54 182.02 C 456.69 180.99 458.72 179.71 460.41 178.01 C 461.97 176.73 463.48 175.38 465.08 174.14 C 466.36 173.41 467.41 172.36 468.16 171.08 C 477.28 161.17 483.17 148.55 485.17 135.24 Z" />
</g>
<g id="#293357b3">
<path fill="#293357" opacity="0.70" d=" M 598.91 135.03 C 601.51 131.08 602.44 126.38 604.16 122.04 C 604.04 129.33 600.20 136.09 595.78 141.70 C 590.30 149.15 580.95 153.01 576.48 161.28 C 574.73 164.49 575.76 168.04 576.69 171.31 C 575.11 169.27 574.30 166.71 574.66 164.14 C 575.16 158.80 579.14 154.71 582.95 151.32 C 588.99 146.70 594.85 141.54 598.91 135.03 Z" />
</g>
<g id="#d05f00ff">
<path fill="#d05f00" opacity="1.00" d=" M 481.27 134.32 C 482.14 132.72 484.04 132.28 485.50 131.41 C 485.42 132.36 485.25 134.28 485.17 135.24 C 483.17 148.55 477.28 161.17 468.16 171.08 C 466.23 170.38 464.40 172.22 465.08 174.14 C 463.48 175.38 461.97 176.73 460.41 178.01 C 458.32 179.14 456.36 180.50 454.54 182.02 C 453.51 182.58 452.48 183.12 451.45 183.65 C 451.56 182.31 452.19 181.13 453.18 180.23 C 462.69 171.25 469.32 159.74 475.00 148.08 C 477.22 143.56 478.63 138.64 481.27 134.32 Z" />
</g>
<g id="#4077efff">
<path fill="#4077ef" opacity="1.00" d=" M 135.36 134.47 C 136.74 133.59 138.16 132.43 139.91 132.60 C 154.75 132.62 169.59 132.49 184.43 132.68 C 181.35 133.54 177.89 134.12 175.69 136.66 C 173.45 138.69 171.77 141.62 168.89 142.77 C 163.93 141.93 159.94 138.31 155.14 136.84 C 148.88 134.08 141.93 135.48 135.36 134.47 Z" />
</g>
<g id="#275feaff">
<path fill="#275fea" opacity="1.00" d=" M 184.43 132.68 C 186.09 132.51 187.76 132.60 189.42 132.62 C 183.38 135.00 178.68 139.71 174.67 144.68 C 173.08 146.34 171.55 148.68 169.03 148.83 C 164.54 149.25 161.90 144.86 158.63 142.56 C 157.32 156.56 159.03 170.69 157.99 184.71 L 157.29 184.99 C 157.35 171.32 157.28 157.64 157.33 143.97 L 157.43 142.46 C 151.95 137.54 144.11 137.10 137.16 138.19 C 133.53 138.84 129.88 139.44 126.19 139.42 C 129.07 137.48 132.16 135.84 135.36 134.47 C 141.93 135.48 148.88 134.08 155.14 136.84 C 159.94 138.31 163.93 141.93 168.89 142.77 C 171.77 141.62 173.45 138.69 175.69 136.66 C 177.89 134.12 181.35 133.54 184.43 132.68 Z" />
</g>
<g id="#0f3fe0ff">
<path fill="#0f3fe0" opacity="1.00" d=" M 189.42 132.62 C 191.31 132.49 193.20 132.60 195.09 132.65 C 194.77 133.01 194.14 133.74 193.83 134.10 C 191.85 136.36 189.59 138.35 187.52 140.54 C 185.56 142.49 185.63 145.49 185.40 148.06 C 185.13 161.77 185.61 175.50 185.13 189.20 C 184.12 174.71 184.98 160.17 184.61 145.66 C 181.46 147.51 179.17 150.66 178.06 154.10 C 178.16 159.88 177.87 165.76 176.28 171.33 C 173.06 176.96 167.21 180.23 162.74 184.73 C 159.02 188.44 154.91 191.97 149.91 193.81 C 143.81 195.93 137.51 197.71 131.02 197.92 C 113.46 199.83 95.45 199.42 78.40 194.40 C 67.30 191.56 56.97 186.44 46.08 182.93 C 43.14 182.11 39.93 180.93 36.94 182.31 C 33.39 179.69 30.33 176.52 27.08 173.56 C 18.59 164.92 12.29 154.32 7.76 143.13 C 8.37 142.82 9.60 142.20 10.21 141.90 C 13.34 145.13 16.82 147.97 20.62 150.38 C 24.98 155.37 30.22 159.45 34.97 164.05 C 43.22 171.48 52.63 177.58 62.66 182.31 C 70.93 186.71 79.78 190.00 88.92 192.05 C 103.25 195.76 118.23 195.28 132.89 194.49 C 140.72 193.33 149.92 192.78 155.22 186.04 L 155.64 185.60 C 156.06 185.44 156.88 185.14 157.29 184.99 L 157.99 184.71 C 159.03 170.69 157.32 156.56 158.63 142.56 C 161.90 144.86 164.54 149.25 169.03 148.83 C 171.55 148.68 173.08 146.34 174.67 144.68 C 178.68 139.71 183.38 135.00 189.42 132.62 Z" />
</g>
<g id="#1040e5ff">
<path fill="#1040e5" opacity="1.00" d=" M 126.19 139.42 C 129.88 139.44 133.53 138.84 137.16 138.19 C 144.11 137.10 151.95 137.54 157.43 142.46 C 151.47 142.32 145.56 143.26 139.61 143.32 C 135.90 142.70 132.16 143.02 128.49 143.71 C 126.15 143.71 123.82 143.81 121.50 144.04 C 120.18 144.16 118.86 144.22 117.54 144.23 C 120.06 142.08 123.14 140.66 126.19 139.42 Z" />
</g>
<g id="#2c3d73ce">
<path fill="#2c3d73" opacity="0.81" d=" M 128.49 143.71 C 132.16 143.02 135.90 142.70 139.61 143.32 C 135.94 144.09 132.20 144.25 128.49 143.71 Z" />
</g>
<g id="#00000058">
<path fill="#000000" opacity="0.35" d=" M 139.61 143.32 C 145.56 143.26 151.47 142.32 157.43 142.46 L 157.33 143.97 C 154.82 145.35 151.75 144.50 149.00 144.75 C 140.29 145.41 131.57 146.55 122.81 146.37 C 122.49 145.79 121.83 144.63 121.50 144.04 C 123.82 143.81 126.15 143.71 128.49 143.71 C 132.20 144.25 135.94 144.09 139.61 143.32 Z" />
</g>
<g id="#103fdeff">
<path fill="#103fde" opacity="1.00" d=" M 508.34 144.12 C 514.17 141.84 520.01 145.10 524.93 148.01 C 531.31 151.82 539.03 154.24 543.41 160.63 C 536.76 160.55 530.41 158.59 524.08 156.82 C 517.74 154.37 512.17 149.72 508.34 144.12 Z" />
</g>
<g id="#0830ccff">
<path fill="#0830cc" opacity="1.00" d=" M 178.06 154.10 C 179.17 150.66 181.46 147.51 184.61 145.66 C 184.98 160.17 184.12 174.71 185.13 189.20 L 184.33 189.47 C 184.31 185.81 184.17 182.17 183.95 178.52 C 179.88 180.33 175.03 180.45 171.54 183.46 C 167.14 187.07 162.76 190.71 158.07 193.94 C 158.28 194.30 158.71 195.01 158.92 195.37 C 154.15 196.34 149.47 197.77 144.64 198.48 C 129.21 200.86 113.66 203.18 98.00 202.64 C 76.32 201.88 54.18 195.92 36.94 182.31 C 39.93 180.93 43.14 182.11 46.08 182.93 C 56.97 186.44 67.30 191.56 78.40 194.40 C 95.45 199.42 113.46 199.83 131.02 197.92 C 137.51 197.71 143.81 195.93 149.91 193.81 C 154.91 191.97 159.02 188.44 162.74 184.73 C 167.21 180.23 173.06 176.96 176.28 171.33 C 177.87 165.76 178.16 159.88 178.06 154.10 Z" />
</g>
<g id="#90001dff">
<path fill="#90001d" opacity="1.00" d=" M 330.02 150.05 C 331.03 148.39 332.34 146.94 333.74 145.61 C 334.09 145.97 334.79 146.68 335.15 147.04 C 330.92 161.02 322.02 173.80 309.70 181.79 C 309.20 179.79 310.95 178.41 311.98 176.97 C 318.99 168.72 324.54 159.35 330.02 150.05 Z" />
</g>
<g id="#4f87f8ff">
<path fill="#4f87f8" opacity="1.00" d=" M 555.19 153.36 C 560.63 153.43 565.91 151.80 570.61 149.12 C 569.74 153.67 565.26 156.45 561.99 159.32 C 557.61 160.15 553.30 157.38 550.65 154.06 C 552.15 153.79 553.67 153.52 555.19 153.36 Z" />
</g>
<g id="#c70f29ff">
<path fill="#c70f29" opacity="1.00" d=" M 692.60 151.77 C 698.13 152.30 701.99 156.53 706.03 159.86 C 711.52 164.78 717.23 169.53 723.50 173.44 C 732.00 177.66 740.99 181.08 750.36 182.74 C 761.24 184.44 772.94 183.16 782.39 177.21 C 788.00 175.07 793.54 172.78 798.97 170.21 C 798.27 171.18 797.39 172.02 796.52 172.81 C 792.03 176.60 788.52 181.52 783.41 184.54 C 780.90 186.04 778.31 187.37 775.66 188.59 C 771.51 187.03 767.21 188.53 762.98 188.58 C 753.10 189.06 743.19 187.42 733.95 183.93 C 726.56 181.79 719.81 177.83 712.26 176.19 C 711.43 176.86 710.60 177.53 709.79 178.21 C 707.68 176.16 705.63 174.05 703.64 171.88 C 698.77 165.92 695.15 159.01 692.60 151.77 Z" />
</g>
<g id="#30468dd7">
<path fill="#30468d" opacity="0.84" d=" M 524.08 156.82 C 530.41 158.59 536.76 160.55 543.41 160.63 C 546.04 160.68 548.66 160.36 551.27 160.02 C 551.62 160.82 551.99 161.62 552.37 162.42 L 550.96 163.13 L 551.34 162.01 L 551.70 160.99 C 547.00 161.10 542.30 161.01 537.61 161.23 C 533.26 160.85 529.03 159.41 524.96 157.89 L 524.08 156.82 Z" />
</g>
<g id="#26262793">
<path fill="#262627" opacity="0.58" d=" M 537.61 161.23 C 542.30 161.01 547.00 161.10 551.70 160.99 L 551.34 162.01 C 546.90 162.51 541.73 163.35 537.61 161.23 Z" />
</g>
<g id="#d76701ff">
<path fill="#d76701" opacity="1.00" d=" M 366.60 167.29 C 370.03 167.00 373.47 167.74 376.37 169.64 C 385.29 175.06 393.33 182.04 403.14 185.90 C 408.05 188.36 413.73 188.77 418.49 191.56 C 398.66 192.00 378.69 183.19 366.60 167.29 Z" />
</g>
<g id="#285feeff">
<path fill="#285fee" opacity="1.00" d=" M 63.81 170.92 C 73.33 178.29 83.98 184.36 95.61 187.66 C 111.97 192.51 129.51 192.80 146.14 189.19 C 145.76 189.62 145.00 190.49 144.62 190.93 C 142.38 191.79 140.01 192.23 137.64 192.53 C 123.53 194.12 109.11 194.48 95.13 191.63 C 83.99 188.01 71.85 185.20 63.13 176.85 C 63.39 174.88 63.65 172.90 63.81 170.92 Z" />
</g>
<g id="#8f4712de">
<path fill="#8f4712" opacity="0.87" d=" M 465.08 174.14 C 464.40 172.22 466.23 170.38 468.16 171.08 C 467.41 172.36 466.36 173.41 465.08 174.14 Z" />
</g>
<g id="#9f0720ff">
<path fill="#9f0720" opacity="1.00" d=" M 712.26 176.19 C 719.81 177.83 726.56 181.79 733.95 183.93 C 743.19 187.42 753.10 189.06 762.98 188.58 C 767.21 188.53 771.51 187.03 775.66 188.59 C 763.21 193.96 749.07 194.25 735.89 191.91 C 726.13 189.91 717.09 184.93 709.79 178.21 C 710.60 177.53 711.43 176.86 712.26 176.19 Z" />
</g>
<g id="#2058f2ff">
<path fill="#2058f2" opacity="1.00" d=" M 581.30 176.94 L 581.96 176.36 C 586.65 180.37 591.85 183.78 596.30 188.08 C 595.21 190.46 594.68 193.26 592.86 195.23 C 585.31 194.00 580.06 187.55 575.67 181.78 C 577.57 180.21 579.50 178.64 581.30 176.94 Z" />
<path fill="#2058f2" opacity="1.00" d=" M 505.07 212.99 C 507.55 210.06 509.38 206.15 513.33 204.96 C 510.71 208.46 507.84 211.77 505.33 215.35 C 501.68 220.58 501.03 227.13 498.18 232.74 C 494.95 231.15 491.70 229.59 488.42 228.12 C 487.06 233.48 488.18 238.93 489.07 244.26 L 489.19 244.95 C 485.81 237.19 486.30 228.35 489.09 220.50 L 489.57 220.84 C 491.74 222.39 494.01 223.79 496.25 225.25 C 500.34 222.06 501.76 216.83 505.07 212.99 Z" />
</g>
<g id="#005f07ff">
<path fill="#005f07" opacity="1.00" d=" M 644.65 178.77 C 648.59 178.14 652.58 177.51 656.59 177.53 C 661.62 177.82 664.58 183.02 669.53 183.59 C 673.76 184.13 678.34 184.00 682.00 181.52 C 683.31 181.61 684.63 181.71 685.95 181.82 C 685.58 182.09 684.82 182.65 684.44 182.93 C 680.30 184.38 676.71 187.76 672.04 187.19 C 657.97 186.88 643.87 187.70 629.82 186.67 C 630.63 185.61 631.48 184.56 632.31 183.51 C 636.86 183.22 640.20 179.48 644.65 178.77 Z" />
</g>
<g id="#0828bdff">
<path fill="#0828bd" opacity="1.00" d=" M 171.54 183.46 C 175.03 180.45 179.88 180.33 183.95 178.52 C 184.17 182.17 184.31 185.81 184.33 189.47 C 175.90 191.58 167.39 193.42 158.92 195.37 C 158.71 195.01 158.28 194.30 158.07 193.94 C 162.76 190.71 167.14 187.07 171.54 183.46 Z" />
</g>
<g id="#673912c2">
<path fill="#673912" opacity="0.76" d=" M 454.54 182.02 C 456.36 180.50 458.32 179.14 460.41 178.01 C 458.72 179.71 456.69 180.99 454.54 182.02 Z" />
</g>
<g id="#225d26f0">
<path fill="#225d26" opacity="0.94" d=" M 672.04 187.19 C 676.71 187.76 680.30 184.38 684.44 182.93 C 682.36 184.80 680.32 186.70 678.25 188.57 C 665.52 188.79 652.78 188.57 640.05 188.69 C 636.26 188.75 632.49 188.51 628.74 188.04 C 629.01 187.70 629.55 187.02 629.82 186.67 C 643.87 187.70 657.97 186.88 672.04 187.19 Z" />
</g>
<g id="#1040e4ff">
<path fill="#1040e4" opacity="1.00" d=" M 556.96 187.83 C 558.22 186.58 559.30 184.57 561.31 184.51 C 565.00 184.28 568.77 185.15 572.02 186.92 C 580.35 191.68 587.17 198.54 594.87 204.16 C 596.34 205.21 598.34 206.56 600.00 205.03 C 602.18 202.88 603.88 200.29 606.25 198.32 C 607.74 200.37 609.22 202.45 610.20 204.80 C 611.02 207.36 611.76 209.95 612.41 212.57 C 611.27 213.31 609.71 213.66 609.10 215.00 C 606.04 220.50 603.50 226.32 602.53 232.58 C 599.29 242.69 593.21 252.31 584.33 258.35 C 571.26 265.70 555.71 266.97 541.03 265.84 C 531.87 264.47 522.72 262.15 514.71 257.35 C 508.60 254.63 503.55 249.49 496.74 248.47 C 494.90 248.07 493.10 248.83 491.37 249.34 C 490.53 247.68 489.55 246.06 489.07 244.26 C 488.18 238.93 487.06 233.48 488.42 228.12 C 491.70 229.59 494.95 231.15 498.18 232.74 C 501.03 227.13 501.68 220.58 505.33 215.35 C 507.84 211.77 510.71 208.46 513.33 204.96 C 518.33 202.01 522.93 198.23 528.61 196.60 C 535.23 194.00 542.99 194.03 548.67 189.33 C 550.98 188.11 553.81 188.84 556.33 188.56 C 556.49 188.38 556.80 188.01 556.96 187.83 M 537.86 198.67 C 530.33 200.53 522.84 203.73 517.34 209.34 C 514.19 212.70 511.20 216.79 511.13 221.58 C 509.78 227.15 510.33 233.22 512.79 238.41 C 514.05 241.33 515.97 243.94 518.13 246.27 C 516.25 248.79 517.34 251.62 519.40 253.59 C 525.11 258.62 532.41 261.64 539.96 262.50 C 550.61 264.63 561.62 263.56 572.06 260.87 C 580.66 258.48 589.07 253.48 593.15 245.24 C 593.70 243.80 595.51 241.82 593.82 240.49 C 595.96 234.04 596.29 226.41 592.86 220.35 C 589.78 213.40 583.38 208.90 577.62 204.31 C 574.20 201.88 571.03 199.05 567.33 197.06 L 567.47 195.85 C 557.52 195.30 547.55 196.47 537.86 198.67 Z" />
</g>
<g id="#3068f5ff">
<path fill="#3068f5" opacity="1.00" d=" M 528.60 192.33 C 535.09 190.60 541.91 189.42 548.67 189.33 C 542.99 194.03 535.23 194.00 528.61 196.60 C 522.93 198.23 518.33 202.01 513.33 204.96 C 509.38 206.15 507.55 210.06 505.07 212.99 C 501.76 216.83 500.34 222.06 496.25 225.25 C 494.01 223.79 491.74 222.39 489.57 220.84 C 489.82 218.01 491.91 215.62 493.24 213.14 C 494.61 214.62 496.02 217.79 498.54 216.51 C 504.31 212.67 507.24 205.85 512.98 201.93 C 517.63 197.84 523.71 196.06 528.60 192.33 Z" />
</g>
<g id="#477ff7ff">
<path fill="#477ff7" opacity="1.00" d=" M 493.24 213.14 C 501.69 201.83 515.02 195.18 528.60 192.33 C 523.71 196.06 517.63 197.84 512.98 201.93 C 507.24 205.85 504.31 212.67 498.54 216.51 C 496.02 217.79 494.61 214.62 493.24 213.14 Z" />
</g>
<g id="#2e3a63c3">
<path fill="#2e3a63" opacity="0.76" d=" M 537.86 198.67 C 547.55 196.47 557.52 195.30 567.47 195.85 L 567.33 197.06 C 557.54 196.23 547.66 197.59 538.11 199.72 C 526.58 202.52 514.69 209.55 511.13 221.58 C 511.20 216.79 514.19 212.70 517.34 209.34 C 522.84 203.73 530.33 200.53 537.86 198.67 Z" />
</g>
<g id="#28335ab4">
<path fill="#28335a" opacity="0.71" d=" M 610.20 204.80 C 612.36 208.05 612.96 212.01 613.79 215.75 C 614.91 228.74 610.35 241.97 601.29 251.36 C 589.78 263.19 573.35 269.40 557.10 270.68 L 557.12 269.77 C 574.19 268.08 591.57 261.24 602.90 247.94 C 611.16 238.36 615.12 225.04 612.41 212.57 C 611.76 209.95 611.02 207.36 610.20 204.80 Z" />
</g>
<g id="#0f37d3ff">
<path fill="#0f37d3" opacity="1.00" d=" M 609.10 215.00 C 609.71 213.66 611.27 213.31 612.41 212.57 C 615.12 225.04 611.16 238.36 602.90 247.94 C 591.57 261.24 574.19 268.08 557.12 269.77 C 549.87 270.28 542.61 270.19 535.36 270.45 C 526.93 269.87 518.71 267.83 510.75 265.07 C 506.71 263.16 502.82 260.91 499.33 258.09 C 497.81 256.11 496.04 254.33 494.10 252.76 C 492.97 251.80 492.19 250.54 491.37 249.34 C 493.10 248.83 494.90 248.07 496.74 248.47 C 503.55 249.49 508.60 254.63 514.71 257.35 C 522.72 262.15 531.87 264.47 541.03 265.84 C 555.71 266.97 571.26 265.70 584.33 258.35 C 593.21 252.31 599.29 242.69 602.53 232.58 C 603.50 226.32 606.04 220.50 609.10 215.00 Z" />
</g>
<g id="#2758edff">
<path fill="#2758ed" opacity="1.00" d=" M 593.82 240.49 C 595.51 241.82 593.70 243.80 593.15 245.24 C 589.07 253.48 580.66 258.48 572.06 260.87 C 561.62 263.56 550.61 264.63 539.96 262.50 C 532.41 261.64 525.11 258.62 519.40 253.59 C 517.34 251.62 516.25 248.79 518.13 246.27 C 523.23 251.51 529.93 254.92 536.93 256.87 C 547.76 259.83 559.34 260.29 570.37 258.08 C 580.17 256.02 590.12 250.28 593.82 240.49 Z" />
</g>
<g id="#263e99ce">
<path fill="#263e99" opacity="0.81" d=" M 494.10 252.76 C 496.04 254.33 497.81 256.11 499.33 258.09 L 498.07 257.33 C 496.28 256.28 494.96 254.61 494.10 252.76 Z" />
</g>
<g id="#212840a2">
<path fill="#212840" opacity="0.64" d=" M 510.75 265.07 C 518.71 267.83 526.93 269.87 535.36 270.45 C 541.99 271.59 548.73 270.77 555.41 270.81 C 548.86 272.24 542.12 271.59 535.50 271.33 C 527.04 270.43 518.30 269.23 510.75 265.07 Z" />
</g>
<g id="#344892ea">
<path fill="#344892" opacity="0.92" d=" M 535.36 270.45 C 542.61 270.19 549.87 270.28 557.12 269.77 L 557.10 270.68 C 556.68 270.71 555.83 270.78 555.41 270.81 C 548.73 270.77 541.99 271.59 535.36 270.45 Z" />
</g>
</svg>
