<?xml version="1.0" encoding="UTF-8" ?>
<!DOCTYPE svg PUBLIC "-//W3C//DTD SVG 1.1//EN" "http://www.w3.org/Graphics/SVG/1.1/DTD/svg11.dtd">
<svg width="103pt" height="68pt" viewBox="0 0 103 68" version="1.1" xmlns="http://www.w3.org/2000/svg">
<g id="#ffffffff">
<path fill="#ffffff" opacity="1.00" d=" M 0.00 0.00 L 62.05 0.00 C 48.83 1.17 35.66 4.55 24.10 11.18 C 22.85 11.70 22.35 12.97 21.87 14.13 C 31.26 10.06 40.88 6.30 51.07 4.81 C 62.32 3.03 74.30 2.67 85.04 6.99 C 91.05 9.36 96.47 14.39 97.41 21.04 C 98.62 28.09 94.45 34.90 88.82 38.84 C 86.38 40.23 87.59 43.37 87.44 45.63 C 92.67 43.10 97.49 39.35 100.17 34.09 C 104.46 26.46 103.65 15.92 97.20 9.73 C 90.19 2.79 79.96 0.86 70.51 0.00 L 103.00 0.00 L 103.00 68.00 L 0.00 68.00 L 0.00 43.99 C 0.68 51.07 4.85 57.55 10.96 61.17 C 21.67 67.69 34.74 68.32 46.94 67.63 C 60.24 66.57 73.57 63.47 85.45 57.26 C 85.43 54.66 85.43 52.06 85.47 49.45 C 68.34 58.83 48.23 62.35 28.87 60.46 C 21.23 59.51 12.94 57.33 7.83 51.14 C 2.67 44.87 3.27 35.61 6.81 28.70 C 8.27 25.48 11.44 23.05 11.54 19.29 C 5.62 24.11 1.18 30.88 0.00 38.49 L 0.00 0.00 M 78.38 15.94 C 78.61 24.25 78.25 32.57 78.55 40.87 C 78.70 43.62 81.41 45.00 83.81 45.41 C 83.70 35.57 83.74 25.72 83.79 15.88 C 81.99 15.85 80.18 15.88 78.38 15.94 M 14.88 16.63 C 14.92 18.32 14.94 20.01 14.97 21.70 C 16.80 21.69 18.62 21.64 20.45 21.52 C 20.39 19.87 20.34 18.23 20.28 16.59 C 18.48 16.60 16.68 16.61 14.88 16.63 M 46.11 18.85 C 46.15 25.22 46.15 31.60 46.11 37.97 C 46.11 39.89 46.06 42.04 47.48 43.53 C 49.40 45.88 52.72 45.41 55.40 45.50 C 55.40 44.05 55.39 42.60 55.38 41.15 C 54.48 41.08 52.67 40.95 51.77 40.88 C 50.89 36.97 51.62 32.92 51.29 28.96 C 52.65 28.90 54.01 28.85 55.36 28.79 C 55.38 27.39 55.40 25.98 55.41 24.58 C 54.04 24.57 52.67 24.55 51.30 24.52 C 51.34 22.63 51.37 20.74 51.40 18.84 C 49.63 18.85 47.87 18.85 46.11 18.85 M 58.81 27.86 C 55.75 32.20 55.85 38.74 59.20 42.89 C 63.30 47.21 70.47 46.39 74.81 42.86 C 73.80 41.64 72.71 40.50 71.51 39.48 C 68.39 42.77 62.06 41.67 61.62 36.70 C 66.27 36.56 70.93 36.84 75.58 36.52 C 75.31 33.25 75.14 29.65 72.86 27.05 C 69.33 22.81 61.96 23.50 58.81 27.86 M 14.91 24.60 C 14.99 30.08 14.71 35.58 15.03 41.05 C 15.08 43.91 17.83 45.42 20.33 45.84 C 20.30 38.74 20.29 31.65 20.34 24.55 C 18.53 24.57 16.72 24.58 14.91 24.60 M 24.93 24.60 C 25.01 31.42 24.81 38.26 25.00 45.08 C 26.47 46.05 28.62 45.31 30.35 45.45 C 30.23 39.91 30.32 34.37 30.26 28.82 C 32.33 29.11 35.60 27.90 36.76 30.17 C 36.92 35.23 36.81 40.31 36.72 45.38 C 38.55 45.49 40.38 45.52 42.22 45.48 C 42.05 40.31 42.36 35.14 42.08 29.98 C 41.94 27.28 39.73 24.75 36.95 24.66 C 32.95 24.41 28.94 24.64 24.93 24.60 Z" />
<path fill="#ffffff" opacity="1.00" d=" M 61.83 33.09 C 62.00 30.89 63.50 28.50 65.97 28.59 C 68.65 28.18 69.85 30.98 70.35 33.09 C 67.51 33.12 64.67 33.12 61.83 33.09 Z" />
</g>
<g id="#828181ff">
<path fill="#828181" opacity="1.00" d=" M 62.05 0.00 L 70.51 0.00 C 79.96 0.86 90.19 2.79 97.20 9.73 C 103.65 15.92 104.46 26.46 100.17 34.09 C 97.49 39.35 92.67 43.10 87.44 45.63 C 87.59 43.37 86.38 40.23 88.82 38.84 C 94.45 34.90 98.62 28.09 97.41 21.04 C 96.47 14.39 91.05 9.36 85.04 6.99 C 74.30 2.67 62.32 3.03 51.07 4.81 C 40.88 6.30 31.26 10.06 21.87 14.13 C 22.35 12.97 22.85 11.70 24.10 11.18 C 35.66 4.55 48.83 1.17 62.05 0.00 Z" />
<path fill="#828181" opacity="1.00" d=" M 78.38 15.94 C 80.18 15.88 81.99 15.85 83.79 15.88 C 83.74 25.72 83.70 35.57 83.81 45.41 C 81.41 45.00 78.70 43.62 78.55 40.87 C 78.25 32.57 78.61 24.25 78.38 15.94 Z" />
<path fill="#828181" opacity="1.00" d=" M 14.88 16.63 C 16.68 16.61 18.48 16.60 20.28 16.59 C 20.34 18.23 20.39 19.87 20.45 21.52 C 18.62 21.64 16.80 21.69 14.97 21.70 C 14.94 20.01 14.92 18.32 14.88 16.63 Z" />
<path fill="#828181" opacity="1.00" d=" M 46.11 18.85 C 47.87 18.85 49.63 18.85 51.40 18.84 C 51.37 20.74 51.34 22.63 51.30 24.52 C 52.67 24.55 54.04 24.57 55.41 24.58 C 55.40 25.98 55.38 27.39 55.36 28.79 C 54.01 28.85 52.65 28.90 51.29 28.96 C 51.62 32.92 50.89 36.97 51.77 40.88 C 52.67 40.95 54.48 41.08 55.38 41.15 C 55.39 42.60 55.40 44.05 55.40 45.50 C 52.72 45.41 49.40 45.88 47.48 43.53 C 46.06 42.04 46.11 39.89 46.11 37.97 C 46.15 31.60 46.15 25.22 46.11 18.85 Z" />
<path fill="#828181" opacity="1.00" d=" M 0.00 38.49 C 1.18 30.88 5.62 24.11 11.54 19.29 C 11.44 23.05 8.27 25.48 6.81 28.70 C 3.27 35.61 2.67 44.87 7.83 51.14 C 12.94 57.33 21.23 59.51 28.87 60.46 C 48.23 62.35 68.34 58.83 85.47 49.45 C 85.43 52.06 85.43 54.66 85.45 57.26 C 73.57 63.47 60.24 66.57 46.94 67.63 C 34.74 68.32 21.67 67.69 10.96 61.17 C 4.85 57.55 0.68 51.07 0.00 43.99 L 0.00 38.49 Z" />
<path fill="#828181" opacity="1.00" d=" M 58.81 27.86 C 61.96 23.50 69.33 22.81 72.86 27.05 C 75.14 29.65 75.31 33.25 75.58 36.52 C 70.93 36.84 66.27 36.56 61.62 36.70 C 62.06 41.67 68.39 42.77 71.51 39.48 C 72.71 40.50 73.80 41.64 74.81 42.86 C 70.47 46.39 63.30 47.21 59.20 42.89 C 55.85 38.74 55.75 32.20 58.81 27.86 M 61.83 33.09 C 64.67 33.12 67.51 33.12 70.35 33.09 C 69.85 30.98 68.65 28.18 65.97 28.59 C 63.50 28.50 62.00 30.89 61.83 33.09 Z" />
<path fill="#828181" opacity="1.00" d=" M 14.91 24.60 C 16.72 24.58 18.53 24.57 20.34 24.55 C 20.29 31.65 20.30 38.74 20.33 45.84 C 17.83 45.42 15.08 43.91 15.03 41.05 C 14.71 35.58 14.99 30.08 14.91 24.60 Z" />
<path fill="#828181" opacity="1.00" d=" M 24.93 24.60 C 28.94 24.64 32.95 24.41 36.95 24.66 C 39.73 24.75 41.94 27.28 42.08 29.98 C 42.36 35.14 42.05 40.31 42.22 45.48 C 40.38 45.52 38.55 45.49 36.72 45.38 C 36.81 40.31 36.92 35.23 36.76 30.17 C 35.60 27.90 32.33 29.11 30.26 28.82 C 30.32 34.37 30.23 39.91 30.35 45.45 C 28.62 45.31 26.47 46.05 25.00 45.08 C 24.81 38.26 25.01 31.42 24.93 24.60 Z" />
</g>
</svg>
