<?xml version="1.0" encoding="UTF-8" ?>
<!DOCTYPE svg PUBLIC "-//W3C//DTD SVG 1.1//EN" "http://www.w3.org/Graphics/SVG/1.1/DTD/svg11.dtd">
<svg width="293pt" height="194pt" viewBox="0 0 293 194" version="1.1" xmlns="http://www.w3.org/2000/svg">
<g id="#127cc1ff">
<path fill="#127cc1" opacity="1.00" d=" M 187.25 0.00 L 188.70 0.00 C 215.56 0.31 243.81 4.21 266.57 19.51 C 280.65 28.74 290.82 44.12 292.20 61.07 C 295.64 90.42 275.68 119.24 248.60 129.56 C 248.61 124.16 248.50 118.76 248.69 113.36 C 262.66 105.13 273.89 91.31 276.85 75.14 C 279.79 59.74 273.95 43.18 262.33 32.74 C 248.63 20.15 230.07 14.63 212.03 11.98 C 190.42 8.97 168.39 10.06 146.89 13.46 C 118.03 18.12 89.83 27.12 63.78 40.43 C 63.77 38.56 63.76 36.70 63.75 34.83 C 100.82 12.42 144.07 0.98 187.25 0.00 Z" />
<path fill="#127cc1" opacity="1.00" d=" M 223.19 45.32 C 228.25 45.40 233.31 45.19 238.36 45.46 C 238.19 73.38 238.35 101.30 238.28 129.22 C 234.80 128.65 231.19 127.86 228.38 125.58 C 224.63 122.64 223.11 117.69 223.18 113.06 C 223.18 90.48 223.16 67.90 223.19 45.32 Z" />
<path fill="#127cc1" opacity="1.00" d=" M 247.28 50.93 C 246.51 47.36 249.94 44.71 253.26 44.87 C 254.67 45.57 256.00 46.43 257.14 47.53 C 256.45 49.19 256.41 50.86 257.00 52.54 C 254.68 56.38 248.02 55.53 247.28 50.93 M 251.77 47.33 C 253.47 47.32 253.96 46.77 253.23 45.67 C 251.52 45.68 251.03 46.23 251.77 47.33 M 250.15 45.95 C 247.96 47.46 246.98 50.76 248.93 52.82 C 250.20 54.64 252.72 54.04 254.56 54.46 C 253.43 52.78 252.89 50.69 251.28 49.39 C 251.18 50.32 250.97 52.19 250.87 53.12 C 249.85 50.87 250.22 48.34 250.15 45.95 M 251.42 48.18 C 251.75 51.31 254.63 46.67 251.42 48.18 M 253.89 51.62 C 255.58 53.46 256.70 49.88 256.13 48.58 C 254.79 47.17 253.40 50.49 253.89 51.62 Z" />
<path fill="#127cc1" opacity="1.00" d=" M 42.59 47.41 C 47.61 47.39 52.63 47.43 57.66 47.37 C 57.75 52.18 57.69 56.98 57.71 61.79 C 52.68 61.81 47.65 61.78 42.61 61.81 C 42.57 57.01 42.59 52.21 42.59 47.41 Z" />
<path fill="#127cc1" opacity="1.00" d=" M 131.12 53.87 C 136.12 53.86 141.12 53.86 146.11 53.87 C 146.12 59.29 146.11 64.71 146.12 70.13 C 149.91 70.13 153.70 70.12 157.49 70.17 C 157.45 74.23 157.50 78.29 157.43 82.35 C 153.67 82.33 149.91 82.34 146.15 82.31 C 146.11 92.22 146.09 102.12 146.14 112.02 C 146.06 113.97 147.00 116.15 148.99 116.76 C 151.78 117.38 154.66 117.08 157.50 117.18 C 157.45 121.34 157.46 125.49 157.48 129.65 C 151.45 129.46 144.95 130.59 139.40 127.61 C 134.05 124.92 131.14 118.86 131.15 113.02 C 131.08 93.31 131.14 73.59 131.12 53.87 Z" />
<path fill="#127cc1" opacity="1.00" d=" M 0.00 113.27 C 1.58 90.47 14.94 70.24 31.89 55.64 C 31.89 58.29 31.88 60.93 31.83 63.58 C 20.75 75.85 13.37 91.63 11.74 108.13 C 10.35 122.09 14.11 136.89 23.54 147.49 C 34.01 159.44 49.30 165.79 64.44 169.42 C 85.93 174.39 108.21 174.74 130.13 173.35 C 152.47 172.00 174.54 167.56 195.92 161.05 C 212.19 156.01 228.20 149.80 242.94 141.18 C 242.91 148.63 243.01 156.08 242.87 163.53 C 219.76 175.77 194.44 183.33 168.84 188.31 C 145.23 192.79 121.07 194.66 97.07 193.12 C 77.88 191.80 58.57 188.19 41.08 179.93 C 27.05 173.30 14.19 163.05 6.98 149.06 C 2.76 141.20 1.04 132.32 0.00 123.54 L 0.00 113.27 Z" />
<path fill="#127cc1" opacity="1.00" d=" M 170.21 76.17 C 177.20 69.58 187.86 67.57 196.95 70.31 C 203.96 72.43 209.33 78.30 211.85 85.05 C 214.34 91.22 214.41 97.98 214.39 104.54 C 201.69 104.62 188.98 104.66 176.28 104.52 C 176.04 109.47 178.58 114.71 183.28 116.72 C 190.04 119.52 198.40 117.82 203.36 112.37 C 206.48 115.30 209.54 118.31 212.64 121.28 C 207.84 126.08 201.67 129.67 194.82 130.35 C 185.98 131.53 176.10 129.92 169.52 123.47 C 163.04 117.18 161.10 107.71 161.28 99.00 C 161.36 90.68 163.99 81.98 170.21 76.17 M 179.83 84.86 C 177.20 87.28 176.51 90.95 176.17 94.34 C 183.93 94.32 191.70 94.35 199.47 94.32 C 199.03 91.00 198.44 87.45 196.11 84.86 C 192.04 80.20 184.11 80.77 179.83 84.86 Z" />
<path fill="#127cc1" opacity="1.00" d=" M 42.60 70.13 C 47.64 70.14 52.68 70.12 57.72 70.15 C 57.63 90.27 57.84 110.40 57.61 130.53 C 53.79 129.82 49.74 128.87 46.88 126.04 C 43.67 122.95 42.52 118.35 42.59 114.01 C 42.59 99.39 42.58 84.76 42.60 70.13 Z" />
<path fill="#127cc1" opacity="1.00" d=" M 71.12 70.13 C 81.45 70.15 91.78 70.12 102.11 70.14 C 106.80 70.10 111.75 71.44 115.06 74.91 C 118.68 78.59 119.88 83.94 119.87 88.95 C 119.89 102.57 119.88 116.19 119.87 129.81 C 114.86 129.79 109.84 129.80 104.83 129.80 C 104.79 115.86 104.88 101.91 104.79 87.97 C 104.94 85.40 103.23 82.79 100.54 82.53 C 95.76 82.07 90.94 82.47 86.15 82.31 C 86.06 98.14 86.18 113.98 86.08 129.81 C 81.10 129.79 76.11 129.80 71.13 129.80 C 71.11 109.91 71.12 90.02 71.12 70.13 Z" />
</g>
</svg>
