<?xml version="1.0" encoding="UTF-8" ?>
<!DOCTYPE svg PUBLIC "-//W3C//DTD SVG 1.1//EN" "http://www.w3.org/Graphics/SVG/1.1/DTD/svg11.dtd">
<svg width="1642pt" height="351pt" viewBox="0 0 1642 351" version="1.1" xmlns="http://www.w3.org/2000/svg">
<g id="#f25022ff">
<path fill="#f25022" opacity="1.00" d=" M 0.00 0.00 L 166.75 0.00 C 166.75 55.58 166.75 111.17 166.75 166.75 C 111.17 166.75 55.58 166.75 0.00 166.75 L 0.00 0.00 Z" />
</g>
<g id="#7fba00ff">
<path fill="#7fba00" opacity="1.00" d=" M 184.00 0.00 L 350.75 0.00 C 350.75 55.58 350.75 111.17 350.75 166.75 C 295.17 166.76 239.59 166.75 184.01 166.76 C 183.99 111.17 184.00 55.59 184.00 0.00 Z" />
</g>
<g id="#737373ff">
<path fill="#737373" opacity="1.00" d=" M 1503.77 63.76 C 1519.11 53.81 1539.00 52.70 1556.26 57.64 C 1556.23 67.89 1556.24 78.13 1556.26 88.38 C 1547.69 84.60 1537.40 82.25 1528.60 86.60 C 1521.01 90.27 1517.69 99.05 1517.31 107.01 C 1517.13 114.58 1517.30 122.17 1517.25 129.75 C 1534.83 129.76 1552.41 129.74 1569.99 129.76 C 1570.00 118.43 1570.00 107.11 1569.99 95.78 C 1581.90 92.08 1593.82 88.46 1605.75 84.82 C 1605.76 99.80 1605.74 114.77 1605.76 129.75 C 1617.75 129.75 1629.75 129.75 1641.75 129.75 C 1641.75 139.42 1641.75 149.08 1641.75 158.75 C 1629.75 158.76 1617.75 158.74 1605.76 158.76 C 1605.74 182.18 1605.75 205.61 1605.75 229.03 C 1605.91 235.28 1606.21 241.90 1609.51 247.41 C 1611.94 251.43 1616.53 253.53 1621.05 254.18 C 1628.37 255.48 1635.83 252.98 1642.00 249.11 L 1642.00 278.44 C 1630.35 283.99 1616.85 284.94 1604.18 283.33 C 1594.42 281.92 1584.73 277.32 1578.86 269.17 C 1572.02 259.96 1570.20 248.15 1570.01 236.95 C 1569.99 210.89 1570.01 184.82 1570.00 158.75 C 1552.41 158.75 1534.83 158.74 1517.25 158.76 C 1517.25 199.34 1517.25 239.92 1517.24 280.50 C 1505.16 280.50 1493.08 280.50 1481.00 280.50 C 1480.99 239.92 1481.01 199.33 1481.00 158.75 C 1472.66 158.75 1464.33 158.75 1456.01 158.76 C 1455.99 149.09 1456.00 139.42 1456.00 129.75 C 1464.33 129.75 1472.66 129.75 1480.99 129.76 C 1481.36 116.74 1479.67 103.32 1483.72 90.70 C 1486.97 79.73 1494.18 70.00 1503.77 63.76 Z" />
<path fill="#737373" opacity="1.00" d=" M 728.41 66.54 C 735.24 64.75 743.13 65.58 748.76 70.13 C 754.74 74.64 757.75 82.57 756.44 89.94 C 755.33 97.49 749.20 103.65 742.04 105.82 C 730.76 109.60 716.35 103.20 713.94 91.00 C 711.30 80.59 718.16 69.35 728.41 66.54 Z" />
<path fill="#737373" opacity="1.00" d=" M 455.52 70.24 C 472.93 70.26 490.34 70.25 507.75 70.24 C 528.26 122.09 548.73 173.94 569.27 225.77 C 590.48 174.00 611.58 122.18 632.62 70.34 C 649.41 70.13 666.20 70.31 682.99 70.24 C 683.01 140.33 683.00 210.41 683.00 280.50 C 670.83 280.50 658.67 280.50 646.50 280.50 C 646.41 226.53 646.67 172.55 646.37 118.58 C 645.58 119.49 644.92 120.51 644.54 121.66 C 623.64 174.61 602.48 227.45 581.66 280.42 C 573.01 280.59 564.37 280.45 555.73 280.50 C 534.92 228.92 514.15 177.33 493.35 125.75 C 492.35 123.19 491.44 120.58 489.94 118.27 C 489.47 172.35 489.93 226.44 489.71 280.53 C 478.31 280.46 466.90 280.52 455.50 280.50 C 455.51 210.41 455.48 140.32 455.52 70.24 Z" />
<path fill="#737373" opacity="1.00" d=" M 829.95 130.02 C 846.82 125.03 865.04 124.87 882.07 129.21 C 886.46 130.37 890.80 131.85 894.78 134.08 C 894.64 145.61 894.90 157.15 894.65 168.68 C 884.29 160.57 871.35 155.25 858.05 155.72 C 845.03 155.65 832.03 161.61 824.05 171.98 C 814.30 184.29 812.17 201.01 814.26 216.18 C 815.79 228.23 821.78 240.08 832.01 246.99 C 843.38 254.65 858.27 256.37 871.34 252.60 C 879.81 250.30 887.70 246.20 894.74 240.99 C 894.75 251.94 894.77 262.90 894.73 273.85 C 878.84 282.98 859.92 285.13 841.92 283.62 C 824.55 282.01 807.50 274.43 795.68 261.42 C 783.71 248.29 777.29 230.63 776.68 212.98 C 775.98 194.53 779.67 175.43 789.78 159.74 C 798.95 145.35 813.66 134.88 829.95 130.02 Z" />
<path fill="#737373" opacity="1.00" d=" M 1077.58 126.84 C 1092.67 125.26 1108.34 126.03 1122.66 131.43 C 1134.83 136.00 1145.57 144.37 1152.81 155.19 C 1160.63 166.56 1164.40 180.26 1165.51 193.90 C 1166.67 209.49 1165.27 225.56 1159.21 240.10 C 1153.06 255.05 1141.61 267.78 1127.24 275.25 C 1114.88 281.62 1100.82 284.23 1086.98 284.02 C 1072.75 284.19 1058.24 281.27 1045.80 274.18 C 1032.38 266.55 1021.84 254.08 1016.45 239.62 C 1010.64 224.21 1009.94 207.28 1011.99 191.07 C 1014.27 173.28 1022.25 155.82 1036.03 144.03 C 1047.55 133.94 1062.50 128.52 1077.58 126.84 M 1078.52 156.77 C 1071.33 158.38 1064.60 162.13 1059.72 167.68 C 1051.39 176.98 1048.40 189.79 1048.01 201.98 C 1047.54 214.79 1049.24 228.44 1056.85 239.14 C 1062.53 247.52 1072.09 252.81 1082.06 254.05 C 1092.55 255.41 1104.01 254.14 1112.77 247.79 C 1121.05 241.86 1125.44 231.97 1127.35 222.23 C 1129.66 209.55 1129.70 196.27 1126.28 183.79 C 1123.88 174.81 1118.49 166.49 1110.58 161.45 C 1101.15 155.46 1089.27 154.58 1078.52 156.77 Z" />
<path fill="#737373" opacity="1.00" d=" M 1223.56 127.70 C 1240.60 124.37 1258.51 126.56 1274.72 132.56 C 1274.79 143.64 1274.72 154.72 1274.76 165.80 C 1264.92 158.78 1252.93 155.09 1240.93 154.51 C 1234.59 154.26 1227.67 155.39 1222.82 159.78 C 1216.22 165.64 1217.54 177.50 1224.70 182.35 C 1233.80 188.64 1244.66 191.52 1254.42 196.56 C 1262.69 200.78 1270.85 206.06 1276.16 213.87 C 1286.58 229.74 1284.59 252.78 1271.47 266.57 C 1264.87 273.53 1256.21 278.35 1247.01 280.94 C 1225.77 286.79 1202.74 284.06 1182.54 275.75 C 1182.45 264.10 1182.52 252.45 1182.50 240.81 C 1189.95 246.15 1198.17 250.50 1207.04 252.97 C 1217.37 256.02 1228.91 257.21 1239.11 253.08 C 1248.15 249.47 1249.41 235.78 1242.19 229.81 C 1236.96 225.26 1230.43 222.65 1224.20 219.82 C 1214.01 215.51 1203.51 211.21 1195.08 203.84 C 1187.94 197.50 1183.73 188.31 1182.84 178.86 C 1181.64 168.90 1183.22 158.33 1188.77 149.83 C 1196.43 137.82 1209.81 130.40 1223.56 127.70 Z" />
<path fill="#737373" opacity="1.00" d=" M 1364.59 126.84 C 1382.54 124.97 1401.57 126.39 1417.70 135.12 C 1432.84 143.19 1443.99 157.80 1448.83 174.16 C 1452.81 186.98 1453.35 200.59 1452.44 213.90 C 1450.99 231.77 1444.23 249.63 1431.43 262.46 C 1419.61 274.81 1403.00 281.71 1386.17 283.45 C 1369.22 285.13 1351.43 283.66 1336.02 275.90 C 1322.21 269.03 1310.97 257.16 1304.83 243.01 C 1299.62 231.10 1297.73 217.97 1297.98 205.04 C 1298.04 185.34 1303.55 164.88 1316.96 150.00 C 1328.98 136.31 1346.69 128.72 1364.59 126.84 M 1365.59 156.75 C 1357.42 158.52 1349.92 163.19 1344.89 169.88 C 1338.59 178.01 1336.01 188.35 1335.17 198.43 C 1334.45 210.55 1335.20 223.27 1340.86 234.25 C 1344.66 241.71 1350.92 248.00 1358.71 251.23 C 1367.00 254.74 1376.34 255.24 1385.15 253.78 C 1393.91 252.35 1402.27 247.58 1407.21 240.10 C 1414.02 230.15 1415.66 217.77 1415.98 205.99 C 1415.95 196.71 1415.02 187.24 1411.49 178.58 C 1408.04 169.78 1401.06 162.29 1392.27 158.70 C 1383.88 155.23 1374.40 154.99 1365.59 156.75 Z" />
<path fill="#737373" opacity="1.00" d=" M 977.27 131.13 C 986.93 126.15 998.62 126.13 1008.87 129.24 C 1009.18 141.35 1008.89 153.46 1009.02 165.57 C 1002.68 161.10 994.67 159.45 987.03 159.48 C 977.36 159.61 968.73 165.85 963.98 174.02 C 958.69 182.66 956.93 192.95 956.76 202.94 C 956.72 228.80 956.79 254.66 956.73 280.51 C 944.92 280.52 933.12 280.44 921.32 280.56 C 921.12 230.31 921.36 180.07 921.20 129.82 C 933.05 129.66 944.90 129.79 956.75 129.76 C 956.75 138.48 956.74 147.20 956.76 155.93 C 960.78 145.81 967.29 136.13 977.27 131.13 Z" />
<path fill="#737373" opacity="1.00" d=" M 716.75 129.75 C 728.67 129.75 740.58 129.75 752.50 129.75 C 752.50 180.00 752.50 230.25 752.50 280.50 C 740.58 280.50 728.67 280.50 716.75 280.50 C 716.75 230.25 716.75 180.00 716.75 129.75 Z" />
</g>
<g id="#00a4efff">
<path fill="#00a4ef" opacity="1.00" d=" M 0.00 184.00 C 55.58 184.00 111.17 183.99 166.75 184.00 C 166.69 239.67 166.86 295.34 166.67 351.00 L 0.00 351.00 L 0.00 184.00 Z" />
</g>
<g id="#ffb900ff">
<path fill="#ffb900" opacity="1.00" d=" M 184.00 184.00 C 239.59 184.00 295.17 183.99 350.76 184.00 C 350.69 239.67 350.87 295.34 350.67 351.00 L 184.21 351.00 C 183.86 347.00 184.01 342.99 184.00 338.98 C 184.00 287.32 184.00 235.66 184.00 184.00 Z" />
</g>
</svg>
