<?xml version="1.0" encoding="UTF-8" ?>
<!DOCTYPE svg PUBLIC "-//W3C//DTD SVG 1.1//EN" "http://www.w3.org/Graphics/SVG/1.1/DTD/svg11.dtd">
<svg width="144pt" height="31pt" viewBox="0 0 144 31" version="1.1" xmlns="http://www.w3.org/2000/svg">
<g id="#ffffffff">
<path fill="#ffffff" opacity="1.00" d=" M 0.00 0.00 L 144.00 0.00 L 144.00 11.62 C 143.29 11.63 141.87 11.67 141.16 11.68 C 141.05 10.40 140.95 9.12 140.86 7.84 C 140.23 7.98 138.96 8.26 138.33 8.40 C 138.11 9.49 137.89 10.59 137.68 11.69 C 136.14 11.66 134.60 11.63 133.06 11.60 C 133.19 10.55 133.35 9.50 133.55 8.47 C 134.64 8.07 135.75 7.71 136.87 7.40 C 136.84 6.85 136.78 5.74 136.75 5.18 C 134.94 5.37 132.73 4.92 131.40 6.47 C 130.16 7.75 130.15 9.65 129.69 11.26 C 126.73 12.05 128.34 13.88 129.96 15.11 C 130.50 18.23 129.72 21.43 130.29 24.55 C 130.98 24.68 132.35 24.96 133.04 25.10 C 133.44 21.49 133.31 17.86 133.22 14.24 C 134.78 14.22 136.35 14.21 137.91 14.19 C 137.91 17.07 137.63 19.99 138.18 22.84 C 138.90 25.39 142.00 24.79 144.00 25.17 L 144.00 31.00 L 0.00 31.00 L 0.00 30.80 C 4.92 30.81 9.85 30.83 14.77 30.76 C 14.66 25.98 14.71 21.20 14.70 16.41 C 9.80 16.28 4.87 16.80 0.00 16.14 L 0.00 14.78 C 4.88 14.83 9.76 14.77 14.63 14.89 C 14.78 10.05 14.64 5.20 14.76 0.35 C 9.85 0.64 4.82 -0.33 0.00 0.81 L 0.00 0.00 M 16.18 0.88 C 16.36 5.51 16.29 10.15 16.23 14.79 C 21.11 14.83 25.99 14.83 30.87 14.78 C 30.81 10.18 30.74 5.58 30.93 0.98 C 26.01 1.12 21.10 0.94 16.18 0.88 M 63.35 6.38 C 60.91 8.23 64.76 11.15 66.13 8.89 C 67.81 7.28 64.92 5.28 63.35 6.38 M 40.00 6.52 C 40.20 12.61 39.96 18.71 40.15 24.80 C 40.84 24.79 42.24 24.78 42.94 24.78 C 43.38 20.37 42.83 15.94 43.19 11.53 C 45.54 15.64 46.89 20.23 48.66 24.61 C 49.70 24.63 51.20 25.15 51.51 23.70 C 53.58 19.83 54.10 15.16 56.84 11.67 C 56.99 16.04 56.49 20.43 56.94 24.79 C 57.68 24.78 59.16 24.77 59.91 24.76 C 60.22 18.69 59.99 12.60 60.05 6.52 C 58.56 6.81 56.49 5.79 55.38 7.10 C 53.39 11.27 52.09 15.76 49.97 19.88 C 48.19 15.49 46.43 11.10 44.82 6.64 C 43.21 6.54 41.61 6.50 40.00 6.52 M 72.10 11.96 C 67.71 13.84 66.79 20.53 70.42 23.59 C 72.67 25.54 75.86 25.14 78.53 24.50 C 78.61 23.49 78.60 22.49 78.52 21.48 C 77.65 21.76 75.92 22.31 75.06 22.58 C 71.29 22.34 70.15 17.02 72.90 14.81 C 74.61 13.18 76.94 14.32 78.89 14.73 C 79.61 10.65 74.65 10.82 72.10 11.96 M 93.46 11.59 C 88.50 12.81 87.20 20.02 90.73 23.37 C 92.99 25.41 96.51 25.54 99.17 24.23 C 103.61 21.81 103.60 14.16 98.99 11.94 C 97.28 11.13 95.27 11.20 93.46 11.59 M 103.88 14.91 C 103.33 18.64 107.84 19.26 110.05 21.06 C 108.64 23.67 105.74 22.22 103.67 21.54 C 102.70 27.56 114.24 25.45 112.56 20.14 C 111.95 17.55 108.86 17.19 106.98 15.85 C 106.63 12.71 110.51 14.17 112.29 14.43 C 112.88 9.41 104.11 10.78 103.88 14.91 M 118.46 11.65 C 113.96 12.90 112.66 19.07 115.25 22.60 C 117.28 25.33 121.35 25.68 124.27 24.28 C 128.84 21.92 128.82 14.02 124.05 11.88 C 122.30 11.13 120.28 11.19 118.46 11.65 M 62.92 11.65 C 62.98 16.03 62.79 20.41 63.09 24.78 C 63.82 24.78 65.28 24.78 66.01 24.77 C 66.31 20.41 66.07 16.03 66.19 11.66 C 65.37 11.66 63.74 11.65 62.92 11.65 M 80.90 11.60 C 80.94 16.00 80.74 20.40 81.06 24.79 C 81.80 24.78 83.27 24.75 84.00 24.74 C 84.18 21.89 83.92 19.02 84.29 16.19 C 84.94 14.15 87.28 14.22 89.00 14.03 C 88.91 13.51 88.72 12.47 88.62 11.95 C 87.56 10.30 85.70 12.27 84.46 12.72 C 83.53 11.65 82.34 11.28 80.90 11.60 M 16.29 16.40 C 16.25 21.03 16.27 25.66 16.28 30.28 C 21.14 29.81 26.04 29.93 30.91 30.04 C 30.73 25.49 30.87 20.95 30.82 16.40 C 25.98 16.45 21.13 16.45 16.29 16.40 Z" />
<path fill="#ffffff" opacity="1.00" d=" M 94.11 14.21 C 98.74 12.06 101.05 19.38 97.76 21.89 C 95.90 23.38 92.76 22.29 92.25 19.96 C 91.80 17.97 91.95 15.16 94.11 14.21 Z" />
<path fill="#ffffff" opacity="1.00" d=" M 119.25 14.25 C 124.87 11.47 126.60 22.54 120.93 22.54 C 116.68 22.78 115.83 15.90 119.25 14.25 Z" />
<path fill="#ffffff" opacity="1.00" d=" M 140.97 14.26 C 141.73 14.21 143.24 14.10 144.00 14.04 L 144.00 22.57 C 143.27 22.45 141.81 22.21 141.08 22.08 C 140.97 19.48 140.94 16.87 140.97 14.26 Z" />
</g>
<g id="#828181ff">
<path fill="#828181" opacity="1.00" d=" M 0.00 0.81 C 4.82 -0.33 9.85 0.64 14.76 0.35 C 14.64 5.20 14.78 10.05 14.63 14.89 C 9.76 14.77 4.88 14.83 0.00 14.78 L 0.00 0.81 Z" />
<path fill="#828181" opacity="1.00" d=" M 16.18 0.88 C 21.10 0.94 26.01 1.12 30.93 0.98 C 30.74 5.58 30.81 10.18 30.87 14.78 C 25.99 14.83 21.11 14.83 16.23 14.79 C 16.29 10.15 16.36 5.51 16.18 0.88 Z" />
<path fill="#828181" opacity="1.00" d=" M 131.40 6.47 C 132.73 4.92 134.94 5.37 136.75 5.18 C 136.78 5.74 136.84 6.85 136.87 7.40 C 135.75 7.71 134.64 8.07 133.55 8.47 C 133.35 9.50 133.19 10.55 133.06 11.60 C 134.60 11.63 136.14 11.66 137.68 11.69 C 137.89 10.59 138.11 9.49 138.33 8.40 C 138.96 8.26 140.23 7.98 140.86 7.84 C 140.95 9.12 141.05 10.40 141.16 11.68 C 141.87 11.67 143.29 11.63 144.00 11.62 L 144.00 14.04 C 143.24 14.10 141.73 14.21 140.97 14.26 C 140.94 16.87 140.97 19.48 141.08 22.08 C 141.81 22.21 143.27 22.45 144.00 22.57 L 144.00 25.17 C 142.00 24.79 138.90 25.39 138.18 22.84 C 137.63 19.99 137.91 17.07 137.91 14.19 C 136.35 14.21 134.78 14.22 133.22 14.24 C 133.31 17.86 133.44 21.49 133.04 25.10 C 132.35 24.96 130.98 24.68 130.29 24.55 C 129.72 21.43 130.50 18.23 129.96 15.11 C 128.34 13.88 126.73 12.05 129.69 11.26 C 130.15 9.65 130.16 7.75 131.40 6.47 Z" />
<path fill="#828181" opacity="1.00" d=" M 63.35 6.38 C 64.92 5.28 67.81 7.28 66.13 8.89 C 64.76 11.15 60.91 8.23 63.35 6.38 Z" />
<path fill="#828181" opacity="1.00" d=" M 40.00 6.52 C 41.61 6.50 43.21 6.54 44.82 6.64 C 46.43 11.10 48.19 15.49 49.97 19.88 C 52.09 15.76 53.39 11.27 55.38 7.10 C 56.49 5.79 58.56 6.81 60.05 6.52 C 59.99 12.60 60.22 18.69 59.91 24.76 C 59.16 24.77 57.68 24.78 56.94 24.79 C 56.49 20.43 56.99 16.04 56.84 11.67 C 54.10 15.16 53.58 19.83 51.51 23.70 C 51.20 25.15 49.70 24.63 48.66 24.61 C 46.89 20.23 45.54 15.64 43.19 11.53 C 42.83 15.94 43.38 20.37 42.94 24.78 C 42.24 24.78 40.84 24.79 40.15 24.80 C 39.96 18.71 40.20 12.61 40.00 6.52 Z" />
<path fill="#828181" opacity="1.00" d=" M 72.10 11.96 C 74.65 10.82 79.61 10.65 78.89 14.73 C 76.94 14.32 74.61 13.18 72.90 14.81 C 70.15 17.02 71.29 22.34 75.06 22.58 C 75.92 22.31 77.65 21.76 78.52 21.48 C 78.60 22.49 78.61 23.49 78.53 24.50 C 75.86 25.14 72.67 25.54 70.42 23.59 C 66.79 20.53 67.71 13.84 72.10 11.96 Z" />
<path fill="#828181" opacity="1.00" d=" M 93.46 11.59 C 95.27 11.20 97.28 11.13 98.99 11.94 C 103.60 14.16 103.61 21.81 99.17 24.23 C 96.51 25.54 92.99 25.41 90.73 23.37 C 87.20 20.02 88.50 12.81 93.46 11.59 M 94.11 14.21 C 91.95 15.16 91.80 17.97 92.25 19.96 C 92.76 22.29 95.90 23.38 97.76 21.89 C 101.05 19.38 98.74 12.06 94.11 14.21 Z" />
<path fill="#828181" opacity="1.00" d=" M 103.88 14.91 C 104.11 10.78 112.88 9.41 112.29 14.43 C 110.51 14.17 106.63 12.71 106.98 15.85 C 108.86 17.19 111.95 17.55 112.56 20.14 C 114.24 25.45 102.70 27.56 103.67 21.54 C 105.74 22.22 108.64 23.67 110.05 21.06 C 107.84 19.26 103.33 18.64 103.88 14.91 Z" />
<path fill="#828181" opacity="1.00" d=" M 118.46 11.65 C 120.28 11.19 122.30 11.13 124.05 11.88 C 128.82 14.02 128.84 21.92 124.27 24.28 C 121.35 25.68 117.28 25.33 115.25 22.60 C 112.66 19.07 113.96 12.90 118.46 11.65 M 119.25 14.25 C 115.83 15.90 116.68 22.78 120.93 22.54 C 126.60 22.54 124.87 11.47 119.25 14.25 Z" />
<path fill="#828181" opacity="1.00" d=" M 62.92 11.65 C 63.74 11.65 65.37 11.66 66.19 11.66 C 66.07 16.03 66.31 20.41 66.01 24.77 C 65.28 24.78 63.82 24.78 63.09 24.78 C 62.79 20.41 62.98 16.03 62.92 11.65 Z" />
<path fill="#828181" opacity="1.00" d=" M 80.90 11.60 C 82.34 11.28 83.53 11.65 84.46 12.72 C 85.70 12.27 87.56 10.30 88.62 11.95 C 88.72 12.47 88.91 13.51 89.00 14.03 C 87.28 14.22 84.94 14.15 84.29 16.19 C 83.92 19.02 84.18 21.89 84.00 24.74 C 83.27 24.75 81.80 24.78 81.06 24.79 C 80.74 20.40 80.94 16.00 80.90 11.60 Z" />
<path fill="#828181" opacity="1.00" d=" M 0.00 16.14 C 4.87 16.80 9.80 16.28 14.70 16.41 C 14.71 21.20 14.66 25.98 14.77 30.76 C 9.85 30.83 4.92 30.81 0.00 30.80 L 0.00 16.14 Z" />
<path fill="#828181" opacity="1.00" d=" M 16.29 16.40 C 21.13 16.45 25.98 16.45 30.82 16.40 C 30.87 20.95 30.73 25.49 30.91 30.04 C 26.04 29.93 21.14 29.81 16.28 30.28 C 16.27 25.66 16.25 21.03 16.29 16.40 Z" />
</g>
</svg>
