<?xml version="1.0" encoding="UTF-8" ?>
<!DOCTYPE svg PUBLIC "-//W3C//DTD SVG 1.1//EN" "http://www.w3.org/Graphics/SVG/1.1/DTD/svg11.dtd">
<svg width="497pt" height="110pt" viewBox="0 0 497 110" version="1.1" xmlns="http://www.w3.org/2000/svg">
<g id="#0067b3ff">
<path fill="#0067b3" opacity="1.00" d=" M 14.12 14.17 C 23.10 4.96 36.19 0.10 49.00 0.90 C 60.59 1.49 71.87 6.78 79.70 15.35 C 90.01 26.31 94.29 42.57 90.63 57.17 C 87.61 70.03 78.58 81.13 66.89 87.16 C 66.85 94.52 66.89 101.89 66.87 109.25 C 62.60 109.30 58.33 109.28 54.06 109.27 C 54.07 103.35 54.11 97.43 54.13 91.52 C 40.03 93.94 24.88 89.35 14.69 79.28 C 5.49 70.50 0.37 57.69 0.83 44.99 C 1.13 33.53 6.02 22.28 14.12 14.17 M 20.04 33.06 C 13.75 44.98 17.05 60.94 27.62 69.33 C 34.82 75.44 44.99 77.48 54.06 75.00 C 54.06 68.92 54.06 62.85 54.06 56.77 C 58.30 55.55 62.53 54.30 66.77 53.05 C 67.01 57.93 66.76 62.82 66.94 67.70 C 71.95 62.80 75.17 56.09 75.74 49.09 C 77.40 34.55 66.53 19.97 52.11 17.47 C 39.48 14.73 25.68 21.44 20.04 33.06 Z" />
<path fill="#0067b3" opacity="1.00" d=" M 233.00 34.11 C 237.64 22.34 251.01 14.99 263.44 17.33 C 266.80 17.84 269.95 19.16 272.93 20.74 C 271.22 23.73 269.51 26.71 267.82 29.71 C 263.12 27.23 257.39 26.40 252.40 28.52 C 245.34 31.09 240.62 38.64 241.22 46.10 C 241.59 54.12 248.14 61.29 256.08 62.39 C 259.88 63.07 263.73 62.08 267.19 60.53 C 268.87 63.58 270.67 66.57 272.14 69.73 C 263.44 74.12 252.53 74.13 244.20 68.85 C 232.64 62.02 227.56 46.42 233.00 34.11 Z" />
<path fill="#0067b3" opacity="1.00" d=" M 294.13 17.18 C 303.77 16.18 313.80 20.60 319.43 28.52 C 327.81 39.51 326.20 56.61 315.73 65.71 C 305.72 75.45 288.24 75.51 278.13 65.88 C 268.13 57.20 266.05 41.21 273.25 30.15 C 277.74 22.93 285.65 17.97 294.13 17.18 M 290.38 28.68 C 281.31 32.08 276.65 43.52 280.79 52.29 C 284.54 61.54 296.82 65.59 305.39 60.54 C 313.43 56.28 316.91 45.41 312.68 37.31 C 308.94 29.23 298.59 25.17 290.38 28.68 Z" />
<path fill="#0067b3" opacity="1.00" d=" M 341.87 21.91 C 343.22 18.27 347.89 17.51 351.13 18.86 C 353.27 19.73 354.11 22.03 354.98 23.98 C 359.11 33.75 363.46 43.43 367.54 53.23 C 372.67 42.91 376.71 32.08 381.53 21.62 C 383.46 17.29 390.60 17.08 393.06 21.00 C 398.18 31.55 401.94 42.81 407.47 53.13 C 411.80 42.69 416.38 32.35 420.85 21.97 C 422.29 18.10 427.47 17.36 430.76 19.17 C 432.51 20.19 433.19 22.20 433.99 23.94 C 438.12 33.72 442.46 43.41 446.56 53.21 C 451.71 42.90 455.73 32.03 460.58 21.57 C 462.77 16.78 471.14 17.19 472.74 22.28 C 478.69 35.97 484.56 49.70 490.52 63.39 C 491.30 65.25 492.22 67.38 491.32 69.37 C 489.89 73.18 483.73 74.03 481.65 70.38 C 476.29 58.80 471.91 46.74 466.32 35.28 C 461.56 46.78 456.63 58.21 451.71 69.64 C 450.00 73.71 443.16 73.62 441.65 69.44 C 436.88 58.38 432.23 47.27 427.46 36.21 C 427.22 36.20 426.75 36.19 426.51 36.19 C 421.75 47.24 417.10 58.34 412.34 69.39 C 410.90 73.59 404.00 73.85 402.30 69.73 C 397.14 58.33 392.77 46.54 387.31 35.30 C 382.52 46.79 377.60 58.23 372.69 69.66 C 370.98 73.75 364.14 73.57 362.61 69.41 C 357.84 58.36 353.21 47.25 348.42 36.21 C 348.19 36.20 347.72 36.19 347.48 36.18 C 342.63 47.38 337.98 58.68 333.07 69.85 C 331.39 73.85 325.04 73.48 323.28 69.75 C 322.04 67.58 323.16 65.16 324.03 63.10 C 330.03 49.39 335.86 35.61 341.87 21.91 Z" />
<path fill="#0067b3" opacity="1.00" d=" M 99.76 18.73 C 103.20 18.72 106.64 18.72 110.08 18.73 C 110.11 32.71 110.04 46.70 110.12 60.68 C 116.06 60.66 122.01 60.61 127.95 60.71 C 128.14 46.72 127.97 32.73 128.04 18.74 C 131.48 18.72 134.93 18.71 138.37 18.73 C 138.38 34.48 138.36 50.23 138.38 65.98 C 138.73 68.62 136.64 71.58 133.85 71.58 C 124.24 71.64 114.63 71.56 105.02 71.62 C 102.03 71.97 99.37 68.98 99.74 66.07 C 99.77 50.29 99.74 34.51 99.76 18.73 Z" />
<path fill="#0067b3" opacity="1.00" d=" M 165.22 19.04 C 168.74 18.76 172.29 18.80 175.82 19.02 C 183.25 36.54 191.18 53.85 198.67 71.35 C 195.04 71.34 191.41 71.32 187.78 71.36 C 186.06 67.56 184.34 63.75 182.73 59.89 C 174.76 59.68 166.79 59.91 158.82 59.77 C 156.87 63.59 155.15 67.52 153.24 71.37 C 149.61 71.33 145.98 71.35 142.35 71.33 C 149.90 53.87 157.77 36.54 165.22 19.04 M 170.42 32.31 C 167.78 38.64 164.84 44.85 162.26 51.21 C 167.79 51.18 173.32 51.19 178.86 51.19 C 176.00 44.92 173.47 38.49 170.42 32.31 Z" />
<path fill="#0067b3" opacity="1.00" d=" M 202.67 18.73 C 206.11 18.72 209.55 18.72 213.00 18.72 C 213.03 32.73 212.95 46.74 213.04 60.75 C 218.72 60.76 224.41 60.60 230.09 60.79 C 233.00 63.88 234.85 67.99 237.12 71.62 C 227.12 71.54 217.12 71.65 207.12 71.58 C 204.40 71.54 202.30 68.65 202.65 66.04 C 202.67 50.27 202.65 34.50 202.67 18.73 Z" />
<path fill="#0067b3" opacity="1.00" d=" M 485.63 21.73 C 488.61 17.49 495.53 19.17 497.00 23.92 L 497.00 26.14 C 496.23 28.90 494.12 30.97 491.33 31.70 C 491.63 30.82 492.15 30.04 492.46 29.16 C 492.19 27.55 490.70 26.48 489.87 25.17 C 489.69 26.66 489.19 28.04 488.35 29.30 C 488.27 26.56 488.71 23.68 487.46 21.12 C 489.21 21.80 491.10 22.07 492.98 22.18 C 493.12 22.63 493.42 23.54 493.57 24.00 C 491.53 25.71 492.11 28.27 494.79 28.82 C 495.54 26.55 496.21 23.65 494.24 21.78 C 492.51 19.76 489.63 20.11 487.46 21.12 C 484.78 23.74 485.13 28.99 489.16 30.08 C 490.46 30.58 488.08 31.02 487.74 31.43 C 485.09 29.04 483.09 24.94 485.63 21.73 M 489.31 23.25 C 488.26 24.85 491.07 25.75 491.99 24.58 C 493.29 22.97 490.16 21.82 489.31 23.25 Z" />
</g>
</svg>
