<?xml version="1.0" encoding="UTF-8" ?>
<!DOCTYPE svg PUBLIC "-//W3C//DTD SVG 1.1//EN" "http://www.w3.org/Graphics/SVG/1.1/DTD/svg11.dtd">
<svg width="151pt" height="34pt" viewBox="0 0 151 34" version="1.1" xmlns="http://www.w3.org/2000/svg">
<g id="#ffffffff">
<path fill="#ffffff" opacity="1.00" d=" M 0.00 0.00 L 151.00 0.00 L 151.00 34.00 L 0.00 34.00 L 0.00 0.00 M 4.20 23.79 C 7.30 27.35 12.16 28.61 16.74 28.30 C 16.76 29.87 16.75 31.43 16.77 32.99 C 17.71 33.00 19.59 33.00 20.53 33.00 C 20.62 31.01 20.25 28.90 20.92 26.98 C 23.14 24.81 25.95 23.03 27.08 19.98 C 29.92 14.02 27.55 6.34 22.02 2.84 C 18.60 0.30 14.07 0.92 10.10 1.27 C 0.64 3.69 -2.30 16.97 4.20 23.79 M 30.69 5.86 C 30.62 11.21 30.45 16.56 30.82 21.90 C 34.58 22.16 38.36 22.17 42.13 21.93 C 42.58 16.62 42.38 11.28 42.30 5.96 C 41.52 6.01 39.96 6.10 39.18 6.14 C 39.25 10.36 39.39 14.59 39.03 18.80 C 37.32 18.76 35.61 18.74 33.90 18.76 C 33.65 14.55 33.70 10.34 33.83 6.13 C 33.04 6.06 31.47 5.92 30.69 5.86 M 50.41 6.19 C 48.32 11.56 45.68 16.68 43.64 22.07 C 44.45 22.01 46.08 21.90 46.89 21.85 C 47.47 20.72 48.06 19.59 48.65 18.46 C 50.98 18.47 53.30 18.43 55.62 18.35 C 56.18 19.47 56.73 20.60 57.28 21.73 C 58.09 21.84 59.71 22.07 60.52 22.18 C 58.75 16.65 55.94 11.53 53.80 6.13 C 52.67 6.15 51.54 6.17 50.41 6.19 M 61.91 5.92 C 61.88 11.25 61.64 16.59 62.15 21.91 C 65.56 22.13 68.99 22.18 72.41 22.00 C 71.42 18.67 68.13 18.29 65.14 18.74 C 65.06 14.47 65.11 10.20 65.08 5.94 C 64.29 5.93 62.70 5.92 61.91 5.92 M 75.26 6.28 C 70.36 8.45 68.80 15.61 72.58 19.51 C 75.03 22.71 79.41 22.81 83.00 21.90 C 82.66 20.94 82.31 19.99 81.96 19.04 C 79.72 19.27 77.06 19.62 75.31 17.85 C 72.66 15.60 73.20 10.90 76.29 9.31 C 78.03 8.20 80.13 8.86 82.02 9.01 C 82.43 8.02 82.82 7.02 83.21 6.02 C 80.58 5.67 77.75 4.96 75.26 6.28 M 87.18 6.20 C 81.36 8.43 80.24 17.21 85.41 20.75 C 89.97 24.58 97.69 21.77 98.79 15.93 C 100.79 9.50 93.17 3.13 87.18 6.20 M 104.21 7.17 C 102.14 11.52 100.27 15.99 98.54 20.48 C 97.59 22.09 100.67 23.34 101.39 21.60 C 103.29 18.26 104.34 14.52 106.00 11.06 C 108.41 14.64 108.57 19.81 112.03 22.53 C 115.60 19.99 115.84 14.72 118.01 11.06 C 120.38 14.71 120.68 19.67 124.00 22.64 C 127.57 19.99 127.81 14.80 130.03 11.11 C 132.46 14.66 132.60 19.95 136.09 22.55 C 139.61 19.91 139.87 14.77 142.03 11.10 C 144.10 14.58 144.87 18.70 147.16 22.05 C 148.70 23.42 150.58 21.23 149.45 19.66 C 147.29 15.12 145.97 9.99 142.99 5.95 C 142.51 5.97 141.56 6.00 141.09 6.02 C 138.80 9.04 137.89 12.83 136.39 16.27 C 134.10 13.64 133.75 9.98 131.95 7.06 C 131.48 5.78 129.25 5.05 128.61 6.57 C 126.71 9.71 125.74 13.31 124.03 16.56 C 122.45 13.22 121.44 9.60 119.53 6.43 C 119.17 6.23 118.46 5.85 118.10 5.65 C 114.50 7.59 114.49 12.55 112.46 15.79 C 112.25 15.75 111.83 15.67 111.62 15.63 C 110.08 12.65 109.39 9.26 107.52 6.45 C 106.54 5.26 104.60 5.68 104.21 7.17 Z" />
<path fill="#ffffff" opacity="1.00" d=" M 5.52 15.86 C 4.36 10.02 10.10 4.30 15.94 5.56 C 22.77 6.37 25.94 15.86 20.88 20.58 C 20.67 19.10 20.50 17.62 20.35 16.13 C 19.20 17.01 16.50 16.95 16.73 18.97 C 16.68 20.36 16.69 21.76 16.76 23.15 C 11.80 24.37 6.20 21.05 5.52 15.86 Z" />
<path fill="#ffffff" opacity="1.00" d=" M 88.22 9.19 C 91.88 7.06 96.81 10.88 95.82 14.96 C 95.28 18.90 89.91 20.84 87.03 18.02 C 84.09 15.72 84.84 10.67 88.22 9.19 Z" />
<path fill="#ffffff" opacity="1.00" d=" M 49.69 15.97 C 50.31 14.02 50.91 11.97 52.47 10.54 C 53.20 12.20 53.92 13.87 54.66 15.53 C 53.01 15.69 51.35 15.84 49.69 15.97 Z" />
</g>
<g id="#828181ff">
<path fill="#828181" opacity="1.00" d=" M 4.20 23.79 C -2.30 16.97 0.64 3.69 10.10 1.27 C 14.07 0.92 18.60 0.30 22.02 2.84 C 27.55 6.34 29.92 14.02 27.08 19.98 C 25.95 23.03 23.14 24.81 20.92 26.98 C 20.25 28.90 20.62 31.01 20.53 33.00 C 19.59 33.00 17.71 33.00 16.77 32.99 C 16.75 31.43 16.76 29.87 16.74 28.30 C 12.16 28.61 7.30 27.35 4.20 23.79 M 5.52 15.86 C 6.20 21.05 11.80 24.37 16.76 23.15 C 16.69 21.76 16.68 20.36 16.73 18.97 C 16.50 16.95 19.20 17.01 20.35 16.13 C 20.50 17.62 20.67 19.10 20.88 20.58 C 25.94 15.86 22.77 6.37 15.94 5.56 C 10.10 4.30 4.36 10.02 5.52 15.86 Z" />
<path fill="#828181" opacity="1.00" d=" M 30.69 5.86 C 31.47 5.92 33.04 6.06 33.83 6.13 C 33.70 10.34 33.65 14.55 33.90 18.76 C 35.61 18.74 37.32 18.76 39.03 18.80 C 39.39 14.59 39.25 10.36 39.18 6.14 C 39.96 6.10 41.52 6.01 42.30 5.96 C 42.38 11.28 42.58 16.62 42.13 21.93 C 38.36 22.17 34.58 22.16 30.82 21.90 C 30.45 16.56 30.62 11.21 30.69 5.86 Z" />
<path fill="#828181" opacity="1.00" d=" M 50.41 6.19 C 51.54 6.17 52.67 6.15 53.80 6.13 C 55.94 11.53 58.75 16.65 60.52 22.18 C 59.71 22.07 58.09 21.84 57.28 21.73 C 56.73 20.60 56.18 19.47 55.62 18.35 C 53.30 18.43 50.98 18.47 48.65 18.46 C 48.06 19.59 47.47 20.72 46.89 21.85 C 46.08 21.90 44.45 22.01 43.64 22.07 C 45.68 16.68 48.32 11.56 50.41 6.19 M 49.69 15.97 C 51.35 15.84 53.01 15.69 54.66 15.53 C 53.92 13.87 53.20 12.20 52.47 10.54 C 50.91 11.97 50.31 14.02 49.69 15.97 Z" />
<path fill="#828181" opacity="1.00" d=" M 61.91 5.92 C 62.70 5.92 64.29 5.93 65.08 5.94 C 65.11 10.20 65.06 14.47 65.14 18.74 C 68.13 18.29 71.42 18.67 72.41 22.00 C 68.99 22.18 65.56 22.13 62.15 21.91 C 61.64 16.59 61.88 11.25 61.91 5.92 Z" />
<path fill="#828181" opacity="1.00" d=" M 75.26 6.28 C 77.75 4.96 80.58 5.67 83.21 6.02 C 82.82 7.02 82.43 8.02 82.02 9.01 C 80.13 8.86 78.03 8.20 76.29 9.31 C 73.20 10.90 72.66 15.60 75.31 17.85 C 77.06 19.62 79.72 19.27 81.96 19.04 C 82.31 19.99 82.66 20.94 83.00 21.90 C 79.41 22.81 75.03 22.71 72.58 19.51 C 68.80 15.61 70.36 8.45 75.26 6.28 Z" />
<path fill="#828181" opacity="1.00" d=" M 87.18 6.20 C 93.17 3.13 100.79 9.50 98.79 15.93 C 97.69 21.77 89.97 24.58 85.41 20.75 C 80.24 17.21 81.36 8.43 87.18 6.20 M 88.22 9.19 C 84.84 10.67 84.09 15.72 87.03 18.02 C 89.91 20.84 95.28 18.90 95.82 14.96 C 96.81 10.88 91.88 7.06 88.22 9.19 Z" />
<path fill="#828181" opacity="1.00" d=" M 104.21 7.17 C 104.60 5.68 106.54 5.26 107.52 6.45 C 109.39 9.26 110.08 12.65 111.62 15.63 C 111.83 15.67 112.25 15.75 112.46 15.79 C 114.49 12.55 114.50 7.59 118.10 5.65 C 118.46 5.85 119.17 6.23 119.53 6.43 C 121.44 9.60 122.45 13.22 124.03 16.56 C 125.74 13.31 126.71 9.71 128.61 6.57 C 129.25 5.05 131.48 5.78 131.95 7.06 C 133.75 9.98 134.10 13.64 136.39 16.27 C 137.89 12.83 138.80 9.04 141.09 6.02 C 141.56 6.00 142.51 5.97 142.99 5.95 C 145.97 9.99 147.29 15.12 149.45 19.66 C 150.58 21.23 148.70 23.42 147.16 22.05 C 144.87 18.70 144.10 14.58 142.03 11.10 C 139.87 14.77 139.61 19.91 136.09 22.55 C 132.60 19.95 132.46 14.66 130.03 11.11 C 127.81 14.80 127.57 19.99 124.00 22.64 C 120.68 19.67 120.38 14.71 118.01 11.06 C 115.84 14.72 115.60 19.99 112.03 22.53 C 108.57 19.81 108.41 14.64 106.00 11.06 C 104.34 14.52 103.29 18.26 101.39 21.60 C 100.67 23.34 97.59 22.09 98.54 20.48 C 100.27 15.99 102.14 11.52 104.21 7.17 Z" />
</g>
</svg>
