<?xml version="1.0" encoding="UTF-8" ?>
<!DOCTYPE svg PUBLIC "-//W3C//DTD SVG 1.1//EN" "http://www.w3.org/Graphics/SVG/1.1/DTD/svg11.dtd">
<svg width="594pt" height="612pt" viewBox="0 0 594 612" version="1.1" xmlns="http://www.w3.org/2000/svg">
<g id="#000000ff">
<path fill="#000000" opacity="1.00" d=" M 230.82 0.00 L 245.02 0.00 C 282.98 1.30 320.67 11.45 353.80 30.10 C 405.27 58.69 445.44 106.97 463.92 162.90 C 479.66 209.88 480.14 261.82 465.15 309.05 C 454.62 342.64 436.35 373.66 412.55 399.55 C 469.68 456.72 526.75 513.95 583.86 571.14 C 589.11 575.73 593.50 581.72 594.00 588.92 L 594.00 591.66 C 593.39 602.02 584.78 611.17 574.37 612.00 L 570.98 612.00 C 565.89 611.41 561.06 609.10 557.48 605.43 C 498.46 546.50 439.57 487.44 380.48 428.58 C 351.10 450.66 316.51 465.81 280.30 472.19 C 228.58 481.61 173.80 473.27 127.35 448.61 C 98.03 433.17 72.02 411.51 51.44 385.54 C 28.49 356.64 12.36 322.34 4.92 286.18 C 2.06 272.69 0.69 258.95 0.00 245.19 L 0.00 230.97 C 1.02 204.30 6.10 177.75 15.77 152.84 C 35.16 102.13 72.53 58.60 119.63 31.61 C 153.33 12.06 191.93 1.37 230.82 0.00 M 221.52 43.77 C 177.75 47.32 135.54 66.42 103.81 96.75 C 77.30 121.87 58.02 154.57 49.07 190.00 C 39.64 227.02 41.39 266.84 54.20 302.85 C 66.26 337.08 88.18 367.72 116.56 390.33 C 141.50 410.31 171.43 424.01 202.87 429.71 C 236.57 435.86 271.89 433.04 304.13 421.41 C 341.03 408.17 373.68 383.44 396.50 351.57 C 421.96 316.35 434.93 272.41 432.79 229.01 C 431.32 195.22 420.76 161.89 402.51 133.41 C 382.97 102.78 354.77 77.71 321.96 62.08 C 290.90 47.16 255.83 40.84 221.52 43.77 Z" />
</g>
</svg>
