<?xml version="1.0" encoding="UTF-8" ?>
<!DOCTYPE svg PUBLIC "-//W3C//DTD SVG 1.1//EN" "http://www.w3.org/Graphics/SVG/1.1/DTD/svg11.dtd">
<svg width="62pt" height="19pt" viewBox="0 0 62 19" version="1.1" xmlns="http://www.w3.org/2000/svg">
<g id="#ffffffff">
<path fill="#ffffff" opacity="1.00" d=" M 6.84 0.00 L 9.31 0.00 C 12.73 0.68 12.90 5.85 9.25 6.18 C 9.46 4.74 9.75 3.31 9.90 1.87 C 7.94 -0.09 5.38 2.74 6.01 4.86 C 7.06 8.01 10.92 9.49 11.35 12.94 C 11.37 15.63 9.61 17.72 7.31 18.89 C 6.65 18.31 6.00 17.73 5.34 17.15 C 7.51 17.19 8.35 14.71 7.96 12.98 C 7.06 10.04 4.03 8.12 3.70 4.94 C 3.51 2.71 5.25 1.22 6.84 0.00 Z" />
<path fill="#ffffff" opacity="1.00" d=" M 31.08 4.08 C 30.77 1.01 34.78 1.62 34.04 4.29 L 33.56 4.81 C 32.23 8.54 32.57 12.79 31.64 16.69 C 35.55 17.36 35.24 12.18 36.17 9.66 C 35.95 9.27 35.49 8.48 35.27 8.09 C 36.75 6.18 37.18 2.75 40.30 3.15 C 40.09 4.06 39.69 5.88 39.48 6.79 L 41.90 7.47 C 40.97 7.94 40.03 8.41 39.08 8.85 C 38.46 11.57 37.94 14.32 37.63 17.10 C 38.38 16.80 39.89 16.20 40.64 15.90 C 41.32 12.96 41.69 9.45 44.49 7.66 C 46.02 6.52 49.02 6.06 50.02 8.08 C 51.40 9.65 48.79 10.89 47.78 11.58 C 47.84 10.77 47.94 9.16 47.99 8.35 C 44.58 9.06 43.51 12.92 44.17 15.93 C 46.17 18.16 49.07 16.31 50.98 14.95 C 51.58 11.66 52.31 8.40 53.07 5.14 C 52.78 4.59 52.20 3.51 51.91 2.97 C 53.34 2.56 54.77 2.17 56.23 1.92 C 56.13 4.30 55.54 6.62 54.91 8.91 C 56.46 7.67 58.78 5.86 60.39 8.12 C 60.65 11.15 59.55 14.08 59.21 17.06 C 59.91 16.71 61.30 15.99 61.99 15.63 C 61.87 17.47 60.86 18.60 58.97 19.00 L 57.64 19.00 C 54.78 16.45 57.72 12.46 57.61 9.31 C 52.97 10.24 54.29 15.80 52.26 19.00 L 50.34 19.00 C 50.39 18.51 50.49 17.53 50.54 17.05 C 48.79 17.13 47.22 17.96 45.86 19.00 L 44.29 19.00 C 43.20 18.41 42.15 17.74 41.10 17.08 C 39.90 17.73 38.70 18.40 37.47 19.00 L 35.46 19.00 C 35.38 18.50 35.21 17.50 35.13 17.00 C 33.74 17.04 32.74 18.12 31.80 19.00 L 29.60 19.00 C 27.33 15.79 30.37 11.78 29.99 8.18 C 27.76 11.83 27.16 16.67 23.13 19.00 L 21.59 19.00 C 21.18 17.64 20.78 16.27 20.41 14.90 C 19.39 16.36 18.32 17.80 17.00 19.00 L 15.44 19.00 C 13.13 15.56 14.84 11.33 13.51 7.65 C 14.86 7.24 16.21 6.86 17.57 6.50 C 17.25 9.95 16.57 13.50 17.68 16.89 C 19.65 13.99 20.14 10.51 21.29 7.28 C 21.91 7.06 23.17 6.63 23.80 6.41 C 23.28 9.91 22.55 13.48 23.68 16.95 C 26.85 14.09 27.93 9.67 25.68 5.93 C 27.30 3.26 28.83 6.76 29.83 8.10 C 30.58 7.16 32.27 6.13 31.32 4.73 L 31.08 4.08 Z" />
<path fill="#ffffff" opacity="1.00" d=" M 0.52 13.98 C 0.38 10.96 5.41 8.55 6.28 12.26 C 4.79 12.29 2.52 13.04 2.99 15.00 C 3.60 16.78 5.67 17.57 6.80 18.99 C 3.73 19.72 -0.03 17.35 0.52 13.98 Z" />
</g>
</svg>
