<?xml version="1.0" encoding="UTF-8" ?>
<!DOCTYPE svg PUBLIC "-//W3C//DTD SVG 1.1//EN" "http://www.w3.org/Graphics/SVG/1.1/DTD/svg11.dtd">
<svg width="92pt" height="47pt" viewBox="0 0 92 47" version="1.1" xmlns="http://www.w3.org/2000/svg">
<g id="#111111ff">
<path fill="#111111" opacity="1.00" d=" M 0.00 0.00 L 45.89 0.00 C 46.09 5.25 45.90 10.50 45.96 15.75 C 40.88 15.73 35.80 15.73 30.71 15.74 C 30.73 26.16 30.78 36.58 30.69 47.00 L 15.44 47.00 C 15.41 36.58 15.38 26.17 15.46 15.75 C 10.30 15.69 5.15 15.82 0.00 15.65 L 0.00 0.00 Z" />
<path fill="#111111" opacity="1.00" d=" M 61.44 0.00 L 92.00 0.00 L 92.00 15.69 C 81.79 15.79 71.57 15.72 61.36 15.72 C 61.42 10.48 61.30 5.24 61.44 0.00 Z" />
<path fill="#111111" opacity="1.00" d=" M 46.01 15.74 C 51.11 15.77 56.22 15.77 61.33 15.74 C 61.44 20.97 61.30 26.21 61.40 31.44 C 71.60 31.33 81.80 31.36 92.00 31.43 L 92.00 47.00 L 46.06 47.00 C 46.02 36.58 46.13 26.16 46.01 15.74 Z" />
</g>
<g id="#ffffffff">
<path fill="#ffffff" opacity="1.00" d=" M 45.89 0.00 L 61.44 0.00 C 61.30 5.24 61.42 10.48 61.36 15.72 C 71.57 15.72 81.79 15.79 92.00 15.69 L 92.00 31.43 C 81.80 31.36 71.60 31.33 61.40 31.44 C 61.30 26.21 61.44 20.97 61.33 15.74 C 56.22 15.77 51.11 15.77 46.01 15.74 C 46.13 26.16 46.02 36.58 46.06 47.00 L 30.69 47.00 C 30.78 36.58 30.73 26.16 30.71 15.74 C 35.80 15.73 40.88 15.73 45.96 15.75 C 45.90 10.50 46.09 5.25 45.89 0.00 Z" />
<path fill="#ffffff" opacity="1.00" d=" M 0.00 15.65 C 5.15 15.82 10.30 15.69 15.46 15.75 C 15.38 26.17 15.41 36.58 15.44 47.00 L 0.00 47.00 L 0.00 15.65 Z" />
</g>
</svg>
