<?xml version="1.0" encoding="UTF-8" ?>
<!DOCTYPE svg PUBLIC "-//W3C//DTD SVG 1.1//EN" "http://www.w3.org/Graphics/SVG/1.1/DTD/svg11.dtd">
<svg width="87pt" height="68pt" viewBox="0 0 87 68" version="1.1" xmlns="http://www.w3.org/2000/svg">
<g id="#54d154ff">
<path fill="#54d154" opacity="1.00" d=" M 18.29 8.22 C 30.25 -0.27 46.65 -2.06 60.08 3.92 C 69.89 8.03 78.00 15.96 82.27 25.71 C 87.74 37.47 87.24 51.74 81.20 63.20 C 80.17 65.10 79.21 67.35 76.94 68.00 L 9.41 68.00 C 8.85 67.80 7.72 67.41 7.16 67.21 C 2.92 60.36 0.23 52.55 0.00 44.46 L 0.00 41.51 C 0.68 28.41 7.42 15.66 18.29 8.22 M 40.23 7.17 C 36.58 8.95 35.70 14.47 38.91 17.08 C 42.02 20.43 48.18 18.49 49.05 14.07 C 50.54 9.24 44.58 4.57 40.23 7.17 M 19.15 16.16 C 14.83 17.78 14.06 24.51 18.10 26.87 C 21.81 29.85 27.81 26.61 27.69 21.96 C 27.93 17.69 23.03 14.35 19.15 16.16 M 62.09 16.17 C 58.16 17.88 57.09 23.76 60.57 26.46 C 63.68 29.51 69.40 27.75 70.50 23.60 C 72.23 18.84 66.60 14.03 62.09 16.17 M 47.49 24.29 C 45.49 30.50 44.11 36.91 42.35 43.20 C 37.94 43.83 34.02 47.39 33.82 51.98 C 33.15 58.62 40.94 64.01 46.90 60.90 C 53.38 58.29 54.04 48.63 48.32 44.81 C 49.78 38.46 51.89 32.26 53.14 25.87 C 53.55 22.86 48.77 21.45 47.49 24.29 M 10.37 37.47 C 6.04 38.75 4.65 45.06 8.22 47.90 C 11.36 51.03 17.28 49.21 18.24 44.91 C 19.75 40.42 14.75 35.81 10.37 37.47 M 71.46 37.62 C 67.61 39.11 66.34 44.71 69.41 47.57 C 72.38 51.10 78.74 49.40 79.76 44.98 C 81.33 40.31 75.95 35.53 71.46 37.62 Z" />
</g>
</svg>
