<?xml version="1.0" encoding="UTF-8" ?>
<!DOCTYPE svg PUBLIC "-//W3C//DTD SVG 1.1//EN" "http://www.w3.org/Graphics/SVG/1.1/DTD/svg11.dtd">
<svg width="173pt" height="136pt" viewBox="0 0 173 136" version="1.1" xmlns="http://www.w3.org/2000/svg">
<g id="#54d154ff">
<path fill="#54d154" opacity="1.00" d=" M 39.54 14.49 C 55.03 4.60 73.66 -0.40 92.03 0.98 C 114.88 2.54 137.01 13.57 151.80 31.08 C 163.51 45.06 170.87 62.77 172.01 81.00 C 173.32 99.10 168.65 117.63 158.74 132.85 C 157.61 134.94 155.22 135.63 153.04 136.00 L 20.76 136.00 C 18.30 135.76 15.27 135.66 13.83 133.28 C 5.19 120.35 0.59 104.93 0.00 89.43 L 0.00 84.71 C 0.72 56.75 15.69 29.32 39.54 14.49 M 82.37 13.59 C 77.46 15.14 73.70 20.04 73.86 25.25 C 73.59 31.82 79.57 37.66 86.07 37.54 C 93.04 37.76 99.27 31.08 98.36 24.11 C 97.91 16.59 89.48 11.03 82.37 13.59 M 39.21 32.04 C 34.51 33.49 31.00 38.11 30.79 43.02 C 30.29 49.35 35.51 55.47 41.87 55.86 C 49.05 56.86 56.09 50.20 55.28 42.93 C 55.18 35.21 46.45 29.34 39.21 32.04 M 124.39 32.39 C 119.91 34.34 116.58 39.07 116.95 44.06 C 116.84 51.41 124.58 57.42 131.69 55.69 C 138.20 54.56 142.84 47.43 141.18 41.02 C 139.82 33.74 131.11 29.28 124.39 32.39 M 94.05 51.07 C 90.93 62.95 87.73 74.81 84.63 86.69 C 79.68 87.35 74.78 89.59 71.68 93.60 C 67.26 99.00 66.43 107.05 69.62 113.24 C 72.10 118.56 77.36 122.29 83.11 123.26 C 92.02 125.00 101.68 118.88 103.85 110.05 C 106.14 102.62 102.95 94.11 96.54 89.79 C 99.68 77.49 103.16 65.27 106.20 52.94 C 107.48 48.54 102.33 43.98 98.15 45.90 C 95.86 46.63 94.52 48.83 94.05 51.07 M 20.27 75.18 C 14.83 77.08 11.34 83.21 12.52 88.86 C 13.50 95.02 19.77 99.67 25.95 98.82 C 32.89 98.30 38.23 91.03 36.66 84.24 C 35.46 77.01 27.03 72.40 20.27 75.18 M 143.21 75.20 C 138.56 76.96 135.19 81.75 135.38 86.78 C 135.20 93.79 142.04 99.82 148.96 98.82 C 155.98 98.32 161.42 90.86 159.66 84.00 C 158.28 76.84 149.93 72.42 143.21 75.20 Z" />
</g>
</svg>
