<?xml version="1.0" encoding="UTF-8" ?>
<!DOCTYPE svg PUBLIC "-//W3C//DTD SVG 1.1//EN" "http://www.w3.org/Graphics/SVG/1.1/DTD/svg11.dtd">
<svg width="335pt" height="45pt" viewBox="0 0 335 45" version="1.1" xmlns="http://www.w3.org/2000/svg">
<g id="#ffffffff">
<path fill="#ffffff" opacity="1.00" d=" M 0.00 0.00 L 19.62 0.00 C 21.10 0.42 22.23 1.29 22.10 2.98 C 18.09 4.78 14.03 1.81 10.06 1.19 C 6.43 -0.24 1.36 1.80 0.92 5.98 C 0.51 8.12 2.41 9.53 3.53 11.05 C 3.29 9.88 3.05 8.71 2.80 7.54 C 4.05 7.02 5.34 6.16 6.77 6.55 C 10.94 7.31 14.96 8.77 19.19 9.26 C 19.37 11.19 19.62 13.10 19.87 15.02 C 18.86 15.93 17.85 16.84 16.84 17.75 C 17.82 18.48 18.80 19.21 19.77 19.94 C 19.73 22.75 19.59 25.56 19.83 28.37 C 15.63 29.92 11.11 29.35 7.52 26.66 C 9.98 25.07 12.54 23.64 15.14 22.29 C 15.06 18.16 15.08 14.02 15.10 9.89 C 12.03 11.22 8.98 12.63 5.71 13.41 C 7.08 11.74 8.56 10.17 9.99 8.55 C 5.29 9.93 1.52 13.63 0.00 18.29 L 0.00 0.00 Z" />
<path fill="#ffffff" opacity="1.00" d=" M 22.47 0.00 L 254.73 0.00 C 256.21 0.43 257.25 1.38 257.29 3.02 C 253.15 4.72 249.06 1.82 245.00 1.15 C 241.42 -0.20 236.33 1.91 236.07 6.07 C 235.67 8.15 237.45 9.53 238.59 10.99 C 238.35 9.86 238.11 8.74 237.86 7.62 C 239.09 7.07 240.34 6.15 241.77 6.54 C 246.08 7.31 250.26 8.70 254.55 9.59 C 254.58 12.56 254.76 15.77 252.05 17.69 C 252.84 18.45 253.64 19.21 254.44 19.98 C 254.41 22.78 254.43 25.59 254.51 28.40 C 252.11 28.89 249.60 29.81 247.17 28.99 C 241.44 27.20 238.19 19.96 240.71 14.49 C 241.50 12.07 243.44 10.36 245.07 8.50 C 238.63 10.43 233.36 17.18 235.19 24.06 C 236.58 31.77 246.01 36.42 253.01 33.02 C 257.55 31.31 259.68 26.53 260.37 22.05 C 258.77 24.01 257.24 26.02 255.64 27.97 C 255.58 25.27 255.59 22.57 255.56 19.88 C 256.38 19.21 257.20 18.55 258.02 17.89 C 255.56 15.89 255.32 12.90 255.49 9.93 C 257.46 8.72 260.17 7.68 260.37 4.99 C 261.00 2.80 258.99 1.27 257.59 0.01 L 258.93 0.00 L 335.00 0.00 L 335.00 13.22 L 334.99 12.53 C 332.90 13.92 330.82 13.25 328.88 12.14 C 326.42 13.67 323.92 15.15 321.36 16.50 L 321.04 17.02 C 321.04 18.71 321.03 20.41 321.02 22.10 C 321.91 22.92 322.80 23.73 323.70 24.54 C 323.13 25.57 322.57 26.60 322.04 27.65 C 321.25 28.93 319.71 30.16 320.21 31.85 C 320.46 33.87 322.50 34.71 323.94 35.79 C 323.30 34.70 322.65 33.60 322.01 32.51 C 323.92 31.68 325.77 32.42 327.47 33.36 C 329.96 31.84 332.46 30.33 335.00 28.90 L 335.00 45.00 L 166.68 45.00 C 169.83 43.60 172.03 38.89 168.46 36.65 C 163.57 34.22 158.07 36.94 152.97 37.21 C 151.50 37.58 148.63 36.77 149.23 34.80 C 150.54 31.46 154.57 32.56 157.35 32.63 C 155.96 23.91 157.30 15.01 156.63 6.24 C 155.98 2.80 151.13 1.34 148.52 3.56 C 147.38 4.50 146.52 5.72 145.60 6.86 C 146.88 6.32 148.15 5.78 149.42 5.23 C 151.07 8.27 150.45 11.79 150.56 15.09 C 148.91 15.93 146.68 16.24 145.80 18.08 C 144.59 19.86 146.40 21.64 147.06 23.26 C 147.74 21.66 148.85 20.50 150.41 19.79 C 150.61 23.85 150.52 27.92 150.51 31.99 C 149.30 33.00 148.00 33.93 147.04 35.19 C 145.48 37.84 147.23 41.55 150.04 42.50 C 155.33 43.93 160.58 40.56 165.80 41.46 C 168.12 41.61 165.91 44.08 165.31 45.00 L 0.00 45.00 L 0.00 24.32 C 1.79 31.51 10.18 36.12 17.12 33.34 C 21.94 31.81 24.99 26.86 24.88 21.91 C 24.15 23.23 23.48 24.57 22.89 25.95 C 21.97 25.82 21.05 25.66 20.14 25.50 C 20.18 23.63 20.20 21.76 20.21 19.90 C 21.17 19.19 22.12 18.48 23.08 17.77 C 22.11 16.87 21.13 15.98 20.16 15.09 C 20.24 13.82 20.31 12.54 20.36 11.27 C 20.50 8.60 24.45 8.46 25.05 5.90 C 26.17 3.47 24.30 1.34 22.47 0.00 M 92.91 3.70 C 91.31 3.92 89.96 2.93 88.62 2.25 C 86.64 4.30 84.69 6.39 82.94 8.65 C 83.62 8.08 84.30 7.51 84.97 6.93 C 86.44 7.60 87.92 8.24 89.42 8.85 C 89.32 13.42 89.45 18.00 89.38 22.57 C 85.74 16.78 82.79 10.58 79.26 4.73 C 78.04 2.34 74.80 0.80 72.38 2.42 C 70.28 3.40 69.94 5.90 69.22 7.83 C 69.96 7.39 71.45 6.52 72.19 6.09 C 75.44 6.94 74.04 10.92 74.28 13.35 C 72.52 14.03 70.02 14.23 69.35 16.34 C 68.38 18.49 70.23 20.30 71.32 21.94 C 71.80 20.35 72.27 18.66 74.18 18.31 C 74.26 20.94 74.25 23.56 74.27 26.19 C 71.09 26.63 67.44 28.31 67.32 32.02 C 67.12 35.32 70.40 36.83 73.04 37.63 C 72.07 36.42 71.07 35.22 70.11 34.00 C 71.79 31.29 75.01 31.88 77.07 33.78 C 78.75 31.93 80.39 30.05 82.21 28.34 C 79.67 29.65 77.56 26.85 75.24 26.22 C 75.42 20.67 75.09 15.13 75.23 9.58 C 80.90 17.46 84.17 26.96 90.25 34.53 C 90.45 25.98 90.60 17.43 90.48 8.87 C 93.91 7.94 96.24 4.94 95.95 1.33 C 94.94 2.13 94.02 3.05 92.91 3.70 M 207.94 5.28 C 208.61 6.45 209.82 7.49 209.68 8.96 C 209.78 15.53 209.64 22.09 209.71 28.66 C 208.73 29.63 207.77 30.62 206.80 31.60 C 208.89 28.98 210.56 32.49 212.26 33.61 C 214.33 32.04 216.35 30.39 218.16 28.52 C 216.74 30.00 215.43 29.09 214.17 28.07 C 214.22 19.04 214.25 10.00 214.23 0.97 C 212.16 2.44 210.08 3.92 207.94 5.28 M 27.14 5.95 C 27.46 6.43 28.09 7.37 28.40 7.85 C 28.64 14.88 28.49 21.93 28.45 28.97 C 27.32 29.43 26.19 29.91 25.05 30.34 C 27.46 29.89 28.90 32.17 30.79 33.20 C 32.51 32.10 34.13 30.87 35.83 29.75 C 34.72 29.27 33.62 28.78 32.52 28.28 C 32.68 24.52 32.46 20.76 32.66 17.00 C 34.29 14.01 36.49 16.46 37.84 18.21 C 37.57 23.33 38.19 28.49 37.43 33.57 C 37.04 35.94 34.73 37.07 33.11 38.53 C 36.85 38.38 41.19 37.01 42.45 33.07 C 43.70 27.76 42.84 22.25 43.15 16.86 C 43.61 16.43 44.51 15.57 44.96 15.14 C 42.21 17.45 40.70 13.44 38.86 11.91 C 36.76 13.29 34.67 14.67 32.59 16.08 C 32.57 11.24 32.57 6.39 32.65 1.55 C 30.78 2.98 28.99 4.50 27.14 5.95 M 159.46 2.18 C 159.17 11.12 159.47 20.06 159.31 29.00 C 159.44 30.76 158.88 32.80 160.32 34.21 C 160.75 28.40 160.50 22.56 160.64 16.75 C 160.81 13.55 159.86 10.13 161.14 7.10 C 162.23 6.73 163.15 7.08 163.92 8.14 C 163.91 10.84 163.88 13.54 163.87 16.24 C 164.13 17.47 164.09 18.72 163.83 19.94 C 163.86 23.65 163.96 27.36 164.00 31.06 C 163.56 32.44 161.95 32.94 161.00 33.92 C 163.33 33.87 165.81 34.50 168.04 33.58 C 169.74 32.77 170.08 30.71 170.10 29.02 C 170.23 21.41 169.99 13.80 170.21 6.20 C 170.90 5.56 171.57 4.90 172.24 4.23 C 171.66 4.65 170.50 5.48 169.92 5.90 C 168.56 4.73 167.21 3.55 165.87 2.36 C 164.33 3.30 163.17 5.46 161.14 5.18 C 160.64 4.14 160.08 3.14 159.46 2.18 M 262.81 7.48 C 263.86 8.69 264.93 9.89 265.99 11.10 C 267.37 9.92 268.76 8.77 270.17 7.62 C 269.11 6.42 268.04 5.23 266.98 4.04 C 265.59 5.19 264.21 6.34 262.81 7.48 M 108.33 12.09 C 107.58 15.50 112.41 16.66 112.09 19.97 C 112.22 23.24 112.15 26.52 111.91 29.79 C 111.20 30.44 110.51 31.10 109.82 31.77 C 110.37 31.36 111.47 30.56 112.02 30.15 C 113.63 31.34 115.23 32.55 116.83 33.77 C 118.21 32.74 119.61 31.76 121.04 30.80 C 119.75 29.92 118.48 29.01 117.24 28.06 C 117.17 23.75 117.76 19.34 116.94 15.10 C 115.45 13.54 113.52 12.50 112.06 10.91 C 112.27 9.79 112.53 8.68 112.84 7.58 C 111.09 8.76 108.68 9.74 108.33 12.09 M 244.44 12.23 C 244.52 16.66 244.61 21.09 244.34 25.51 C 246.31 24.42 248.32 23.38 250.32 22.33 C 250.21 18.19 250.27 14.04 250.27 9.89 C 248.33 10.68 246.40 11.49 244.44 12.23 M 47.52 17.32 C 47.16 21.82 48.77 26.85 46.05 30.82 C 46.48 30.37 47.35 29.47 47.78 29.02 C 49.52 30.60 51.27 32.17 53.00 33.76 C 56.00 31.15 59.60 29.26 62.26 26.29 C 60.44 27.48 58.73 28.83 57.00 30.15 C 55.60 29.01 54.21 27.85 52.81 26.72 C 52.74 22.84 52.65 18.96 52.77 15.08 C 54.26 17.08 55.54 19.23 56.88 21.34 C 55.91 22.24 54.94 23.14 54.02 24.10 C 56.49 22.55 58.83 20.82 61.22 19.15 C 59.71 16.84 58.29 14.46 56.89 12.08 C 53.79 13.88 50.67 15.63 47.52 17.32 M 94.52 17.33 C 94.16 21.82 95.77 26.86 93.06 30.83 C 93.50 30.37 94.36 29.46 94.80 29.01 C 96.53 30.60 98.28 32.17 100.01 33.76 C 102.98 31.14 106.65 29.30 109.23 26.24 C 107.42 27.49 105.71 28.86 103.98 30.19 C 102.62 28.50 98.91 27.33 100.00 24.65 C 99.67 21.47 99.64 18.27 99.79 15.08 C 101.27 17.08 102.55 19.22 103.88 21.33 C 102.95 22.22 102.01 23.11 101.14 24.05 C 103.56 22.50 105.88 20.79 108.23 19.14 C 106.72 16.89 105.44 14.50 103.94 12.24 C 100.68 13.71 97.69 15.70 94.52 17.33 M 119.72 15.72 C 122.12 19.99 120.26 25.22 120.91 29.89 C 123.04 30.92 124.88 32.41 126.77 33.82 C 128.12 32.93 129.48 32.07 130.85 31.20 C 129.29 30.19 127.76 29.12 126.24 28.05 C 126.33 24.45 126.31 20.85 126.27 17.25 C 126.91 16.63 127.55 16.01 128.18 15.39 C 126.78 14.27 125.40 13.14 124.03 11.99 C 122.61 13.25 121.18 14.50 119.72 15.72 M 129.45 15.84 C 129.86 16.37 130.68 17.45 131.10 17.98 C 131.29 22.34 131.23 26.71 130.92 31.07 C 132.69 30.12 134.44 29.12 136.18 28.12 C 136.18 24.50 136.18 20.88 136.16 17.27 C 137.46 16.25 138.76 15.24 140.13 14.34 C 137.58 15.81 135.71 13.47 133.93 12.00 C 132.45 13.29 130.95 14.57 129.45 15.84 M 180.11 14.80 C 181.26 16.25 182.63 17.50 183.79 18.94 C 183.80 23.28 184.08 27.65 183.56 31.97 C 185.41 30.71 187.33 29.55 189.21 28.33 C 189.10 24.70 189.14 21.07 189.11 17.44 C 190.74 17.48 192.35 17.35 193.82 16.53 C 195.00 20.28 194.41 24.29 194.39 28.15 C 194.46 29.49 192.93 29.96 192.20 30.84 C 192.86 30.67 194.17 30.31 194.82 30.13 C 196.14 31.33 197.48 32.51 198.81 33.70 C 200.86 31.94 202.94 30.21 205.06 28.54 C 204.08 29.03 203.09 29.53 202.11 30.02 C 201.53 29.55 200.36 28.61 199.78 28.14 C 199.84 24.25 199.85 20.36 199.76 16.47 C 201.40 17.10 203.16 18.48 204.98 17.52 C 207.02 16.73 207.58 14.41 208.22 12.56 C 206.55 13.01 204.84 12.92 203.14 12.81 C 202.00 13.72 200.97 14.77 199.91 15.78 C 198.91 14.53 197.91 13.29 196.91 12.05 C 195.27 13.47 193.64 14.91 192.27 16.61 C 191.21 15.16 189.79 15.94 188.46 16.47 C 186.86 14.92 185.17 13.46 183.49 12.00 C 182.36 12.88 179.66 12.89 180.11 14.80 M 220.98 12.05 C 220.02 13.43 219.06 14.80 218.11 16.17 C 219.98 16.63 221.93 18.09 223.90 17.16 C 225.97 16.30 226.65 14.00 227.64 12.19 C 225.40 13.20 223.09 13.57 220.98 12.05 M 260.63 16.68 C 262.43 16.04 264.40 16.03 265.15 18.14 C 265.62 21.78 265.26 25.48 265.26 29.14 C 264.59 29.74 263.92 30.33 263.27 30.94 C 263.82 30.58 264.92 29.85 265.47 29.49 C 266.77 30.81 268.02 32.18 269.26 33.56 C 271.29 31.88 273.33 30.22 275.18 28.34 C 274.61 28.77 273.45 29.63 272.87 30.06 C 268.82 27.11 271.31 21.63 270.51 17.47 C 272.08 17.36 273.89 18.00 274.92 16.29 C 278.87 18.59 276.64 23.68 277.28 27.34 C 276.88 28.06 276.48 28.78 276.08 29.51 C 277.42 30.87 278.71 32.28 280.00 33.70 C 281.35 32.34 282.73 31.00 284.09 29.65 C 283.64 29.21 282.74 28.35 282.29 27.91 C 282.41 24.06 282.39 20.20 282.34 16.35 C 280.88 15.00 279.50 13.59 278.11 12.17 C 276.68 13.47 275.22 14.76 274.10 16.34 C 273.38 15.94 272.66 15.54 271.94 15.14 C 271.27 15.51 270.60 15.89 269.94 16.27 C 268.91 14.83 267.72 13.51 266.49 12.24 C 264.56 13.76 262.63 15.26 260.63 16.68 M 283.07 15.58 C 284.05 16.65 285.02 17.73 285.98 18.83 C 285.83 22.49 286.13 26.19 285.50 29.82 C 286.65 31.05 287.79 32.30 288.93 33.55 C 290.26 32.26 291.60 30.99 292.97 29.74 C 292.55 29.32 291.72 28.47 291.30 28.05 C 291.40 24.13 291.38 20.22 291.36 16.30 C 289.92 15.00 288.56 13.60 287.20 12.22 C 285.83 13.35 284.45 14.47 283.07 15.58 M 292.11 15.52 C 293.40 16.59 294.66 17.68 295.90 18.81 C 295.77 21.84 295.77 24.87 295.86 27.89 C 295.57 28.31 294.98 29.14 294.68 29.55 C 296.03 30.86 297.36 32.21 298.68 33.56 C 300.54 31.78 302.61 30.24 304.90 29.06 C 306.61 30.63 308.34 32.18 310.05 33.75 C 313.04 31.17 316.68 29.31 319.26 26.27 C 317.47 27.50 315.78 28.87 314.05 30.19 C 312.55 28.83 310.74 27.73 309.65 26.00 C 311.63 22.93 315.50 21.49 318.31 19.15 C 316.79 16.84 315.36 14.48 313.99 12.08 C 311.04 13.85 307.93 15.35 305.05 17.23 C 304.14 21.09 305.51 25.33 304.35 29.21 C 302.57 30.30 301.46 28.10 300.22 27.29 C 300.39 23.59 300.26 19.89 300.47 16.19 C 301.35 15.63 302.22 15.05 303.09 14.46 C 302.07 14.97 301.06 15.49 300.06 16.02 C 298.93 14.73 297.81 13.45 296.70 12.15 C 295.14 13.24 293.62 14.37 292.11 15.52 M 174.66 16.54 C 174.73 20.68 174.79 24.83 174.59 28.96 C 174.16 29.42 173.29 30.33 172.86 30.78 C 173.32 30.41 174.25 29.67 174.71 29.30 C 176.43 30.73 178.09 32.24 179.93 33.53 C 180.78 33.21 182.48 32.58 183.33 32.26 C 183.14 31.43 182.94 30.61 182.72 29.78 C 181.51 28.90 180.33 27.97 179.16 27.03 C 179.19 23.07 179.48 19.09 178.99 15.15 C 177.92 13.90 176.02 16.33 174.66 16.54 M 214.77 20.88 C 217.49 25.14 220.28 29.36 222.97 33.64 C 225.08 31.84 227.22 30.07 229.36 28.30 C 228.80 28.59 227.67 29.17 227.11 29.46 C 223.87 25.19 220.97 20.68 217.95 16.25 C 216.90 17.80 215.85 19.35 214.77 20.88 Z" />
<path fill="#ffffff" opacity="1.00" d=" M 5.89 13.58 C 6.83 13.46 8.71 13.22 9.65 13.10 C 9.50 17.20 10.00 21.34 9.32 25.40 C 7.55 27.16 6.40 24.47 5.77 23.23 C 4.19 20.18 4.61 16.64 5.89 13.58 Z" />
<path fill="#ffffff" opacity="1.00" d=" M 333.50 16.62 C 334.01 15.62 334.51 14.61 335.00 13.59 L 335.00 27.41 C 334.93 25.33 334.84 23.24 334.77 21.16 C 333.67 20.27 332.57 19.37 331.49 18.46 C 330.34 19.60 329.18 20.73 328.02 21.85 C 327.48 21.40 326.40 20.50 325.86 20.05 C 325.85 18.40 325.84 16.74 325.84 15.09 C 328.02 17.05 330.75 17.56 333.50 16.62 Z" />
<path fill="#ffffff" opacity="1.00" d=" M 309.83 15.11 C 311.38 17.14 312.69 19.32 314.02 21.50 C 312.64 22.57 311.25 23.62 309.85 24.65 C 309.78 21.47 309.74 18.29 309.83 15.11 Z" />
<path fill="#ffffff" opacity="1.00" d=" M 322.99 27.38 C 324.62 25.54 326.27 23.72 328.05 22.03 C 328.65 22.44 329.85 23.25 330.45 23.65 C 330.45 25.86 330.48 28.07 330.56 30.28 C 328.49 28.38 326.18 26.16 322.99 27.38 Z" />
</g>
<g id="#111111ff">
<path fill="#111111" opacity="1.00" d=" M 19.62 0.00 L 22.47 0.00 C 24.30 1.34 26.17 3.47 25.05 5.90 C 24.45 8.46 20.50 8.60 20.36 11.27 C 20.31 12.54 20.24 13.82 20.16 15.09 C 21.13 15.98 22.11 16.87 23.08 17.77 C 22.12 18.48 21.17 19.19 20.21 19.90 C 20.20 21.76 20.18 23.63 20.14 25.50 C 21.05 25.66 21.97 25.82 22.89 25.95 C 23.48 24.57 24.15 23.23 24.88 21.91 C 24.99 26.86 21.94 31.81 17.12 33.34 C 10.18 36.12 1.79 31.51 0.00 24.32 L 0.00 18.29 C 1.52 13.63 5.29 9.93 9.99 8.55 C 8.56 10.17 7.08 11.74 5.71 13.41 C 8.98 12.63 12.03 11.22 15.10 9.89 C 15.08 14.02 15.06 18.16 15.14 22.29 C 12.54 23.64 9.98 25.07 7.52 26.66 C 11.11 29.35 15.63 29.92 19.83 28.37 C 19.59 25.56 19.73 22.75 19.77 19.94 C 18.80 19.21 17.82 18.48 16.84 17.75 C 17.85 16.84 18.86 15.93 19.87 15.02 C 19.62 13.10 19.37 11.19 19.19 9.26 C 14.96 8.77 10.94 7.31 6.77 6.55 C 5.34 6.16 4.05 7.02 2.80 7.54 C 3.05 8.71 3.29 9.88 3.53 11.05 C 2.41 9.53 0.51 8.12 0.92 5.98 C 1.36 1.80 6.43 -0.24 10.06 1.19 C 14.03 1.81 18.09 4.78 22.10 2.98 C 22.23 1.29 21.10 0.42 19.62 0.00 M 5.89 13.58 C 4.61 16.64 4.19 20.18 5.77 23.23 C 6.40 24.47 7.55 27.16 9.32 25.40 C 10.00 21.34 9.50 17.20 9.65 13.10 C 8.71 13.22 6.83 13.46 5.89 13.58 Z" />
<path fill="#111111" opacity="1.00" d=" M 254.73 0.00 L 258.93 0.00 L 257.59 0.01 C 258.99 1.27 261.00 2.80 260.37 4.99 C 260.17 7.68 257.46 8.72 255.49 9.93 C 255.32 12.90 255.56 15.89 258.02 17.89 C 257.20 18.55 256.38 19.21 255.56 19.88 C 255.59 22.57 255.58 25.27 255.64 27.97 C 257.24 26.02 258.77 24.01 260.37 22.05 C 259.68 26.53 257.55 31.31 253.01 33.02 C 246.01 36.42 236.58 31.77 235.19 24.06 C 233.36 17.18 238.63 10.43 245.07 8.50 C 243.44 10.36 241.50 12.07 240.71 14.49 C 238.19 19.96 241.44 27.20 247.17 28.99 C 249.60 29.81 252.11 28.89 254.51 28.40 C 254.43 25.59 254.41 22.78 254.44 19.98 C 253.64 19.21 252.84 18.45 252.05 17.69 C 254.76 15.77 254.58 12.56 254.55 9.59 C 250.26 8.70 246.08 7.31 241.77 6.54 C 240.34 6.15 239.09 7.07 237.86 7.62 C 238.11 8.74 238.35 9.86 238.59 10.99 C 237.45 9.53 235.67 8.15 236.07 6.07 C 236.33 1.91 241.42 -0.20 245.00 1.15 C 249.06 1.82 253.15 4.72 257.29 3.02 C 257.25 1.38 256.21 0.43 254.73 0.00 Z" />
<path fill="#111111" opacity="1.00" d=" M 92.91 3.70 C 94.02 3.05 94.94 2.13 95.95 1.33 C 96.24 4.94 93.91 7.94 90.48 8.87 C 90.60 17.43 90.45 25.98 90.25 34.53 C 84.17 26.96 80.90 17.46 75.23 9.58 C 75.09 15.13 75.42 20.67 75.24 26.22 C 77.56 26.85 79.67 29.65 82.21 28.34 C 80.39 30.05 78.75 31.93 77.07 33.78 C 75.01 31.88 71.79 31.29 70.11 34.00 C 71.07 35.22 72.07 36.42 73.04 37.63 C 70.40 36.83 67.12 35.32 67.32 32.02 C 67.44 28.31 71.09 26.63 74.27 26.19 C 74.25 23.56 74.26 20.94 74.18 18.31 C 72.27 18.66 71.80 20.35 71.32 21.94 C 70.23 20.30 68.38 18.49 69.35 16.34 C 70.02 14.23 72.52 14.03 74.28 13.35 C 74.04 10.92 75.44 6.94 72.19 6.09 C 71.45 6.52 69.96 7.39 69.22 7.83 C 69.94 5.90 70.28 3.40 72.38 2.42 C 74.80 0.80 78.04 2.34 79.26 4.73 C 82.79 10.58 85.74 16.78 89.38 22.57 C 89.45 18.00 89.32 13.42 89.42 8.85 C 87.92 8.24 86.44 7.60 84.97 6.93 C 84.30 7.51 83.62 8.08 82.94 8.65 C 84.69 6.39 86.64 4.30 88.62 2.25 C 89.96 2.93 91.31 3.92 92.91 3.70 Z" />
<path fill="#111111" opacity="1.00" d=" M 207.94 5.28 C 210.08 3.92 212.16 2.44 214.23 0.97 C 214.25 10.00 214.22 19.04 214.17 28.07 C 215.43 29.09 216.74 30.00 218.16 28.52 C 216.35 30.39 214.33 32.04 212.26 33.61 C 210.56 32.49 208.89 28.98 206.80 31.60 C 207.77 30.62 208.73 29.63 209.71 28.66 C 209.64 22.09 209.78 15.53 209.68 8.96 C 209.82 7.49 208.61 6.45 207.94 5.28 Z" />
<path fill="#111111" opacity="1.00" d=" M 27.14 5.95 C 28.99 4.50 30.78 2.98 32.65 1.55 C 32.57 6.39 32.57 11.24 32.59 16.08 C 34.67 14.67 36.76 13.29 38.86 11.91 C 40.70 13.44 42.21 17.45 44.96 15.14 C 44.51 15.57 43.61 16.43 43.15 16.86 C 42.84 22.25 43.70 27.76 42.45 33.07 C 41.19 37.01 36.85 38.38 33.11 38.53 C 34.73 37.07 37.04 35.94 37.43 33.57 C 38.19 28.49 37.57 23.33 37.84 18.21 C 36.49 16.46 34.29 14.01 32.66 17.00 C 32.46 20.76 32.68 24.52 32.52 28.28 C 33.62 28.78 34.72 29.27 35.83 29.75 C 34.13 30.87 32.51 32.10 30.79 33.20 C 28.90 32.17 27.46 29.89 25.05 30.34 C 26.19 29.91 27.32 29.43 28.45 28.97 C 28.49 21.93 28.64 14.88 28.40 7.85 C 28.09 7.37 27.46 6.43 27.14 5.95 Z" />
<path fill="#111111" opacity="1.00" d=" M 148.52 3.56 C 151.13 1.34 155.98 2.80 156.63 6.24 C 157.30 15.01 155.96 23.91 157.35 32.63 C 154.57 32.56 150.54 31.46 149.23 34.80 C 148.63 36.77 151.50 37.58 152.97 37.21 C 158.07 36.94 163.57 34.22 168.46 36.65 C 172.03 38.89 169.83 43.60 166.68 45.00 L 165.31 45.00 C 165.91 44.08 168.12 41.61 165.80 41.46 C 160.58 40.56 155.33 43.93 150.04 42.50 C 147.23 41.55 145.48 37.84 147.04 35.19 C 148.00 33.93 149.30 33.00 150.51 31.99 C 150.52 27.92 150.61 23.85 150.41 19.79 C 148.85 20.50 147.74 21.66 147.06 23.26 C 146.40 21.64 144.59 19.86 145.80 18.08 C 146.68 16.24 148.91 15.93 150.56 15.09 C 150.45 11.79 151.07 8.27 149.42 5.23 C 148.15 5.78 146.88 6.32 145.60 6.86 C 146.52 5.72 147.38 4.50 148.52 3.56 Z" />
<path fill="#111111" opacity="1.00" d=" M 159.46 2.18 C 160.08 3.14 160.64 4.14 161.14 5.18 C 163.17 5.46 164.33 3.30 165.87 2.36 C 167.21 3.55 168.56 4.73 169.92 5.90 C 170.50 5.48 171.66 4.65 172.24 4.23 C 171.57 4.90 170.90 5.56 170.21 6.20 C 169.99 13.80 170.23 21.41 170.10 29.02 C 170.08 30.71 169.74 32.77 168.04 33.58 C 165.81 34.50 163.33 33.87 161.00 33.92 C 161.95 32.94 163.56 32.44 164.00 31.06 C 163.96 27.36 163.86 23.65 163.83 19.94 C 164.09 18.72 164.13 17.47 163.87 16.24 C 163.88 13.54 163.91 10.84 163.92 8.14 C 163.15 7.08 162.23 6.73 161.14 7.10 C 159.86 10.13 160.81 13.55 160.64 16.75 C 160.50 22.56 160.75 28.40 160.32 34.21 C 158.88 32.80 159.44 30.76 159.31 29.00 C 159.47 20.06 159.17 11.12 159.46 2.18 Z" />
<path fill="#111111" opacity="1.00" d=" M 262.81 7.48 C 264.21 6.34 265.59 5.19 266.98 4.04 C 268.04 5.23 269.11 6.42 270.17 7.62 C 268.76 8.77 267.37 9.92 265.99 11.10 C 264.93 9.89 263.86 8.69 262.81 7.48 Z" />
<path fill="#111111" opacity="1.00" d=" M 108.33 12.09 C 108.68 9.74 111.09 8.76 112.84 7.58 C 112.53 8.68 112.27 9.79 112.06 10.91 C 113.52 12.50 115.45 13.54 116.94 15.10 C 117.76 19.34 117.17 23.75 117.24 28.06 C 118.48 29.01 119.75 29.92 121.04 30.80 C 119.61 31.76 118.21 32.74 116.83 33.77 C 115.23 32.55 113.63 31.34 112.02 30.15 C 111.47 30.56 110.37 31.36 109.82 31.77 C 110.51 31.10 111.20 30.44 111.91 29.79 C 112.15 26.52 112.22 23.24 112.09 19.97 C 112.41 16.66 107.58 15.50 108.33 12.09 Z" />
<path fill="#111111" opacity="1.00" d=" M 244.44 12.23 C 246.40 11.49 248.33 10.68 250.27 9.89 C 250.27 14.04 250.21 18.19 250.32 22.33 C 248.32 23.38 246.31 24.42 244.34 25.51 C 244.61 21.09 244.52 16.66 244.44 12.23 Z" />
<path fill="#111111" opacity="1.00" d=" M 47.52 17.32 C 50.67 15.63 53.79 13.88 56.89 12.08 C 58.29 14.46 59.71 16.84 61.22 19.15 C 58.83 20.82 56.49 22.55 54.02 24.10 C 54.94 23.14 55.91 22.24 56.88 21.34 C 55.54 19.23 54.26 17.08 52.77 15.08 C 52.65 18.96 52.74 22.84 52.81 26.72 C 54.21 27.85 55.60 29.01 57.00 30.15 C 58.73 28.83 60.44 27.48 62.26 26.29 C 59.60 29.26 56.00 31.15 53.00 33.76 C 51.27 32.17 49.52 30.60 47.78 29.02 C 47.35 29.47 46.48 30.37 46.05 30.82 C 48.77 26.85 47.16 21.82 47.52 17.32 Z" />
<path fill="#111111" opacity="1.00" d=" M 94.52 17.33 C 97.69 15.70 100.68 13.71 103.94 12.24 C 105.44 14.50 106.72 16.89 108.23 19.14 C 105.88 20.79 103.56 22.50 101.14 24.05 C 102.01 23.11 102.95 22.22 103.88 21.33 C 102.55 19.22 101.27 17.08 99.79 15.08 C 99.64 18.27 99.67 21.47 100.00 24.65 C 98.91 27.33 102.62 28.50 103.98 30.19 C 105.71 28.86 107.42 27.49 109.23 26.24 C 106.65 29.30 102.98 31.14 100.01 33.76 C 98.28 32.17 96.53 30.60 94.80 29.01 C 94.36 29.46 93.50 30.37 93.06 30.83 C 95.77 26.86 94.16 21.82 94.52 17.33 Z" />
<path fill="#111111" opacity="1.00" d=" M 119.72 15.72 C 121.18 14.50 122.61 13.25 124.03 11.99 C 125.40 13.14 126.78 14.27 128.18 15.39 C 127.55 16.01 126.91 16.63 126.27 17.25 C 126.31 20.85 126.33 24.45 126.24 28.05 C 127.76 29.12 129.29 30.19 130.85 31.20 C 129.48 32.07 128.12 32.93 126.77 33.82 C 124.88 32.41 123.04 30.92 120.91 29.89 C 120.26 25.22 122.12 19.99 119.72 15.72 Z" />
<path fill="#111111" opacity="1.00" d=" M 129.45 15.84 C 130.95 14.57 132.45 13.29 133.93 12.00 C 135.71 13.47 137.58 15.81 140.13 14.34 C 138.76 15.24 137.46 16.25 136.16 17.27 C 136.18 20.88 136.18 24.50 136.18 28.12 C 134.44 29.12 132.69 30.12 130.92 31.07 C 131.23 26.71 131.29 22.34 131.10 17.98 C 130.68 17.45 129.86 16.37 129.45 15.84 Z" />
<path fill="#111111" opacity="1.00" d=" M 180.11 14.80 C 179.66 12.89 182.36 12.88 183.49 12.00 C 185.17 13.46 186.86 14.92 188.46 16.47 C 189.79 15.94 191.21 15.16 192.27 16.61 C 193.64 14.91 195.27 13.47 196.91 12.05 C 197.91 13.29 198.91 14.53 199.91 15.78 C 200.97 14.77 202.00 13.72 203.14 12.81 C 204.84 12.92 206.55 13.01 208.22 12.56 C 207.58 14.41 207.02 16.73 204.98 17.52 C 203.16 18.48 201.40 17.10 199.76 16.47 C 199.85 20.36 199.84 24.25 199.78 28.14 C 200.36 28.61 201.53 29.55 202.11 30.02 C 203.09 29.53 204.08 29.03 205.06 28.54 C 202.94 30.21 200.86 31.94 198.81 33.70 C 197.48 32.51 196.14 31.33 194.82 30.13 C 194.17 30.31 192.86 30.67 192.20 30.84 C 192.93 29.96 194.46 29.49 194.39 28.15 C 194.41 24.29 195.00 20.28 193.82 16.53 C 192.35 17.35 190.74 17.48 189.11 17.44 C 189.14 21.07 189.10 24.70 189.21 28.33 C 187.33 29.55 185.41 30.71 183.56 31.97 C 184.08 27.65 183.80 23.28 183.79 18.94 C 182.63 17.50 181.26 16.25 180.11 14.80 Z" />
<path fill="#111111" opacity="1.00" d=" M 220.98 12.05 C 223.09 13.57 225.40 13.20 227.64 12.19 C 226.65 14.00 225.97 16.30 223.90 17.16 C 221.93 18.09 219.98 16.63 218.11 16.17 C 219.06 14.80 220.02 13.43 220.98 12.05 Z" />
<path fill="#111111" opacity="1.00" d=" M 321.36 16.50 C 323.92 15.15 326.42 13.67 328.88 12.14 C 330.82 13.25 332.90 13.92 334.99 12.53 L 335.00 13.22 L 335.00 13.59 C 334.51 14.61 334.01 15.62 333.50 16.62 C 330.75 17.56 328.02 17.05 325.84 15.09 C 325.84 16.74 325.85 18.40 325.86 20.05 C 326.40 20.50 327.48 21.40 328.02 21.85 C 329.18 20.73 330.34 19.60 331.49 18.46 C 332.57 19.37 333.67 20.27 334.77 21.16 C 334.84 23.24 334.93 25.33 335.00 27.41 L 335.00 28.90 C 332.46 30.33 329.96 31.84 327.47 33.36 C 325.77 32.42 323.92 31.68 322.01 32.51 C 322.65 33.60 323.30 34.70 323.94 35.79 C 322.50 34.71 320.46 33.87 320.21 31.85 C 319.71 30.16 321.25 28.93 322.04 27.65 C 322.57 26.60 323.13 25.57 323.70 24.54 C 322.80 23.73 321.91 22.92 321.02 22.10 C 321.03 20.41 321.04 18.71 321.04 17.02 L 321.36 16.50 M 322.99 27.38 C 326.18 26.16 328.49 28.38 330.56 30.28 C 330.48 28.07 330.45 25.86 330.45 23.65 C 329.85 23.25 328.65 22.44 328.05 22.03 C 326.27 23.72 324.62 25.54 322.99 27.38 Z" />
<path fill="#111111" opacity="1.00" d=" M 260.63 16.68 C 262.63 15.26 264.56 13.76 266.49 12.24 C 267.72 13.51 268.91 14.83 269.94 16.27 C 270.60 15.89 271.27 15.51 271.94 15.14 C 272.66 15.54 273.38 15.94 274.10 16.34 C 275.22 14.76 276.68 13.47 278.11 12.17 C 279.50 13.59 280.88 15.00 282.34 16.35 C 282.39 20.20 282.41 24.06 282.29 27.91 C 282.74 28.35 283.64 29.21 284.09 29.65 C 282.73 31.00 281.35 32.34 280.00 33.70 C 278.71 32.28 277.42 30.87 276.08 29.51 C 276.48 28.78 276.88 28.06 277.28 27.34 C 276.64 23.68 278.87 18.59 274.92 16.29 C 273.89 18.00 272.08 17.36 270.51 17.47 C 271.31 21.63 268.82 27.11 272.87 30.06 C 273.45 29.63 274.61 28.77 275.18 28.34 C 273.33 30.22 271.29 31.88 269.26 33.56 C 268.02 32.18 266.77 30.81 265.47 29.49 C 264.92 29.85 263.82 30.58 263.27 30.94 C 263.92 30.33 264.59 29.74 265.26 29.14 C 265.26 25.48 265.62 21.78 265.15 18.14 C 264.40 16.03 262.43 16.04 260.63 16.68 Z" />
<path fill="#111111" opacity="1.00" d=" M 283.07 15.58 C 284.45 14.47 285.83 13.35 287.20 12.22 C 288.56 13.60 289.92 15.00 291.36 16.30 C 291.38 20.22 291.40 24.13 291.30 28.05 C 291.72 28.47 292.55 29.32 292.97 29.74 C 291.60 30.99 290.26 32.26 288.93 33.55 C 287.79 32.30 286.65 31.05 285.50 29.82 C 286.13 26.19 285.83 22.49 285.98 18.83 C 285.02 17.73 284.05 16.65 283.07 15.58 Z" />
<path fill="#111111" opacity="1.00" d=" M 292.11 15.52 C 293.62 14.37 295.14 13.24 296.70 12.15 C 297.81 13.45 298.93 14.73 300.06 16.02 C 301.06 15.49 302.07 14.97 303.09 14.46 C 302.22 15.05 301.35 15.63 300.47 16.19 C 300.26 19.89 300.39 23.59 300.22 27.29 C 301.46 28.10 302.57 30.30 304.35 29.21 C 305.51 25.33 304.14 21.09 305.05 17.23 C 307.93 15.35 311.04 13.85 313.99 12.08 C 315.36 14.48 316.79 16.84 318.31 19.15 C 315.50 21.49 311.63 22.93 309.65 26.00 C 310.74 27.73 312.55 28.83 314.05 30.19 C 315.78 28.87 317.47 27.50 319.26 26.27 C 316.68 29.31 313.04 31.17 310.05 33.75 C 308.34 32.18 306.61 30.63 304.90 29.06 C 302.61 30.24 300.54 31.78 298.68 33.56 C 297.36 32.21 296.03 30.86 294.68 29.55 C 294.98 29.14 295.57 28.31 295.86 27.89 C 295.77 24.87 295.77 21.84 295.90 18.81 C 294.66 17.68 293.40 16.59 292.11 15.52 M 309.83 15.11 C 309.74 18.29 309.78 21.47 309.85 24.65 C 311.25 23.62 312.64 22.57 314.02 21.50 C 312.69 19.32 311.38 17.14 309.83 15.11 Z" />
<path fill="#111111" opacity="1.00" d=" M 174.66 16.54 C 176.02 16.33 177.92 13.90 178.99 15.15 C 179.48 19.09 179.19 23.07 179.16 27.03 C 180.33 27.97 181.51 28.90 182.72 29.78 C 182.94 30.61 183.14 31.43 183.33 32.26 C 182.48 32.58 180.78 33.21 179.93 33.53 C 178.09 32.24 176.43 30.73 174.71 29.30 C 174.25 29.67 173.32 30.41 172.86 30.78 C 173.29 30.33 174.16 29.42 174.59 28.96 C 174.79 24.83 174.73 20.68 174.66 16.54 Z" />
<path fill="#111111" opacity="1.00" d=" M 214.77 20.88 C 215.85 19.35 216.90 17.80 217.95 16.25 C 220.97 20.68 223.87 25.19 227.11 29.46 C 227.67 29.17 228.80 28.59 229.36 28.30 C 227.22 30.07 225.08 31.84 222.97 33.64 C 220.28 29.36 217.49 25.14 214.77 20.88 Z" />
</g>
</svg>
