<svg xmlns="http://www.w3.org/2000/svg" xmlns:xlink="http://www.w3.org/1999/xlink" width="23" height="23" viewBox="0 0 23 23"><defs><path id="c8sba" d="M269 3228a10 10 0 1 1-20 0 10 10 0 0 1 20 0zm-3.8-3.52c-.44.2-.91.33-1.4.4.5-.31.89-.8 1.07-1.37-.47.28-1 .48-1.56.6a2.46 2.46 0 0 0-4.2 2.24 6.99 6.99 0 0 1-5.07-2.57 2.45 2.45 0 0 0 .76 3.28c-.4 0-.78-.12-1.11-.3v.03c0 1.19.85 2.18 1.97 2.41a2.46 2.46 0 0 1-1.11.04c.31.98 1.22 1.7 2.3 1.71a4.95 4.95 0 0 1-3.65 1.02c1.1.7 2.39 1.1 3.78 1.1 4.53 0 7-3.74 7-7v-.32c.48-.34.9-.77 1.22-1.27z"/></defs><g><g transform="translate(-247 -3216)"><use xlink:href="#c8sba"/><use fill="#00aced" xlink:href="#c8sba"/></g></g></svg>