<?xml version="1.0" encoding="UTF-8" ?>
<!DOCTYPE svg PUBLIC "-//W3C//DTD SVG 1.1//EN" "http://www.w3.org/Graphics/SVG/1.1/DTD/svg11.dtd">
<svg width="800pt" height="152pt" viewBox="0 0 800 152" version="1.1" xmlns="http://www.w3.org/2000/svg">
<g id="#592c71ff">
<path fill="#592c71" opacity="1.00" d=" M 751.81 0.06 C 765.65 1.74 779.57 2.74 793.40 4.64 C 783.00 34.68 777.26 66.02 769.49 96.78 C 763.87 96.19 758.26 95.68 752.65 95.12 C 753.81 81.11 753.35 67.03 753.34 52.99 C 752.97 35.34 753.21 17.66 751.81 0.06 Z" />
<path fill="#592c71" opacity="1.00" d=" M 0.00 9.51 C 11.98 8.71 24.01 9.52 36.01 9.40 C 59.60 8.97 83.21 8.51 106.78 9.66 C 106.42 12.33 106.05 15.00 105.66 17.67 C 94.65 19.13 83.48 18.92 72.52 20.72 C 87.20 42.53 104.14 62.68 119.62 83.90 C 128.95 74.69 139.77 67.18 149.50 58.41 C 154.58 53.73 160.17 49.22 163.26 42.87 C 153.77 41.00 144.16 39.73 134.55 38.72 C 133.89 35.29 133.26 31.86 132.85 28.40 C 150.90 27.83 168.95 28.61 187.00 28.53 C 199.64 28.66 212.29 28.46 224.91 29.13 C 222.51 32.25 220.77 35.93 217.95 38.68 C 209.12 40.63 200.08 41.87 191.43 44.54 C 181.14 50.54 171.89 58.18 162.50 65.49 C 152.82 73.40 143.04 81.30 134.46 90.43 C 132.29 92.94 129.65 95.48 129.26 98.96 C 128.36 104.58 128.55 110.29 128.19 115.96 C 127.71 123.97 129.32 131.89 130.46 139.78 C 141.63 140.45 152.82 139.93 163.99 140.46 C 163.99 143.98 163.84 147.51 163.61 151.02 C 145.42 150.80 127.23 150.87 109.04 150.87 C 92.46 151.06 75.89 151.70 59.31 151.59 C 59.86 148.24 60.45 144.90 61.14 141.57 C 70.71 141.15 80.74 142.33 89.89 138.93 C 93.92 137.37 93.48 132.45 93.49 128.93 C 93.19 119.24 93.71 109.52 92.89 99.85 C 92.84 97.50 91.66 95.44 90.34 93.58 C 82.57 82.53 74.11 72.00 65.64 61.50 C 55.86 49.65 46.04 37.80 35.29 26.81 C 33.55 25.18 31.87 23.13 29.36 22.80 C 19.70 21.11 9.88 20.43 0.24 18.61 C 0.17 16.64 0.06 14.66 0.00 12.69 L 0.00 9.51 Z" />
<path fill="#592c71" opacity="1.00" d=" M 655.15 18.20 C 672.68 16.98 691.07 17.40 707.37 24.68 C 720.45 30.60 732.13 41.58 735.23 56.05 C 738.25 65.03 737.79 75.05 733.54 83.57 C 727.34 96.51 715.21 105.56 702.34 111.24 C 684.46 119.12 664.37 120.77 645.12 118.51 C 632.75 117.05 620.85 112.47 610.55 105.50 C 602.47 100.11 594.37 93.68 590.51 84.47 C 586.70 75.09 585.47 64.12 589.51 54.60 C 594.13 43.36 603.89 35.11 614.38 29.49 C 626.97 22.88 641.03 19.41 655.15 18.20 M 652.44 32.62 C 640.28 34.90 627.83 40.09 620.17 50.21 C 613.07 59.48 612.54 72.52 616.89 83.08 C 620.44 91.65 627.97 98.03 636.42 101.54 C 650.30 107.29 665.91 107.28 680.51 104.68 C 691.52 102.72 702.69 97.60 708.91 87.89 C 714.14 80.78 714.89 71.55 714.52 63.01 C 713.92 52.45 707.00 43.03 697.67 38.35 C 683.85 31.26 667.57 30.47 652.44 32.62 Z" />
<path fill="#592c71" opacity="1.00" d=" M 384.32 21.27 C 404.47 21.54 424.62 22.13 444.77 21.66 C 444.52 23.97 444.24 26.28 443.90 28.58 C 437.66 29.49 431.57 31.18 425.43 32.60 C 424.80 38.10 424.80 43.65 425.12 49.18 C 425.98 63.76 425.89 78.37 426.55 92.95 C 426.70 98.82 427.23 104.71 426.63 110.57 C 431.83 111.53 437.11 111.89 442.36 112.47 C 444.14 115.13 443.49 118.36 443.44 121.35 C 433.63 120.99 423.81 121.35 413.99 121.34 C 404.36 121.40 394.74 120.88 385.11 121.07 C 384.89 117.98 384.70 114.89 384.54 111.79 C 391.91 111.15 399.32 110.79 406.67 109.83 C 407.80 100.25 406.96 90.59 406.75 80.98 C 388.46 81.40 370.20 82.49 351.93 83.46 C 346.83 83.77 341.71 83.84 336.65 84.57 C 336.71 92.97 336.83 101.42 338.46 109.69 C 346.37 110.77 354.36 111.14 362.29 112.06 C 362.22 115.44 362.15 118.81 362.08 122.19 C 337.86 122.04 313.63 122.12 289.40 122.24 C 289.64 118.78 289.88 115.31 290.08 111.84 C 297.89 111.08 305.71 110.39 313.51 109.45 C 314.62 87.57 314.56 65.62 313.69 43.73 C 305.76 42.99 297.81 42.47 289.87 41.97 C 289.56 39.34 289.28 36.70 289.01 34.07 C 302.98 34.14 316.95 33.68 330.92 33.73 C 341.74 33.69 352.57 33.97 363.39 33.66 C 363.14 36.45 362.85 39.24 362.47 42.02 C 354.36 42.53 346.24 43.04 338.17 44.08 C 336.32 52.77 336.97 61.68 336.28 70.48 C 359.69 70.23 383.11 70.42 406.49 69.29 C 406.67 62.51 406.55 55.73 407.00 48.96 C 407.23 43.60 407.88 38.21 407.18 32.86 C 399.39 31.37 391.53 30.32 383.64 29.60 C 383.86 26.82 384.09 24.05 384.32 21.27 Z" />
<path fill="#592c71" opacity="1.00" d=" M 501.56 36.74 C 518.64 34.98 536.75 35.11 552.62 42.46 C 559.30 45.65 565.18 50.38 570.26 55.72 C 574.48 60.14 576.35 66.15 577.41 72.03 C 579.99 83.36 577.15 95.85 569.76 104.84 C 560.01 116.58 544.77 121.99 530.09 124.18 C 508.65 127.15 486.00 125.04 466.39 115.45 C 458.42 111.68 450.60 105.81 448.08 96.96 C 445.49 87.17 445.34 76.22 449.94 66.99 C 454.07 58.58 461.20 51.96 469.18 47.23 C 479.03 41.40 490.26 38.19 501.56 36.74 M 506.57 48.75 C 495.42 50.49 483.83 54.44 476.13 63.09 C 466.42 74.05 468.69 92.24 479.00 102.03 C 487.72 110.39 500.22 113.32 511.98 113.47 C 522.42 113.41 533.15 112.06 542.63 107.45 C 549.04 104.29 554.84 98.72 556.22 91.47 C 557.04 83.45 558.35 75.09 555.72 67.24 C 553.52 59.96 547.58 54.24 540.57 51.52 C 529.81 47.32 517.88 47.38 506.57 48.75 Z" />
<path fill="#592c71" opacity="1.00" d=" M 210.60 53.98 C 228.86 54.99 247.15 54.55 265.42 54.47 C 264.86 56.62 264.33 58.78 263.83 60.94 C 259.38 61.61 254.99 62.60 250.69 63.88 C 257.40 81.69 264.95 99.17 272.38 116.70 C 275.09 122.58 277.52 128.65 281.05 134.10 C 287.01 135.88 293.21 137.25 299.40 138.17 C 299.57 141.03 299.37 143.89 299.05 146.73 C 279.84 146.32 260.61 146.54 241.39 146.37 C 241.74 143.35 242.10 140.32 242.42 137.30 C 248.57 136.55 254.66 135.47 260.77 134.47 C 256.33 124.60 251.85 114.76 247.10 105.03 C 238.36 105.34 229.61 105.42 220.89 106.24 C 219.74 106.45 218.28 106.24 217.60 107.42 C 213.51 112.44 209.76 118.11 208.93 124.68 C 213.57 125.64 218.22 126.53 222.90 127.29 C 222.43 130.41 221.94 133.54 221.45 136.66 C 205.15 136.76 188.83 136.35 172.55 137.17 C 173.53 133.91 174.56 130.66 175.51 127.39 C 181.09 126.20 186.58 124.70 192.09 123.22 C 198.19 113.34 203.34 102.93 208.85 92.72 C 213.61 83.32 218.70 74.08 223.07 64.50 C 219.05 63.32 215.18 61.67 211.09 60.71 C 210.92 58.47 210.76 56.23 210.60 53.98 M 220.92 97.32 C 229.00 97.34 237.09 97.34 245.17 97.32 C 241.51 87.24 237.50 77.26 234.32 67.01 C 229.75 77.07 225.25 87.16 220.92 97.32 Z" />
<path fill="#592c71" opacity="1.00" d=" M 748.66 111.04 C 755.88 112.07 763.14 112.81 770.44 112.95 C 769.52 119.35 768.51 125.73 767.63 132.13 C 761.35 131.84 755.09 131.20 748.82 130.73 C 748.64 124.17 748.76 117.60 748.66 111.04 Z" />
<path fill="#592c71" opacity="1.00" d=" M 781.30 125.73 C 779.34 120.35 783.23 113.94 788.92 113.27 C 793.95 112.31 798.63 116.02 800.00 120.73 L 800.00 124.31 C 799.14 127.27 797.39 130.16 794.45 131.41 C 789.50 133.87 782.86 131.06 781.30 125.73 M 787.16 115.22 C 781.98 117.45 780.95 125.18 785.12 128.85 C 787.58 131.38 791.31 131.00 794.45 130.31 C 792.50 128.01 791.92 123.86 788.58 123.30 C 788.48 125.12 788.40 126.93 788.29 128.75 L 786.92 128.00 C 786.52 124.43 786.90 120.82 786.70 117.23 C 789.42 117.28 794.50 116.03 794.87 120.01 C 795.23 121.98 793.37 122.89 791.99 123.70 C 792.88 124.87 793.78 126.06 794.72 127.21 C 794.74 127.91 794.77 129.32 794.79 130.02 C 797.07 127.66 798.94 124.44 798.12 121.04 C 797.40 116.16 791.61 113.01 787.16 115.22 M 788.44 118.38 C 788.47 119.69 788.51 121.01 788.57 122.32 C 790.21 121.84 793.20 122.62 793.27 120.11 C 792.76 117.88 790.05 118.70 788.44 118.38 Z" />
</g>
</svg>
