<?xml version="1.0" encoding="UTF-8" ?>
<!DOCTYPE svg PUBLIC "-//W3C//DTD SVG 1.1//EN" "http://www.w3.org/Graphics/SVG/1.1/DTD/svg11.dtd">
<svg width="140pt" height="27pt" viewBox="0 0 140 27" version="1.1" xmlns="http://www.w3.org/2000/svg">
<g id="#ffffffff">
<path fill="#ffffff" opacity="1.00" d=" M 0.00 0.00 L 131.74 0.00 C 131.86 5.71 131.90 11.43 131.86 17.15 C 132.61 17.13 134.09 17.11 134.84 17.10 C 136.00 11.66 137.25 6.24 138.89 0.92 C 137.07 0.61 135.26 0.28 133.44 0.00 L 140.00 0.00 L 140.00 27.00 L 29.85 27.00 C 28.06 24.78 25.08 24.96 22.55 24.58 C 22.62 22.10 22.27 19.53 23.04 17.13 C 27.12 11.38 33.58 8.04 39.99 5.51 C 34.03 5.06 28.00 4.75 22.07 5.63 C 24.30 6.52 26.60 7.21 28.86 8.03 C 26.27 10.37 23.65 12.69 21.00 14.96 C 18.28 11.30 15.54 7.66 12.78 4.04 C 15.12 3.48 17.46 2.93 19.77 2.23 C 13.21 1.36 6.59 1.82 0.00 1.79 L 0.00 0.00 M 112.45 3.62 C 108.41 4.43 103.78 6.63 102.83 11.04 C 102.06 16.00 106.70 19.57 110.98 20.73 C 116.62 22.17 123.57 21.14 127.48 16.49 C 130.23 13.40 129.22 8.30 126.09 5.86 C 122.30 2.79 117.01 2.89 112.45 3.62 M 66.22 4.29 C 67.79 5.32 69.60 5.79 71.41 6.21 C 71.29 8.30 71.15 10.40 71.01 12.49 C 67.02 12.51 63.04 12.57 59.06 12.66 C 59.05 11.18 59.03 9.71 59.01 8.23 C 60.86 7.88 62.71 7.53 64.54 7.09 C 59.98 5.03 54.73 6.31 49.89 6.31 C 51.42 7.41 53.24 7.89 55.04 8.33 C 55.15 12.00 55.10 15.67 54.92 19.34 C 53.27 19.89 51.00 19.55 50.08 21.37 C 54.86 22.13 59.76 21.90 64.56 21.40 C 62.98 20.21 61.05 19.71 59.17 19.24 C 59.11 17.84 59.03 16.44 58.92 15.05 C 63.06 14.73 67.20 14.58 71.35 14.50 C 71.30 16.07 71.24 17.64 71.16 19.21 C 69.60 19.82 67.97 20.28 66.57 21.24 C 70.59 21.69 74.75 22.03 78.69 20.92 C 77.71 20.57 75.76 19.88 74.79 19.53 C 74.63 15.12 74.55 10.70 74.54 6.29 C 75.88 5.57 77.30 4.99 78.60 4.18 C 74.48 3.85 70.32 3.60 66.22 4.29 M 84.35 7.42 C 80.20 8.68 76.78 13.14 78.52 17.56 C 80.27 20.96 84.59 21.89 88.09 22.31 C 91.97 22.60 96.30 22.05 99.25 19.28 C 102.30 16.52 101.89 10.95 98.47 8.66 C 94.44 5.74 88.90 6.00 84.35 7.42 M 36.66 9.69 C 37.41 10.44 38.11 11.24 38.76 12.08 C 37.49 15.39 35.65 18.46 33.85 21.50 C 32.47 22.47 31.00 23.27 29.58 24.17 C 32.95 24.58 36.34 24.40 39.72 24.20 C 38.78 23.26 37.76 22.41 36.66 21.67 C 37.14 20.78 37.62 19.89 38.09 19.00 C 39.77 18.98 41.45 18.92 43.12 19.05 C 44.19 20.32 44.82 21.90 45.54 23.39 C 44.31 24.16 43.08 24.93 41.80 25.61 C 45.20 27.92 49.64 27.17 53.20 25.62 C 51.87 24.84 50.42 24.30 49.07 23.56 C 47.53 20.18 45.87 16.83 44.67 13.30 C 43.86 11.82 45.26 10.12 46.73 9.85 C 43.38 9.67 40.02 9.88 36.66 9.69 M 130.99 19.80 C 131.06 21.03 131.13 22.26 131.20 23.48 C 132.32 23.49 133.44 23.50 134.57 23.51 C 134.66 22.41 134.74 21.31 134.83 20.22 C 133.55 20.08 132.27 19.94 130.99 19.80 Z" />
<path fill="#ffffff" opacity="1.00" d=" M 0.00 3.17 C 2.42 3.84 5.31 3.83 7.11 5.82 C 10.08 8.90 12.79 12.25 15.19 15.80 C 16.97 18.38 16.31 21.69 16.46 24.64 C 14.77 24.87 13.08 25.08 11.40 25.40 C 11.05 25.80 10.35 26.60 9.99 27.00 L 0.00 27.00 L 0.00 3.17 Z" />
<path fill="#ffffff" opacity="1.00" d=" M 113.17 6.13 C 116.71 5.26 121.05 5.46 123.79 8.15 C 126.66 11.27 124.97 16.94 120.95 18.15 C 116.69 19.68 110.50 19.50 108.11 15.02 C 106.06 11.18 109.24 6.83 113.17 6.13 Z" />
<path fill="#ffffff" opacity="1.00" d=" M 86.29 9.36 C 90.32 7.72 97.86 8.16 97.60 14.02 C 98.24 20.77 88.60 21.66 84.40 18.65 C 80.78 16.12 82.14 10.43 86.29 9.36 Z" />
<path fill="#ffffff" opacity="1.00" d=" M 38.73 17.26 C 39.45 15.53 40.29 13.86 41.03 12.14 C 41.70 13.80 42.38 15.46 43.05 17.13 C 41.61 17.18 40.17 17.23 38.73 17.26 Z" />
</g>
<g id="#828181ff">
<path fill="#828181" opacity="1.00" d=" M 131.74 0.00 L 133.44 0.00 C 135.26 0.28 137.07 0.61 138.89 0.92 C 137.25 6.24 136.00 11.66 134.84 17.10 C 134.09 17.11 132.61 17.13 131.86 17.15 C 131.90 11.43 131.86 5.71 131.74 0.00 Z" />
<path fill="#828181" opacity="1.00" d=" M 0.00 1.79 C 6.59 1.82 13.21 1.36 19.77 2.23 C 17.46 2.93 15.12 3.48 12.78 4.04 C 15.54 7.66 18.28 11.30 21.00 14.96 C 23.65 12.69 26.27 10.37 28.86 8.03 C 26.60 7.21 24.30 6.52 22.07 5.63 C 28.00 4.75 34.03 5.06 39.99 5.51 C 33.58 8.04 27.12 11.38 23.04 17.13 C 22.27 19.53 22.62 22.10 22.55 24.58 C 25.08 24.96 28.06 24.78 29.85 27.00 L 9.99 27.00 C 10.35 26.60 11.05 25.80 11.40 25.40 C 13.08 25.08 14.77 24.87 16.46 24.64 C 16.31 21.69 16.97 18.38 15.19 15.80 C 12.79 12.25 10.08 8.90 7.11 5.82 C 5.31 3.83 2.42 3.84 0.00 3.17 L 0.00 1.79 Z" />
<path fill="#828181" opacity="1.00" d=" M 112.45 3.62 C 117.01 2.89 122.30 2.79 126.09 5.86 C 129.22 8.30 130.23 13.40 127.48 16.49 C 123.57 21.14 116.62 22.17 110.98 20.73 C 106.70 19.57 102.06 16.00 102.83 11.04 C 103.78 6.63 108.41 4.43 112.45 3.62 M 113.17 6.13 C 109.24 6.83 106.06 11.18 108.11 15.02 C 110.50 19.50 116.69 19.68 120.95 18.15 C 124.97 16.94 126.66 11.27 123.79 8.15 C 121.05 5.46 116.71 5.26 113.17 6.13 Z" />
<path fill="#828181" opacity="1.00" d=" M 66.22 4.29 C 70.32 3.60 74.48 3.85 78.60 4.18 C 77.30 4.99 75.88 5.57 74.54 6.29 C 74.55 10.70 74.63 15.12 74.79 19.53 C 75.76 19.88 77.71 20.57 78.69 20.92 C 74.75 22.03 70.59 21.69 66.57 21.24 C 67.97 20.28 69.60 19.82 71.16 19.21 C 71.24 17.64 71.30 16.07 71.35 14.50 C 67.20 14.58 63.06 14.73 58.92 15.05 C 59.03 16.44 59.11 17.84 59.17 19.24 C 61.05 19.71 62.98 20.21 64.56 21.40 C 59.76 21.90 54.86 22.13 50.08 21.37 C 51.00 19.55 53.27 19.89 54.92 19.34 C 55.10 15.67 55.15 12.00 55.04 8.33 C 53.24 7.89 51.42 7.41 49.89 6.31 C 54.73 6.31 59.98 5.03 64.54 7.09 C 62.71 7.53 60.86 7.88 59.01 8.23 C 59.03 9.71 59.05 11.18 59.06 12.66 C 63.04 12.57 67.02 12.51 71.01 12.49 C 71.15 10.40 71.29 8.30 71.41 6.21 C 69.60 5.79 67.79 5.32 66.22 4.29 Z" />
<path fill="#828181" opacity="1.00" d=" M 84.35 7.42 C 88.90 6.00 94.44 5.74 98.47 8.66 C 101.89 10.95 102.30 16.52 99.25 19.28 C 96.30 22.05 91.97 22.60 88.09 22.31 C 84.59 21.89 80.27 20.96 78.52 17.56 C 76.78 13.14 80.20 8.68 84.35 7.42 M 86.29 9.36 C 82.14 10.43 80.78 16.12 84.40 18.65 C 88.60 21.66 98.24 20.77 97.60 14.02 C 97.86 8.16 90.32 7.72 86.29 9.36 Z" />
<path fill="#828181" opacity="1.00" d=" M 36.66 9.69 C 40.02 9.88 43.38 9.67 46.73 9.85 C 45.26 10.12 43.86 11.82 44.67 13.30 C 45.87 16.83 47.53 20.18 49.07 23.56 C 50.42 24.30 51.87 24.84 53.20 25.62 C 49.64 27.17 45.20 27.92 41.80 25.61 C 43.08 24.93 44.31 24.16 45.54 23.39 C 44.82 21.90 44.19 20.32 43.12 19.05 C 41.45 18.92 39.77 18.98 38.09 19.00 C 37.62 19.89 37.14 20.78 36.66 21.67 C 37.76 22.41 38.78 23.26 39.72 24.20 C 36.34 24.40 32.95 24.58 29.58 24.17 C 31.00 23.27 32.47 22.47 33.85 21.50 C 35.65 18.46 37.49 15.39 38.76 12.08 C 38.11 11.24 37.41 10.44 36.66 9.69 M 38.73 17.26 C 40.17 17.23 41.61 17.18 43.05 17.13 C 42.38 15.46 41.70 13.80 41.03 12.14 C 40.29 13.86 39.45 15.53 38.73 17.26 Z" />
<path fill="#828181" opacity="1.00" d=" M 130.99 19.80 C 132.27 19.94 133.55 20.08 134.83 20.22 C 134.74 21.31 134.66 22.41 134.57 23.51 C 133.44 23.50 132.32 23.49 131.20 23.48 C 131.13 22.26 131.06 21.03 130.99 19.80 Z" />
</g>
</svg>
